<?xml version="1.0" encoding="UTF-8" standalone="no"?>
<!-- Created with Inkscape (http://www.inkscape.org/) -->

<svg
   width="1024mm"
   height="1024mm"
   viewBox="0 0 1024 1024"
   version="1.1"
   id="svg1"
   xml:space="preserve"
   inkscape:export-filename="icon-inverted-128.png"
   inkscape:export-xdpi="3.175"
   inkscape:export-ydpi="3.175"
   inkscape:version="1.3 (0e150ed, 2023-07-21)"
   sodipodi:docname="firmware-icon-invert.svg"
   xmlns:inkscape="http://www.inkscape.org/namespaces/inkscape"
   xmlns:sodipodi="http://sodipodi.sourceforge.net/DTD/sodipodi-0.dtd"
   xmlns="http://www.w3.org/2000/svg"
   xmlns:svg="http://www.w3.org/2000/svg"><sodipodi:namedview
     id="namedview1"
     pagecolor="#ffffff"
     bordercolor="#000000"
     borderopacity="0.25"
     inkscape:showpageshadow="2"
     inkscape:pageopacity="0.0"
     inkscape:pagecheckerboard="0"
     inkscape:deskcolor="#d1d1d1"
     inkscape:document-units="mm"
     inkscape:zoom="0.10123094"
     inkscape:cx="1308.8884"
     inkscape:cy="2005.3158"
     inkscape:window-width="1392"
     inkscape:window-height="1051"
     inkscape:window-x="336"
     inkscape:window-y="38"
     inkscape:window-maximized="0"
     inkscape:current-layer="layer1" /><defs
     id="defs1" /><g
     inkscape:label="Layer 1"
     inkscape:groupmode="layer"
     id="layer1"><rect
       style="fill:#e74860;fill-opacity:1;stroke:#36998e;stroke-width:0.264583"
       id="rect1"
       width="1027.1686"
       height="1027.1686"
       x="-2.6136606"
       y="-1.5842896" /><g
       style="display:none;fill:none"
       id="g1"
       transform="matrix(4.1433586,0,0,4.1433586,176.86455,212.76664)"><path
         fill-rule="evenodd"
         clip-rule="evenodd"
         d="m 128.577,144.44 h 32.597 l -6.775,-12.908 -11.556,-2.6 -11.363,-22.646 14.834,-24.9285 -5.886,-11.5986 h 4.348 l 7.856,-5.0706 V 60.05 h 3.286 V 42.6767 l -15.144,-4.7432 -3.903,-5.3732 H 117.416 L 102.711,48.9521 88.0554,19.7449 0.595947,0 58.787,65.3614 H 52.1168 L 28.2586,82.2839 16.1967,105.648 11.1076,107.087 V 87.41 L 16.1782,84.0811 5.03035,67.0907 V 115.11 L 20.3841,110.78 32.9709,86.3848 46.2554,76.9616 26.8566,115.981 v 15.372 l 5.3238,13.087 h 20.5911 v -6.602 l -2.489,-5.231 -5.8117,-3.552 v -3.038 l 11.9687,-19.782 v 12.908 l 10.4746,12.086 4.5395,8.085 v 5.126 H 95.287 v -6.565 l -2.6186,-5.898 -6.2317,-3.366 -7.3866,-10.938 5.6713,-10.517 17.2186,2.698 -4.0463,22.234 -0.0494,12.352 h 23.9637 v -6.299 l -1.118,-4.423 -3.41,-3.328 2.599,-5.19 8.698,13.49 z m 8.77,-80.7522 h 5.638 l 3.57,-2.3037 V 60.05 h -2.927 v -6.0711 h 6.219 v -6.8431 l -12.809,-4.0083 -3.261,-4.4961 h -9.145 z m -18.691,-23.4217 -4.266,4.7576 21.249,42.3959 3.745,-6.2968 z m -13.018,14.5192 4.396,-4.9033 21.92,43.7338 -3.706,6.2296 z M 55.7839,71.4325 32.9277,117.401 v 12.766 l 3.3351,8.196 h 10.0361 l -0.7226,-1.513 -7.1766,-4.385 v -8.14 l 16.8916,-27.9287 59.2227,9.2827 20.134,31.22 v 1.464 h 16.478 l -0.797,-1.52 -11.624,-2.618 -0.648,-1.285 L 100.501,58.0858 66.1241,71.4325 Z M 97.7646,52.6313 83.9175,25.0317 69.0912,21.685 91.1419,55.203 Z M 85.3536,57.4507 60.5568,19.7586 42.8831,15.7692 78.5466,60.0939 Z M 72.6094,62.3994 33.3616,13.6199 17.7037,10.0855 66.328,64.7068 66.065,64.9407 Z M 62.5106,116.882 v -13.205 l 15.849,2.483 -6.3934,11.865 10.2708,15.218 5.719,3.088 0.9017,2.032 H 77.5246 v -0.636 l -5.6202,-10.006 z m 53.5454,2.388 -5.168,-8.014 -2.948,-0.462 -4.018,22.115 v 5.454 h 11.679 l -0.377,-1.501 -5.361,-5.225 z m 1.366,-100.8899 h -0.006 V 28.515 H 136.87 V 18.3801 h -0.012 l -4.848,4.8544 -4.855,-4.8544 h -0.024 l -4.855,4.8544 z"
         fill="#e74860"
         id="path1"
         style="fill:#ffffff;fill-opacity:1" /></g><g
       style="display:inline;fill:none"
       id="g2"
       transform="matrix(5.2975234,0,0,5.2975234,83.50996,129.41286)"><path
         fill-rule="evenodd"
         clip-rule="evenodd"
         d="m 128.577,144.44 h 32.597 l -6.775,-12.908 -11.556,-2.6 -11.363,-22.646 14.834,-24.9285 -5.886,-11.5986 h 4.348 l 7.856,-5.0706 V 60.05 h 3.286 V 42.6767 l -15.144,-4.7432 -3.903,-5.3732 H 117.416 L 102.711,48.9521 88.0554,19.7449 0.595947,0 58.787,65.3614 H 52.1168 L 28.2586,82.2839 16.1967,105.648 11.1076,107.087 V 87.41 L 16.1782,84.0811 5.03035,67.0907 V 115.11 L 20.3841,110.78 32.9709,86.3848 46.2554,76.9616 26.8566,115.981 v 15.372 l 5.3238,13.087 h 20.5911 v -6.602 l -2.489,-5.231 -5.8117,-3.552 v -3.038 l 11.9687,-19.782 v 12.908 l 10.4746,12.086 4.5395,8.085 v 5.126 H 95.287 v -6.565 l -2.6186,-5.898 -6.2317,-3.366 -7.3866,-10.938 5.6713,-10.517 17.2186,2.698 -4.0463,22.234 -0.0494,12.352 h 23.9637 v -6.299 l -1.118,-4.423 -3.41,-3.328 2.599,-5.19 8.698,13.49 z m 8.77,-80.7522 h 5.638 l 3.57,-2.3037 V 60.05 h -2.927 v -6.0711 h 6.219 v -6.8431 l -12.809,-4.0083 -3.261,-4.4961 h -9.145 z m -18.691,-23.4217 -4.266,4.7576 21.249,42.3959 3.745,-6.2968 z m -13.018,14.5192 4.396,-4.9033 21.92,43.7338 -3.706,6.2296 z M 55.7839,71.4325 32.9277,117.401 v 12.766 l 3.3351,8.196 h 10.0361 l -0.7226,-1.513 -7.1766,-4.385 v -8.14 l 16.8916,-27.9287 59.2227,9.2827 20.134,31.22 v 1.464 h 16.478 l -0.797,-1.52 -11.624,-2.618 -0.648,-1.285 L 100.501,58.0858 66.1241,71.4325 Z M 97.7646,52.6313 83.9175,25.0317 69.0912,21.685 91.1419,55.203 Z M 85.3536,57.4507 60.5568,19.7586 42.8831,15.7692 78.5466,60.0939 Z M 72.6094,62.3994 33.3616,13.6199 17.7037,10.0855 66.328,64.7068 66.065,64.9407 Z M 62.5106,116.882 v -13.205 l 15.849,2.483 -6.3934,11.865 10.2708,15.218 5.719,3.088 0.9017,2.032 H 77.5246 v -0.636 l -5.6202,-10.006 z m 53.5454,2.388 -5.168,-8.014 -2.948,-0.462 -4.018,22.115 v 5.454 h 11.679 l -0.377,-1.501 -5.361,-5.225 z m 1.366,-100.8899 h -0.006 V 28.515 H 136.87 V 18.3801 h -0.012 l -4.848,4.8544 -4.855,-4.8544 h -0.024 l -4.855,4.8544 z"
         fill="#e74860"
         id="path1-5"
         style="fill:#ffffff;fill-opacity:1" /></g></g></svg>
