<svg width="24" height="24" viewBox="0 0 40 40" xmlns="http://www.w3.org/2000/svg">
<path d="M8.29882 11.3001H26.0394V17.1001H14.3332C14.2848 17.0991 14.2368 17.1078 14.1919 17.1255C14.1469 17.1433 14.1059 17.1698 14.0713 17.2035C14.0367 17.2372 14.0091 17.2775 13.9902 17.322C13.9712 17.3664 13.9613 17.4142 13.961 17.4626V22.5375C13.961 22.7441 14.1302 22.9 14.3332 22.9H26.0394V28.6999H20.3772C20.3289 28.699 20.2808 28.7076 20.2359 28.7254C20.1909 28.7431 20.1499 28.7697 20.1153 28.8034C20.0807 28.8371 20.0531 28.8774 20.0342 28.9218C20.0152 28.9663 20.0053 29.0141 20.005 29.0624V34.1374C20.005 34.344 20.1754 34.4999 20.3772 34.4999H25.6672C25.7158 34.5017 25.7642 34.4936 25.8095 34.4762C25.8548 34.4587 25.8961 34.4322 25.9309 34.3983C25.9657 34.3644 25.9933 34.3238 26.0119 34.279C26.0306 34.2341 26.0399 34.186 26.0394 34.1374V28.6999H31.7112C31.7596 28.7009 31.8076 28.6923 31.8525 28.6745C31.8975 28.6567 31.9385 28.6302 31.9731 28.5965C32.0077 28.5628 32.0353 28.5225 32.0542 28.478C32.0732 28.4336 32.0831 28.3858 32.0834 28.3374V23.2625C32.0834 23.0559 31.9142 22.9 31.7112 22.9H26.0394V17.1001H31.7112C31.7596 17.101 31.8076 17.0924 31.8525 17.0746C31.8975 17.0569 31.9385 17.0304 31.9731 16.9966C32.0077 16.9629 32.0353 16.9226 32.0542 16.8782C32.0732 16.8337 32.0831 16.7859 32.0834 16.7376V11.6626C32.0834 11.456 31.9142 11.3001 31.7112 11.3001H26.0394V5.86269C26.0394 5.65607 25.8702 5.5002 25.6672 5.5002H8.29882C8.20029 5.49824 8.10495 5.53519 8.03348 5.60305C7.962 5.6709 7.92015 5.76419 7.91699 5.86269V10.9376C7.91699 11.1443 8.08616 11.3001 8.29882 11.3001Z" fill="currentColor"/>
</svg>
