<svg width="40" height="40" viewBox="0 0 40 40" fill="none" xmlns="http://www.w3.org/2000/svg">
<path d="M9.12409 14.7763C8.36389 14.7753 7.6351 14.4728 7.09756 13.9353C6.56001 13.3977 6.25758 12.669 6.25659 11.9087C6.25725 11.1483 6.55954 10.4192 7.09712 9.88141C7.6347 9.34359 8.36367 9.04099 9.12409 9.04C9.88494 9.04033 10.6146 9.34264 11.1527 9.88053C11.6908 10.4184 11.9934 11.1479 11.9941 11.9087C11.9928 12.6692 11.6898 13.398 11.1518 13.9354C10.6137 14.4727 9.88451 14.7759 9.12409 14.7763ZM9.12409 10.1662C8.67305 10.1833 8.24617 10.3745 7.9331 10.6997C7.62003 11.0248 7.44513 11.4586 7.44513 11.91C7.44513 12.3614 7.62003 12.7952 7.9331 13.1203C8.24617 13.4455 8.67305 13.6367 9.12409 13.6537C9.57514 13.6367 10.002 13.4455 10.3151 13.1203C10.6282 12.7952 10.8031 12.3614 10.8031 11.91C10.8031 11.4586 10.6282 11.0248 10.3151 10.6997C10.002 10.3745 9.57514 10.1833 9.12409 10.1662ZM9.12409 22.8663C8.36367 22.8653 7.6347 22.5627 7.09712 22.0248C6.55954 21.487 6.25725 20.7579 6.25659 19.9975C6.25758 19.2373 6.56001 18.5085 7.09756 17.971C7.6351 17.4334 8.36389 17.131 9.12409 17.13C9.88451 17.1307 10.6136 17.4329 11.1514 17.9705C11.6892 18.5081 11.9918 19.2371 11.9928 19.9975C11.9922 20.7581 11.6897 21.4874 11.1519 22.0253C10.614 22.5631 9.88473 22.8656 9.12409 22.8663ZM9.12409 18.2562C8.67337 18.2733 8.2468 18.4644 7.93397 18.7893C7.62113 19.1142 7.44636 19.5477 7.44636 19.9987C7.44636 20.4498 7.62113 20.8833 7.93397 21.2082C8.2468 21.5331 8.67337 21.7242 9.12409 21.7412C9.35847 21.7501 9.59224 21.7116 9.81139 21.6281C10.0306 21.5445 10.2306 21.4176 10.3996 21.2549C10.5685 21.0922 10.7029 20.8971 10.7947 20.6813C10.8865 20.4654 10.9339 20.2333 10.9339 19.9987C10.9339 19.7642 10.8865 19.5321 10.7947 19.3162C10.7029 19.1004 10.5685 18.9053 10.3996 18.7426C10.2306 18.5799 10.0306 18.453 9.81139 18.3694C9.59224 18.2859 9.35847 18.2474 9.12409 18.2562ZM9.12409 30.9512C8.36389 30.9503 7.6351 30.6478 7.09756 30.1103C6.56001 29.5727 6.25758 28.844 6.25659 28.0837C6.25725 27.3233 6.55954 26.5942 7.09712 26.0564C7.6347 25.5186 8.36367 25.216 9.12409 25.215C9.88473 25.2157 10.614 25.5181 11.1519 26.056C11.6897 26.5938 11.9922 27.3231 11.9928 28.0837C11.9918 28.8442 11.6892 29.5731 11.1514 30.1107C10.6136 30.6483 9.88451 30.9506 9.12409 30.9512ZM9.12409 26.3412C8.67305 26.3583 8.24617 26.5495 7.9331 26.8747C7.62003 27.1998 7.44513 27.6336 7.44513 28.085C7.44513 28.5364 7.62003 28.9702 7.9331 29.2953C8.24617 29.6205 8.67305 29.8117 9.12409 29.8288C9.57514 29.8117 10.002 29.6205 10.3151 29.2953C10.6282 28.9702 10.8031 28.5364 10.8031 28.085C10.8031 27.6336 10.6282 27.1998 10.3151 26.8747C10.002 26.5495 9.57514 26.3583 9.12409 26.3412ZM30.9291 14.7763C30.1687 14.7756 29.4396 14.4733 28.9018 13.9357C28.3639 13.3981 28.0613 12.6692 28.0603 11.9087C28.061 11.1483 28.3633 10.4192 28.9009 9.88141C29.4384 9.34359 30.1674 9.04099 30.9278 9.04C31.6885 9.04066 32.4178 9.34312 32.9556 9.88097C33.4935 10.4188 33.7959 11.1481 33.7966 11.9087C33.7956 12.669 33.4932 13.3977 32.9556 13.9353C32.4181 14.4728 31.6893 14.7753 30.9291 14.7763ZM30.9291 10.1662C30.5839 10.166 30.2463 10.2682 29.9592 10.4598C29.672 10.6515 29.4481 10.924 29.3159 11.2429C29.1837 11.5618 29.149 11.9128 29.2163 12.2514C29.2836 12.59 29.4498 12.901 29.6939 13.1452C29.9381 13.3893 30.2491 13.5555 30.5877 13.6228C30.9263 13.6901 31.2773 13.6554 31.5962 13.5232C31.9151 13.391 32.1876 13.1671 32.3793 12.8799C32.5709 12.5928 32.6731 12.2552 32.6728 11.91C32.6728 10.9475 31.8903 10.1662 30.9291 10.1662ZM30.9291 22.8663C30.1685 22.8656 29.4392 22.5631 28.9013 22.0253C28.3635 21.4874 28.061 20.7581 28.0603 19.9975C28.0613 19.2373 28.3638 18.5085 28.9013 17.971C29.4389 17.4334 30.1676 17.131 30.9278 17.13C31.6883 17.1307 32.4174 17.4329 32.9552 17.9705C33.493 18.5081 33.7956 19.2371 33.7966 19.9975C33.7959 20.7579 33.4936 21.487 32.9561 22.0248C32.4185 22.5627 31.6895 22.8653 30.9291 22.8663ZM30.9291 18.2562C29.9678 18.2562 29.1853 19.0375 29.1853 19.9975C29.2024 20.4485 29.3936 20.8754 29.7188 21.1885C30.0439 21.5016 30.4777 21.6765 30.9291 21.6765C31.3805 21.6765 31.8143 21.5016 32.1394 21.1885C32.4646 20.8754 32.6558 20.4485 32.6728 19.9975C32.6728 19.035 31.8903 18.2562 30.9291 18.2562ZM30.9291 30.9512C30.1687 30.9506 29.4396 30.6483 28.9018 30.1107C28.3639 29.5731 28.0613 28.8442 28.0603 28.0837C28.061 27.3233 28.3633 26.5942 28.9009 26.0564C29.4384 25.5186 30.1674 25.216 30.9278 25.215C31.6885 25.2157 32.4178 25.5181 32.9556 26.056C33.4935 26.5938 33.7959 27.3231 33.7966 28.0837C33.7956 28.844 33.4932 29.5727 32.9556 30.1103C32.4181 30.6478 31.6893 30.9503 30.9291 30.9512ZM30.9291 26.3412C30.5839 26.341 30.2463 26.4432 29.9592 26.6348C29.672 26.8265 29.4481 27.099 29.3159 27.4179C29.1837 27.7368 29.149 28.0878 29.2163 28.4264C29.2836 28.765 29.4498 29.076 29.6939 29.3202C29.9381 29.5643 30.2491 29.7305 30.5877 29.7978C30.9263 29.8651 31.2773 29.8304 31.5962 29.6982C31.9151 29.566 32.1876 29.3421 32.3793 29.0549C32.5709 28.7678 32.6731 28.4302 32.6728 28.085C32.6728 27.1225 31.8903 26.3412 30.9291 26.3412ZM20.0266 18.8213C19.2664 18.8203 18.5376 18.5178 18.0001 17.9803C17.4625 17.4427 17.1601 16.714 17.1591 15.9537C17.1598 15.1933 17.462 14.4642 17.9996 13.9264C18.5372 13.3886 19.2662 13.086 20.0266 13.085C20.7872 13.0857 21.5165 13.3881 22.0544 13.926C22.5922 14.4638 22.8947 15.1931 22.8953 15.9537C22.8943 16.7142 22.5917 17.4431 22.0539 17.9807C21.5161 18.5183 20.787 18.8206 20.0266 18.8213ZM20.0266 14.2112C19.6814 14.211 19.3438 14.3132 19.0567 14.5048C18.7695 14.6965 18.5456 14.969 18.4134 15.2879C18.2812 15.6068 18.2465 15.9578 18.3138 16.2964C18.3811 16.635 18.5473 16.946 18.7914 17.1902C19.0356 17.4343 19.3466 17.6005 19.6852 17.6678C20.0238 17.7351 20.3748 17.7004 20.6937 17.5682C21.0126 17.436 21.2851 17.2121 21.4768 16.9249C21.6684 16.6378 21.7706 16.3002 21.7703 15.955C21.7703 14.9925 20.9891 14.2112 20.0266 14.2112ZM20.0278 10.7363C19.2672 10.7356 18.5379 10.4331 18.0001 9.89528C17.4622 9.35743 17.1598 8.62814 17.1591 7.8675C17.1601 7.10708 17.4627 6.37811 18.0005 5.84053C18.5383 5.30294 19.2674 5.00066 20.0278 5C20.788 5.00099 21.5168 5.30342 22.0544 5.84097C22.5919 6.37851 22.8943 7.1073 22.8953 7.8675C22.8947 8.62792 22.5924 9.35702 22.0548 9.89484C21.5172 10.4327 20.7883 10.7353 20.0278 10.7363ZM20.0278 6.12625C19.6826 6.126 19.3451 6.22817 19.0579 6.41981C18.7707 6.61146 18.5469 6.88398 18.4147 7.20289C18.2824 7.5218 18.2478 7.87276 18.3151 8.21138C18.3824 8.54999 18.5486 8.86103 18.7927 9.10515C19.0368 9.34927 19.3479 9.51549 19.6865 9.58278C20.0251 9.65007 20.376 9.61541 20.695 9.48318C21.0139 9.35095 21.2864 9.1271 21.478 8.83994C21.6697 8.55278 21.7718 8.21523 21.7716 7.87C21.7716 6.9075 20.9891 6.12625 20.0278 6.12625ZM20.0278 26.9112C19.2672 26.9106 18.5379 26.6081 18.0001 26.0703C17.4622 25.5324 17.1598 24.8031 17.1591 24.0425C17.1601 23.2821 17.4627 22.5531 18.0005 22.0155C18.5383 21.4779 19.2674 21.1757 20.0278 21.175C20.788 21.176 21.5168 21.4784 22.0544 22.016C22.5919 22.5535 22.8943 23.2823 22.8953 24.0425C22.8947 24.8029 22.5924 25.532 22.0548 26.0698C21.5172 26.6077 20.7883 26.9103 20.0278 26.9112ZM20.0278 22.3012C19.6826 22.301 19.3451 22.4032 19.0579 22.5948C18.7707 22.7865 18.5469 23.059 18.4147 23.3779C18.2824 23.6968 18.2478 24.0478 18.3151 24.3864C18.3824 24.725 18.5486 25.036 18.7927 25.2802C19.0368 25.5243 19.3479 25.6905 19.6865 25.7578C20.0251 25.8251 20.376 25.7904 20.695 25.6582C21.0139 25.526 21.2864 25.3021 21.478 25.0149C21.6697 24.7278 21.7718 24.3902 21.7716 24.045C21.7716 23.0825 20.9891 22.3012 20.0278 22.3012ZM20.0266 35C19.2662 34.999 18.5372 34.6964 17.9996 34.1586C17.462 33.6208 17.1598 32.8917 17.1591 32.1312C17.1601 31.371 17.4625 30.6423 18.0001 30.1047C18.5376 29.5672 19.2664 29.2647 20.0266 29.2637C20.787 29.2644 21.5161 29.5667 22.0539 30.1043C22.5917 30.6419 22.8943 31.3708 22.8953 32.1312C22.8947 32.8919 22.5922 33.6212 22.0544 34.159C21.5165 34.6969 20.7872 34.9993 20.0266 35ZM20.0266 30.39C19.6814 30.3898 19.3438 30.4919 19.0567 30.6836C18.7695 30.8752 18.5456 31.1477 18.4134 31.4666C18.2812 31.7855 18.2465 32.1365 18.3138 32.4751C18.3811 32.8137 18.5473 33.1248 18.7914 33.3689C19.0356 33.613 19.3466 33.7792 19.6852 33.8465C20.0238 33.9138 20.3748 33.8792 20.6937 33.7469C21.0126 33.6147 21.2851 33.3908 21.4768 33.1037C21.6684 32.8165 21.7706 32.479 21.7703 32.1338C21.7703 31.1713 20.9891 30.39 20.0266 30.39Z" fill="currentColor"/>
<path d="M15.4605 15.2774C15.3419 15.2777 15.2244 15.2552 15.1142 15.2112L13.2467 14.4662C13.1288 14.4231 13.0208 14.3568 12.929 14.2712C12.8372 14.1856 12.7635 14.0825 12.7123 13.9679C12.6612 13.8533 12.6335 13.7295 12.631 13.604C12.6286 13.4785 12.6513 13.3538 12.698 13.2373C12.7446 13.1208 12.8141 13.0148 12.9025 12.9256C12.9909 12.8365 13.0962 12.766 13.2123 12.7183C13.3284 12.6707 13.453 12.6468 13.5785 12.6481C13.704 12.6495 13.8279 12.676 13.943 12.7262L15.8092 13.4699C16.0112 13.551 16.1786 13.6998 16.2829 13.8909C16.3871 14.0819 16.4217 14.3032 16.3806 14.5169C16.3395 14.7307 16.2254 14.9234 16.0577 15.0622C15.8901 15.2009 15.6794 15.277 15.4617 15.2774H15.4605ZM15.4605 23.2074C15.3419 23.2077 15.2244 23.1852 15.1142 23.1412L13.2467 22.3974C13.0158 22.3051 12.8311 22.1248 12.7331 21.8963C12.6351 21.6677 12.6319 21.4096 12.7242 21.1787C12.8166 20.9478 12.9968 20.763 13.2254 20.665C13.454 20.567 13.7121 20.5639 13.943 20.6562L15.8092 21.4012C16.0104 21.4828 16.177 21.6316 16.2806 21.8224C16.3843 22.0131 16.4185 22.2339 16.3775 22.4471C16.3365 22.6602 16.2228 22.8526 16.0558 22.9912C15.8888 23.1299 15.6788 23.2063 15.4617 23.2074H15.4605ZM26.4117 19.2462C26.2931 19.2461 26.1755 19.2232 26.0655 19.1787L24.1992 18.4349C24.0797 18.3933 23.9699 18.3278 23.8764 18.2425C23.7828 18.1573 23.7075 18.0539 23.655 17.9388C23.6025 17.8236 23.5738 17.699 23.5708 17.5725C23.5677 17.446 23.5903 17.3201 23.6372 17.2025C23.684 17.085 23.7542 16.9781 23.8435 16.8884C23.9328 16.7987 24.0393 16.728 24.1567 16.6806C24.274 16.6331 24.3998 16.61 24.5263 16.6124C24.6529 16.6149 24.7776 16.643 24.893 16.6949L26.7592 17.4387C26.9612 17.5198 27.1287 17.6686 27.2329 17.8596C27.3371 18.0506 27.3717 18.272 27.3306 18.4857C27.2895 18.6994 27.1754 18.8922 27.0077 19.0309C26.8401 19.1697 26.6294 19.2458 26.4117 19.2462ZM26.4117 11.3124C26.2931 11.3122 26.1755 11.2893 26.0655 11.2449L24.1992 10.4999C23.979 10.4008 23.8056 10.2204 23.7151 9.99646C23.6245 9.77253 23.6239 9.5223 23.7134 9.29794C23.8029 9.07358 23.9755 8.8924 24.1952 8.79217C24.415 8.69194 24.6649 8.6804 24.893 8.75995L26.7592 9.50495C26.9604 9.58654 27.127 9.7354 27.2306 9.92614C27.3343 10.1169 27.3685 10.3377 27.3275 10.5508C27.2865 10.764 27.1728 10.9563 27.0058 11.095C26.8388 11.2337 26.6288 11.3101 26.4117 11.3112V11.3124ZM26.4117 27.1737C26.2932 27.1739 26.1756 27.1514 26.0655 27.1074L24.198 26.3624C24.0792 26.3201 23.9702 26.2543 23.8775 26.1688C23.7847 26.0834 23.7102 25.9802 23.6583 25.8652C23.6064 25.7503 23.5782 25.6261 23.5754 25.5001C23.5726 25.374 23.5953 25.2487 23.642 25.1316C23.6888 25.0145 23.7587 24.908 23.8476 24.8186C23.9365 24.7291 24.0425 24.6585 24.1592 24.611C24.276 24.5635 24.4012 24.54 24.5273 24.5419C24.6534 24.5439 24.7777 24.5713 24.893 24.6224L26.7592 25.3674C26.9604 25.449 27.127 25.5979 27.2306 25.7886C27.3343 25.9794 27.3685 26.2002 27.3275 26.4133C27.2865 26.6265 27.1728 26.8188 27.0058 26.9575C26.8388 27.0962 26.6288 27.1726 26.4117 27.1737ZM13.6442 27.4574C13.4271 27.4566 13.2169 27.3804 13.0497 27.2418C12.8825 27.1033 12.7685 26.9109 12.7274 26.6977C12.6862 26.4844 12.7203 26.2635 12.824 26.0727C12.9276 25.8818 13.0942 25.7328 13.2955 25.6512L15.163 24.9074C15.3937 24.8153 15.6516 24.8186 15.88 24.9165C16.1083 25.0145 16.2883 25.1992 16.3805 25.4299C16.4727 25.6607 16.4694 25.9186 16.3714 26.1469C16.2734 26.3752 16.0887 26.5553 15.858 26.6474L13.9917 27.3912C13.8816 27.4352 13.7628 27.4577 13.6442 27.4574ZM13.6442 19.5749C13.4265 19.5748 13.2156 19.4989 13.0478 19.3603C12.8799 19.2216 12.7655 19.0288 12.7243 18.8151C12.683 18.6013 12.7175 18.3798 12.8217 18.1886C12.9259 17.9975 13.0934 17.8486 13.2955 17.7674L15.163 17.0237C15.3914 16.9423 15.6425 16.9526 15.8636 17.0524C16.0846 17.1523 16.2583 17.3338 16.3483 17.5591C16.4382 17.7843 16.4374 18.0356 16.346 18.2602C16.2546 18.4849 16.0797 18.6653 15.858 18.7637L13.9917 19.5074C13.8816 19.5514 13.7641 19.5739 13.6455 19.5737L13.6442 19.5749ZM13.6442 11.2912C13.4265 11.2911 13.2156 11.2152 13.0478 11.0765C12.8799 10.9379 12.7655 10.7451 12.7243 10.5313C12.683 10.3175 12.7175 10.096 12.8217 9.90489C12.9259 9.71374 13.0934 9.56482 13.2955 9.4837L15.163 8.73995C15.3914 8.65855 15.6425 8.66884 15.8636 8.76867C16.0846 8.8685 16.2583 9.0501 16.3483 9.27531C16.4382 9.50053 16.4374 9.75185 16.346 9.97648C16.2546 10.2011 16.0797 10.3816 15.858 10.4799L13.9917 11.2249C13.8816 11.2689 13.7628 11.2914 13.6442 11.2912ZM15.4605 31.7049C15.3419 31.7052 15.2244 31.6827 15.1142 31.6387L13.2467 30.8937C13.0265 30.7945 12.8531 30.6141 12.7626 30.3902C12.672 30.1663 12.6714 29.916 12.7609 29.6917C12.8504 29.4673 13.023 29.2861 13.2427 29.1859C13.4625 29.0857 13.7124 29.0741 13.9405 29.1537L15.808 29.8974C16.0099 29.9785 16.1774 30.1273 16.2816 30.3184C16.3859 30.5094 16.4204 30.7307 16.3793 30.9444C16.3383 31.1582 16.2241 31.3509 16.0565 31.4897C15.8888 31.6284 15.6781 31.7045 15.4605 31.7049ZM24.5442 15.2787C24.3261 15.279 24.1146 15.2032 23.9463 15.0644C23.778 14.9255 23.6634 14.7323 23.6222 14.5181C23.5811 14.3038 23.6159 14.0819 23.7208 13.8906C23.8257 13.6993 23.994 13.5505 24.1967 13.4699L26.0642 12.7262C26.2943 12.638 26.5499 12.6439 26.7757 12.7427C27.0015 12.8414 27.1793 13.0251 27.2706 13.254C27.362 13.4829 27.3595 13.7385 27.2638 13.9656C27.1681 14.1927 26.9869 14.373 26.7592 14.4674L24.8917 15.2112C24.7821 15.2554 24.665 15.2783 24.5467 15.2787H24.5442ZM24.5442 23.2087C24.3266 23.2083 24.1159 23.1322 23.9483 22.9934C23.7806 22.8547 23.6665 22.6619 23.6254 22.4482C23.5843 22.2345 23.6188 22.0131 23.7231 21.8221C23.8273 21.6311 23.9948 21.4823 24.1967 21.4012L26.0642 20.6562C26.2953 20.564 26.5535 20.5674 26.7821 20.6657C27.0107 20.7639 27.1908 20.9489 27.283 21.1799C27.3752 21.411 27.3718 21.6692 27.2735 21.8978C27.1753 22.1264 26.9903 22.3065 26.7592 22.3987L24.8917 23.1424C24.782 23.1863 24.6649 23.2088 24.5467 23.2087H24.5442ZM24.5442 31.7037C24.3264 31.7041 24.1152 31.6284 23.9471 31.4898C23.7789 31.3512 23.6644 31.1583 23.6233 30.9443C23.5821 30.7304 23.6169 30.5087 23.7215 30.3176C23.8262 30.1266 23.9943 29.978 24.1967 29.8974L26.0642 29.1537C26.1796 29.1017 26.3044 29.0736 26.4309 29.0712C26.5575 29.0687 26.6832 29.0919 26.8006 29.1393C26.9179 29.1867 27.0244 29.2574 27.1137 29.3472C27.203 29.4369 27.2732 29.5437 27.3201 29.6613C27.3669 29.7789 27.3895 29.9047 27.3865 30.0312C27.3834 30.1578 27.3547 30.2824 27.3022 30.3975C27.2497 30.5127 27.1744 30.616 27.0809 30.7013C26.9873 30.7866 26.8775 30.852 26.758 30.8937L24.8905 31.6374C24.7804 31.6815 24.6628 31.704 24.5442 31.7037Z" fill="currentColor"/>
</svg>
