<svg width="24" height="24" viewBox="0 0 40 40" xmlns="http://www.w3.org/2000/svg">
<path d="M29.3872 18.991C29.2833 18.991 29.1807 18.9947 29.0783 18.9981C29.0617 18.9989 29.0454 19.0029 29.0301 19.0094C29.003 19.0188 28.9786 19.0346 28.9591 19.0556C28.9398 19.0766 28.9258 19.1021 28.9187 19.1298L28.4794 20.6643C28.2898 21.3241 28.3603 21.9334 28.6787 22.3807C28.9705 22.7943 29.4561 23.0371 30.0457 23.0655L32.4287 23.2101C32.4995 23.2137 32.5609 23.2478 32.5982 23.304C32.6177 23.3341 32.6301 23.3682 32.6343 23.4037C32.6386 23.4393 32.6344 23.4752 32.6225 23.5089C32.6033 23.5638 32.5687 23.612 32.5229 23.6477C32.477 23.6833 32.4219 23.7051 32.364 23.7102L29.8879 23.8546C28.5426 23.917 27.0953 25.0147 26.5875 26.3532L26.409 26.8254C26.4014 26.845 26.3985 26.8662 26.4005 26.8871C26.4027 26.908 26.4097 26.9281 26.4213 26.9458C26.4326 26.9635 26.4481 26.9781 26.4664 26.9885C26.4847 26.999 26.5052 27.005 26.5261 27.0059H35.0541C35.1038 27.0061 35.152 26.9901 35.1916 26.9602C35.2312 26.9304 35.2599 26.8884 35.2733 26.8406C35.4248 26.2962 35.5011 25.7338 35.5 25.1686C35.5 21.7586 32.7655 18.9948 29.391 18.9948" fill="currentColor"/>
<path d="M25.665 26.8075L25.8228 26.2525C26.0127 25.5927 25.9423 24.9835 25.6243 24.5363C25.3315 24.1225 24.8464 23.8797 24.2564 23.8514L13.078 23.7069C13.0433 23.7063 13.0091 23.6974 12.9784 23.6811C12.9477 23.6648 12.9213 23.6414 12.9014 23.6129C12.8817 23.583 12.8693 23.5489 12.865 23.5133C12.8608 23.4778 12.8648 23.4417 12.8768 23.4079C12.8961 23.3527 12.9311 23.3044 12.9774 23.2687C13.0237 23.2329 13.0793 23.2114 13.1376 23.2067L24.4203 23.0622C25.7599 23.0003 27.2072 21.9021 27.715 20.5637L28.3584 18.8635C28.3843 18.7913 28.3911 18.7136 28.3772 18.6383C27.6441 15.3215 24.7117 12.8379 21.2061 12.8379C17.974 12.8379 15.232 14.9453 14.248 17.8749C13.5856 17.3713 12.756 17.1391 11.9284 17.226C10.379 17.3818 9.13183 18.6438 8.97792 20.2101C8.93811 20.6012 8.96688 20.9963 9.06293 21.3777C6.5311 21.4531 4.5 23.5491 4.5 26.125C4.5 26.3579 4.51659 26.5873 4.55001 26.8113C4.56394 26.9199 4.65645 27.0014 4.76592 27.0011H25.41C25.4681 27.0002 25.5243 26.9804 25.5703 26.9448C25.6163 26.9092 25.6495 26.8598 25.665 26.8037" fill="currentColor"/>
</svg>
