<svg width="24" height="24" viewBox="0 0 40 40" xmlns="http://www.w3.org/2000/svg">
<path d="M14.4919 6.64437C5.73931 10.1697 2.82177 22.9339 9.26465 29.3768L12.6684 32.659L16.4369 29.1337C18.5035 27.0671 20.6916 24.2711 21.2995 22.6908C22.0288 20.8673 23.2445 20.0164 24.4601 20.2595C27.3777 20.8673 27.9855 24.7574 25.1895 25.7299C21.9073 26.824 17.531 31.0787 17.531 33.1453C17.531 36.1844 26.0405 33.9962 30.2952 29.7415C33.3343 26.5808 33.9421 25.1221 33.9421 20.0164C33.9421 15.1538 33.3343 13.3304 30.7814 10.8991L27.6208 7.73845L23.7307 11.0207C21.5426 12.8441 19.2329 15.6401 18.6251 17.2204C17.8957 19.1654 16.8016 20.0164 15.4644 19.7733C12.5469 19.1654 11.9391 15.2754 14.735 14.4245C17.8957 13.2088 23.6092 7.73845 22.8798 6.40125C22.1504 5.18561 17.7741 5.30717 14.4919 6.64437Z" fill="currentColor"/>
</svg>
