<?xml version="1.0" encoding="UTF-8" standalone="no"?>
<!DOCTYPE svg PUBLIC "-//W3C//DTD SVG 1.1//EN" "http://www.w3.org/Graphics/SVG/1.1/DTD/svg11.dtd">
<svg width="100%" height="100%" viewBox="0 0 179 179" version="1.1" xmlns="http://www.w3.org/2000/svg" xmlns:xlink="http://www.w3.org/1999/xlink" xml:space="preserve" xmlns:serif="http://www.serif.com/" style="fill-rule:evenodd;clip-rule:evenodd;stroke-linejoin:round;stroke-miterlimit:2;">
    <g transform="matrix(1.06548,0,0,1.1118,-3.19643,-2.2236)">
        <path d="M171,9.809C171,5.499 167.349,2 162.851,2L11.149,2C6.651,2 3,5.499 3,9.809L3,155.191C3,159.501 6.651,163 11.149,163L162.851,163C167.349,163 171,159.501 171,155.191L171,9.809Z" style="fill:rgb(0,51,129);"/>
    </g>
    <g transform="matrix(1,0,0,1,-362.752,-793.676)">
        <g transform="matrix(0.89017,0,0,0.89017,382.187,915.595)">
            <g transform="matrix(138.209,0,0,138.209,0,0)">
                <path d="M0.32,0.012C0.408,0.012 0.465,-0.018 0.512,-0.063C0.523,-0.072 0.529,-0.085 0.529,-0.101C0.529,-0.13 0.506,-0.154 0.477,-0.154C0.463,-0.154 0.451,-0.147 0.444,-0.141C0.411,-0.113 0.374,-0.094 0.326,-0.094C0.233,-0.094 0.168,-0.169 0.168,-0.263L0.168,-0.265C0.168,-0.357 0.233,-0.433 0.321,-0.433C0.369,-0.433 0.403,-0.414 0.434,-0.388C0.442,-0.382 0.455,-0.376 0.47,-0.376C0.501,-0.376 0.526,-0.4 0.526,-0.431C0.526,-0.451 0.515,-0.466 0.507,-0.473C0.462,-0.512 0.405,-0.539 0.322,-0.539C0.163,-0.539 0.047,-0.413 0.047,-0.263L0.047,-0.261C0.047,-0.111 0.163,0.012 0.32,0.012Z" style="fill:white;fill-rule:nonzero;"/>
            </g>
        </g>
        <g transform="matrix(0.89017,0,0,0.89017,441.487,915.595)">
            <g transform="matrix(138.209,0,0,138.209,0,0)">
                <path d="M0.327,0.012C0.49,0.012 0.61,-0.113 0.61,-0.263L0.61,-0.265C0.61,-0.416 0.491,-0.539 0.329,-0.539C0.167,-0.539 0.047,-0.414 0.047,-0.263L0.047,-0.261C0.047,-0.111 0.166,0.012 0.327,0.012ZM0.329,-0.094C0.235,-0.094 0.168,-0.171 0.168,-0.263L0.168,-0.265C0.168,-0.357 0.23,-0.433 0.327,-0.433C0.422,-0.433 0.489,-0.356 0.489,-0.263L0.489,-0.261C0.489,-0.17 0.427,-0.094 0.329,-0.094Z" style="fill:white;fill-rule:nonzero;"/>
            </g>
        </g>
    </g>
</svg>
