<svg width="24" height="24" viewBox="0 0 40 40" xmlns="http://www.w3.org/2000/svg">
<path d="M5.5 11.7804L19.7924 5.52743C19.9248 5.46956 20.0752 5.46956 20.2076 5.52743L34.5 11.7804M5.5 11.7804V24.8563V11.7804ZM5.5 11.7804L16.7449 16.7L5.5 11.7804ZM34.5 11.7804L30.6161 13.4796L34.5 11.7804ZM34.5 11.7804V15.1465V11.7804ZM20 34.5661V29.7759V34.5661ZM20 34.5661L23.2366 33.2079L20 34.5661ZM20 34.5661L6.79465 29.0246L20 34.5661ZM20 18.1241L30.6161 13.4796L20 18.1241ZM20 18.1241L16.7449 16.7L20 18.1241ZM20 18.1241V19.5482V18.1241ZM20 29.7759L30.6161 13.4796L20 29.7759ZM20 29.7759V19.5482V29.7759ZM23.2366 33.2079L34.1825 28.6145C34.3749 28.5338 34.5 28.3456 34.5 28.137V15.1465M23.2366 33.2079L34.5 15.1465L23.2366 33.2079ZM5.5 24.8563V28.137C5.5 28.3456 5.62511 28.5338 5.81746 28.6145L6.79465 29.0246M5.5 24.8563L16.7449 16.7L5.5 24.8563ZM6.79465 29.0246L20 19.5482L6.79465 29.0246Z" fill="currentColor"/>
<path d="M5.5 11.7804L19.7924 5.52743C19.9248 5.46956 20.0752 5.46956 20.2076 5.52743L34.5 11.7804M5.5 11.7804V24.8563M5.5 11.7804L16.7449 16.7M34.5 11.7804L30.6161 13.4796M34.5 11.7804V15.1465M5.5 24.8563V28.137C5.5 28.3456 5.62511 28.5338 5.81746 28.6145L6.79465 29.0246M5.5 24.8563L16.7449 16.7M16.7449 16.7L20 18.1241M30.6161 13.4796L20 18.1241M30.6161 13.4796L20 29.7759M34.5 15.1465V28.137C34.5 28.3456 34.3749 28.5338 34.1825 28.6145L23.2366 33.2079M34.5 15.1465L23.2366 33.2079M20 34.5661V29.7759M20 34.5661L23.2366 33.2079M20 34.5661L6.79465 29.0246M20 29.7759V19.5482M6.79465 29.0246L20 19.5482M20 18.1241V19.5482" stroke="black" stroke-width="1.03572" stroke-linecap="round" stroke-linejoin="round"/>
</svg>
