<?xml version="1.0" encoding="UTF-8"?>
<svg version="1.1" xmlns="http://www.w3.org/2000/svg" width="205" height="200">
<path d="M0 0 C67.65 0 135.3 0 205 0 C205 66 205 132 205 200 C137.35 200 69.7 200 0 200 C0 134 0 68 0 0 Z " fill="#FEFEFE" transform="translate(0,0)"/>
<path d="M0 0 C1.63198853 1.13793945 1.63198853 1.13793945 3 3 C3.38095093 5.77026367 3.38095093 5.77026367 3.38818359 9.16796875 C3.39764008 10.43938721 3.40709656 11.71080566 3.4168396 13.02075195 C3.41146991 14.40967113 3.40531696 15.79858748 3.3984375 17.1875 C3.40045839 18.61092274 3.40336995 20.03434447 3.40713501 21.45776367 C3.41155771 24.44036724 3.40512935 27.42270121 3.39111328 30.40527344 C3.37402103 34.22885091 3.38386255 38.05179666 3.40183067 41.87535095 C3.41267019 44.81446087 3.40922149 47.75342097 3.4014473 50.6925354 C3.39944573 52.10234654 3.40190306 53.51217128 3.40888596 54.92196655 C3.41650223 56.89198548 3.40283579 58.86205209 3.38818359 60.83203125 C3.38579681 61.95327393 3.38341003 63.0745166 3.38095093 64.22973633 C3 67 3 67 1.63198853 68.86206055 C-0.70915808 70.49447588 -2.21200318 70.41819952 -5 70 C-6.63198853 68.86206055 -6.63198853 68.86206055 -8 67 C-8.38095093 64.22973633 -8.38095093 64.22973633 -8.38818359 60.83203125 C-8.39764008 59.56061279 -8.40709656 58.28919434 -8.4168396 56.97924805 C-8.41146991 55.59032887 -8.40531696 54.20141252 -8.3984375 52.8125 C-8.40045839 51.38907726 -8.40336995 49.96565553 -8.40713501 48.54223633 C-8.41155771 45.55963276 -8.40512935 42.57729879 -8.39111328 39.59472656 C-8.37402103 35.77114909 -8.38386255 31.94820334 -8.40183067 28.12464905 C-8.41267019 25.18553913 -8.40922149 22.24657903 -8.4014473 19.3074646 C-8.39944573 17.89765346 -8.40190306 16.48782872 -8.40888596 15.07803345 C-8.41650223 13.10801452 -8.40283579 11.13794791 -8.38818359 9.16796875 C-8.38579681 8.04672607 -8.38341003 6.9254834 -8.38095093 5.77026367 C-8 3 -8 3 -6.63198853 1.13793945 C-4.29084192 -0.49447588 -2.78799682 -0.41819952 0 0 Z " fill="#0B0F1D" transform="translate(122,30)"/>
<path d="M0 0 C1.670625 0.4021875 1.670625 0.4021875 3.375 0.8125 C4.73935476 3.54120953 4.51726986 5.72055837 4.53613281 8.77514648 C4.54574036 10.02661972 4.5553479 11.27809296 4.56524658 12.56748962 C4.57009383 13.93952249 4.57437284 15.31155746 4.578125 16.68359375 C4.58387606 18.08602399 4.5896338 19.48845421 4.59539795 20.8908844 C4.60590672 23.83228929 4.61175039 26.77366686 4.61523438 29.71508789 C4.62072325 33.48594649 4.64475972 37.25644474 4.67320633 41.02719021 C4.69181925 43.92423055 4.69703754 46.82118379 4.69857025 49.71827888 C4.70159967 51.10857173 4.70963798 52.49886295 4.72275543 53.88909721 C4.73978811 55.832812 4.7360949 57.77667513 4.73144531 59.72045898 C4.73509094 60.82695297 4.73873657 61.93344696 4.74249268 63.07347107 C4.375 65.8125 4.375 65.8125 3.07928467 67.70497131 C1.375 68.8125 1.375 68.8125 -2.25 68.625 C-3.36375 68.356875 -4.4775 68.08875 -5.625 67.8125 C-6.98935476 65.08379047 -6.76726986 62.90444163 -6.78613281 59.84985352 C-6.80054413 57.97264366 -6.80054413 57.97264366 -6.81524658 56.05751038 C-6.82009383 54.68547751 -6.82437284 53.31344254 -6.828125 51.94140625 C-6.83387606 50.53897601 -6.8396338 49.13654579 -6.84539795 47.7341156 C-6.85590672 44.79271071 -6.86175039 41.85133314 -6.86523438 38.90991211 C-6.87072325 35.13905351 -6.89475972 31.36855526 -6.92320633 27.59780979 C-6.94181925 24.70076945 -6.94703754 21.80381621 -6.94857025 18.90672112 C-6.95159967 17.51642827 -6.95963798 16.12613705 -6.97275543 14.73590279 C-6.98978811 12.792188 -6.9860949 10.84832487 -6.98144531 8.90454102 C-6.98509094 7.79804703 -6.98873657 6.69155304 -6.99249268 5.55152893 C-6.625 2.8125 -6.625 2.8125 -5.32928467 0.92002869 C-3.625 -0.1875 -3.625 -0.1875 0 0 Z " fill="#0B0F1C" transform="translate(85.625,103.1875)"/>
<path d="M0 0 C1.63134766 1.01953125 1.63134766 1.01953125 3 3 C3.29825343 5.76419033 3.42044886 8.29848594 3.3984375 11.0625 C3.40274277 12.24404663 3.40274277 12.24404663 3.40713501 13.44946289 C3.40917522 15.11377685 3.40364832 16.77811481 3.39111328 18.44238281 C3.37505809 20.99077947 3.39096244 23.53759021 3.41015625 26.0859375 C3.40817381 27.7031285 3.40433011 29.32031852 3.3984375 30.9375 C3.40754654 32.08134155 3.40754654 32.08134155 3.4168396 33.24829102 C3.34749977 38.46051935 3.34749977 38.46051935 1.70166016 41.015625 C-1.24461582 42.71998436 -3.83410781 41.76215923 -7 41 C-8.57175605 37.8564879 -8.18401351 34.48756483 -8.203125 31.03515625 C-8.20882507 30.24604355 -8.21452515 29.45693085 -8.22039795 28.64390564 C-8.22984925 26.97363629 -8.23638245 25.30334829 -8.24023438 23.63305664 C-8.24994869 21.07600488 -8.28097332 18.51975395 -8.3125 15.96289062 C-8.31902922 14.34115061 -8.32428001 12.71940485 -8.328125 11.09765625 C-8.3404718 10.33195816 -8.3528186 9.56626007 -8.36553955 8.77735901 C-8.34335546 3.498996 -8.34335546 3.498996 -6.63574219 1.01733398 C-4.27256529 -0.45242096 -2.72616528 -0.40892479 0 0 Z " fill="#0C101E" transform="translate(52,50)"/>
<path d="M0 0 C1.63134766 1.11523438 1.63134766 1.11523438 3 3 C3.38818359 5.95507813 3.38818359 5.95507813 3.3984375 9.53125 C3.40230469 10.81644531 3.40617188 12.10164062 3.41015625 13.42578125 C3.40387207 14.09432129 3.39758789 14.76286133 3.39111328 15.45166016 C3.37505354 17.4931933 3.39096671 19.53274708 3.41015625 21.57421875 C3.40628906 22.85941406 3.40242187 24.14460938 3.3984375 25.46875 C3.39505371 26.64888672 3.39166992 27.82902344 3.38818359 29.04492188 C3 32 3 32 1.63134766 33.88476562 C-0.71311317 35.48750389 -2.22455264 35.4163171 -5 35 C-6.63134766 33.88476562 -6.63134766 33.88476562 -8 32 C-8.38818359 29.04492188 -8.38818359 29.04492188 -8.3984375 25.46875 C-8.40230469 24.18355469 -8.40617188 22.89835937 -8.41015625 21.57421875 C-8.40387207 20.90567871 -8.39758789 20.23713867 -8.39111328 19.54833984 C-8.37505354 17.5068067 -8.39096671 15.46725292 -8.41015625 13.42578125 C-8.40628906 12.14058594 -8.40242187 10.85539063 -8.3984375 9.53125 C-8.39505371 8.35111328 -8.39166992 7.17097656 -8.38818359 5.95507812 C-8 3 -8 3 -6.63134766 1.11523438 C-4.28688683 -0.48750389 -2.77544736 -0.4163171 0 0 Z " fill="#0C101E" transform="translate(157,120)"/>
<path d="M0 0 C3.95403662 0.26360244 5.65370756 0.86143155 8.75 3.25 C11.23386059 6.97579089 11.1304212 8.83711402 10.75 13.25 C9.39753111 16.45321578 8.46441282 17.84452246 5.4375 19.5625 C2.26245307 20.37472131 0.01194647 20.72570053 -3.25 20.25 C-7.09128305 17.00624987 -9.05779972 14.94776915 -9.625 9.9375 C-9.15786625 5.34401813 -7.72959782 4.13552015 -4.25 1.25 C-3.25 0.25 -3.25 0.25 0 0 Z " fill="#2BE5E0" transform="translate(118.25,109.75)"/>
<path d="M0 0 C3.95403662 0.26360244 5.65370756 0.86143155 8.75 3.25 C11.26186574 7.0177986 10.90628459 8.76538862 10.2734375 13.08984375 C9.75 15.25 9.75 15.25 8.25 17.75 C4.53191124 19.98085325 1.07217536 20.67374268 -3.25 20.25 C-6.46417529 18.24114044 -7.78341429 16.70218248 -8.9453125 13.0859375 C-9.39174452 10.65897072 -9.56942324 8.69891149 -9.25 6.25 C-6.875 3.25 -6.875 3.25 -4.25 1.25 C-3.25 0.25 -3.25 0.25 0 0 Z " fill="#2B8FFF" transform="translate(49.25,99.75)"/>
<path d="M0 0 C3.95403662 0.26360244 5.65370756 0.86143155 8.75 3.25 C11.26186574 7.0177986 10.90628459 8.76538862 10.2734375 13.08984375 C9.75 15.25 9.75 15.25 8.25 17.75 C4.53191124 19.98085325 1.07217536 20.67374268 -3.25 20.25 C-6.46417529 18.24114044 -7.78341429 16.70218248 -8.9453125 13.0859375 C-9.39174452 10.65897072 -9.56942324 8.69891149 -9.25 6.25 C-6.875 3.25 -6.875 3.25 -4.25 1.25 C-3.25 0.25 -3.25 0.25 0 0 Z " fill="#B63EFF" transform="translate(154.25,89.75)"/>
<path d="M0 0 C2.66058731 2.14144833 3.7253011 3.56867416 4.37109375 6.93359375 C4.59425621 10.51095567 4.15244562 12.68848069 2.5625 15.9375 C-1.05901976 18.85238176 -4.39406378 19.44335215 -9 19 C-11.92143417 17.23496686 -13.47923817 16.04152365 -15 13 C-15.5811138 5.91041162 -15.5811138 5.91041162 -13.125 2.0625 C-9.05289345 -1.88983871 -5.28514995 -1.34240931 0 0 Z " fill="#D835A5" transform="translate(90,71)"/>
<path d="M0 0 C1.63134766 1.18359375 1.63134766 1.18359375 3 3 C3.38818359 5.49609375 3.38818359 5.49609375 3.3984375 8.4375 C3.40230469 9.49710938 3.40617188 10.55671875 3.41015625 11.6484375 C3.39855469 12.75445312 3.38695312 13.86046875 3.375 15 C3.38660156 16.10601562 3.39820313 17.21203125 3.41015625 18.3515625 C3.40628906 19.41117188 3.40242187 20.47078125 3.3984375 21.5625 C3.39505371 22.53316406 3.39166992 23.50382812 3.38818359 24.50390625 C3 27 3 27 1.63134766 28.81640625 C-0.70159616 30.50902996 -2.18714748 30.42192788 -5 30 C-6.63134766 28.81640625 -6.63134766 28.81640625 -8 27 C-8.38818359 24.50390625 -8.38818359 24.50390625 -8.3984375 21.5625 C-8.40230469 20.50289062 -8.40617188 19.44328125 -8.41015625 18.3515625 C-8.39855469 17.24554688 -8.38695312 16.13953125 -8.375 15 C-8.38660156 13.89398438 -8.39820313 12.78796875 -8.41015625 11.6484375 C-8.40628906 10.58882812 -8.40242187 9.52921875 -8.3984375 8.4375 C-8.39505371 7.46683594 -8.39166992 6.49617188 -8.38818359 5.49609375 C-8 3 -8 3 -6.63134766 1.18359375 C-4.29840384 -0.50902996 -2.81285252 -0.42192788 0 0 Z " fill="#3F4B55" transform="translate(157,50)"/>
<path d="M0 0 C1.670625 0.4021875 1.670625 0.4021875 3.375 0.8125 C5.37278712 4.80807425 4.60376505 9.85701995 4.625 14.25 C4.645625 15.31283203 4.66625 16.37566406 4.6875 17.47070312 C4.69265625 18.48970703 4.6978125 19.50871094 4.703125 20.55859375 C4.71714355 21.96129517 4.71714355 21.96129517 4.73144531 23.39233398 C4.375 25.8125 4.375 25.8125 3.08105469 27.65258789 C1.375 28.8125 1.375 28.8125 -2.25 28.625 C-3.36375 28.356875 -4.4775 28.08875 -5.625 27.8125 C-7.62278712 23.81692575 -6.85376505 18.76798005 -6.875 14.375 C-6.895625 13.31216797 -6.91625 12.24933594 -6.9375 11.15429688 C-6.94265625 10.13529297 -6.9478125 9.11628906 -6.953125 8.06640625 C-6.9624707 7.13127197 -6.97181641 6.1961377 -6.98144531 5.23266602 C-6.625 2.8125 -6.625 2.8125 -5.33105469 0.97241211 C-3.625 -0.1875 -3.625 -0.1875 0 0 Z " fill="#3E4953" transform="translate(120.625,143.1875)"/>
<path d="M0 0 C1.670625 0.4021875 1.670625 0.4021875 3.375 0.8125 C5.37278712 4.80807425 4.60376505 9.85701995 4.625 14.25 C4.645625 15.31283203 4.66625 16.37566406 4.6875 17.47070312 C4.69265625 18.48970703 4.6978125 19.50871094 4.703125 20.55859375 C4.71714355 21.96129517 4.71714355 21.96129517 4.73144531 23.39233398 C4.375 25.8125 4.375 25.8125 3.08105469 27.65258789 C1.375 28.8125 1.375 28.8125 -2.25 28.625 C-3.36375 28.356875 -4.4775 28.08875 -5.625 27.8125 C-7.62278712 23.81692575 -6.85376505 18.76798005 -6.875 14.375 C-6.895625 13.31216797 -6.91625 12.24933594 -6.9375 11.15429688 C-6.94265625 10.13529297 -6.9478125 9.11628906 -6.953125 8.06640625 C-6.9624707 7.13127197 -6.97181641 6.1961377 -6.98144531 5.23266602 C-6.625 2.8125 -6.625 2.8125 -5.33105469 0.97241211 C-3.625 -0.1875 -3.625 -0.1875 0 0 Z " fill="#3E4953" transform="translate(85.625,33.1875)"/>
<path d="M0 0 C1.670625 0.4021875 1.670625 0.4021875 3.375 0.8125 C5.07845745 4.21941491 4.60162366 7.99517517 4.625 11.75 C4.645625 12.57435547 4.66625 13.39871094 4.6875 14.24804688 C4.69265625 15.04146484 4.6978125 15.83488281 4.703125 16.65234375 C4.71714355 17.74083618 4.71714355 17.74083618 4.73144531 18.85131836 C4.26618763 21.41119164 3.47201311 22.30275859 1.375 23.8125 C-2.25 23.625 -2.25 23.625 -5.625 22.8125 C-7.32845745 19.40558509 -6.85162366 15.62982483 -6.875 11.875 C-6.895625 11.05064453 -6.91625 10.22628906 -6.9375 9.37695312 C-6.94265625 8.58353516 -6.9478125 7.79011719 -6.953125 6.97265625 C-6.9624707 6.24699463 -6.97181641 5.52133301 -6.98144531 4.77368164 C-6.19169554 0.42843513 -4.16944691 -0.21566105 0 0 Z " fill="#3E4A54" transform="translate(50.625,133.1875)"/>
</svg>
