<svg width="24" height="24" viewBox="0 0 40 40" xmlns="http://www.w3.org/2000/svg">
<path d="M24.0833 9.58331L19.9985 19.4927L15.9094 9.58331H13.2873L17.7673 20.4158C17.9463 20.8564 18.2525 21.2336 18.6469 21.4993C19.0413 21.7649 19.506 21.907 19.9815 21.9073C20.4571 21.9076 20.9219 21.7662 21.3166 21.501C21.7114 21.2359 22.0181 20.8591 22.1977 20.4187L26.7054 9.58331H24.0833ZM25.8275 24.68L33.3 17.0325L32.2806 14.5985L24.1198 22.9679C23.7866 23.3093 23.5615 23.7414 23.4725 24.2101C23.3835 24.6788 23.4347 25.1633 23.6196 25.6031C23.8011 26.04 24.1079 26.4133 24.5014 26.676C24.8949 26.9386 25.3573 27.0788 25.8304 27.0789L25.8333 27.0833L37.5 27.0541L36.4806 24.6202L25.8304 24.68H25.8275ZM6.7 17.0266L7.71938 14.5927L15.8802 22.9621C16.5627 23.6606 16.7596 24.696 16.3804 25.5973C16.1987 26.034 15.8919 26.4072 15.4984 26.6699C15.105 26.9325 14.6426 27.0728 14.1696 27.0731L2.50292 27.0469L2.5 27.0498L3.51938 24.6158L14.1696 24.6771L6.7 17.0266Z" fill="currentColor"/>
</svg>
