<svg width="24" height="24" viewBox="0 0 40 40" xmlns="http://www.w3.org/2000/svg">
<path d="M16.013 5.76833C16.0669 5.80027 16.1213 5.83147 16.1756 5.8627C16.1976 5.87542 16.2197 5.88814 16.2418 5.90086C16.2527 5.90717 16.2637 5.91348 16.275 5.91999C16.3298 5.95158 16.3846 5.98322 16.4395 6.01485C16.4613 6.02747 16.4832 6.0401 16.5051 6.05273C17.3586 6.54515 17.3586 6.54515 18.2122 7.03757C18.223 7.04382 18.2338 7.05007 18.245 7.05651C18.2669 7.06913 18.2887 7.08174 18.3106 7.09436C18.3656 7.12607 18.4205 7.15777 18.4755 7.18944C18.5811 7.25027 18.6865 7.31127 18.7917 7.37279C18.8794 7.42406 18.9674 7.47466 19.0556 7.52494C19.1538 7.5809 19.2516 7.6374 19.3492 7.69447C19.4552 7.75644 19.5615 7.81772 19.6679 7.87899C19.7038 7.8997 19.7397 7.92045 19.7756 7.94121C19.7937 7.95164 19.8117 7.96208 19.8298 7.97252C19.8469 7.98242 19.864 7.99233 19.8811 8.00224C19.8915 8.00823 19.9018 8.01422 19.9125 8.0204C19.9216 8.02567 19.9308 8.03095 19.9402 8.03639C19.9482 8.04094 19.9563 8.0455 19.9647 8.05019C19.9713 8.05467 19.978 8.05915 19.9849 8.06376C20.0059 8.07299 20.0059 8.07299 20.0296 8.06118C20.0387 8.05569 20.0479 8.0502 20.0572 8.04454C20.0676 8.03842 20.078 8.0323 20.0887 8.026C20.0998 8.01919 20.111 8.01238 20.1225 8.00536C20.1343 7.99835 20.1461 7.99135 20.1579 7.98437C20.1824 7.96984 20.2069 7.95524 20.2313 7.94058C20.2868 7.90739 20.3429 7.87531 20.399 7.84312C20.4209 7.8305 20.4428 7.81787 20.4647 7.80524C22.1717 6.8204 22.1717 6.8204 22.2046 6.80146C22.2264 6.78884 22.2483 6.77622 22.2702 6.7636C22.3251 6.73189 22.3801 6.7002 22.4351 6.66853C22.5406 6.6077 22.6461 6.5467 22.7513 6.48517C22.8449 6.43041 22.939 6.37644 23.0332 6.32273C23.1254 6.27019 23.2172 6.21707 23.3088 6.1635C23.4151 6.10133 23.5218 6.03986 23.6285 5.97839C23.6724 5.95309 23.7163 5.92777 23.7602 5.90243C23.782 5.88987 23.8037 5.87732 23.8255 5.86478C23.8817 5.8324 23.9378 5.79986 23.9938 5.76706C24.28 5.59973 24.5679 5.46861 24.9085 5.5521C24.9343 5.55909 24.9594 5.56702 24.9848 5.57546C24.9946 5.57865 25.0043 5.58184 25.0144 5.58512C25.1875 5.65044 25.3491 5.75847 25.5081 5.85189C25.5721 5.8895 25.6364 5.92665 25.7008 5.96371C25.7117 5.97 25.7226 5.97628 25.7338 5.98276C25.7559 5.99551 25.778 6.00825 25.8002 6.021C25.855 6.05259 25.9098 6.08423 25.9646 6.11586C25.9865 6.12848 26.0084 6.14111 26.0303 6.15374C26.1616 6.22949 26.2929 6.30525 26.4242 6.38101C26.4351 6.38726 26.4459 6.39351 26.4571 6.39995C26.4789 6.41257 26.5008 6.42518 26.5227 6.4378C26.5776 6.46951 26.6326 6.50121 26.6876 6.53288C26.7931 6.59371 26.8986 6.65471 27.0038 6.71623C27.0914 6.7675 27.1794 6.8181 27.2677 6.86838C27.3659 6.92434 27.4637 6.98084 27.5613 7.03791C27.6676 7.10007 27.7743 7.16154 27.881 7.22301C27.9358 7.2546 27.9906 7.28624 28.0454 7.31787C28.0673 7.33049 28.0892 7.34312 28.1111 7.35575C28.505 7.58302 28.899 7.81029 29.2929 8.03756C29.3092 8.04694 29.3092 8.04694 29.3257 8.05651C29.3476 8.0691 29.3694 8.08169 29.3912 8.09429C29.4469 8.12643 29.5026 8.15851 29.5584 8.19049C29.6133 8.22201 29.6681 8.25368 29.7229 8.28551C29.7418 8.29649 29.7607 8.30744 29.7797 8.31833C29.883 8.3779 29.9721 8.43917 30.0555 8.52493C30.0667 8.5361 30.0667 8.5361 30.078 8.5475C30.2888 8.77053 30.3314 9.05241 30.3311 9.34529C30.3311 9.36563 30.3312 9.38597 30.3312 9.40631C30.3314 9.46182 30.3314 9.51733 30.3314 9.57285C30.3315 9.63285 30.3316 9.69285 30.3318 9.75286C30.332 9.86345 30.3322 9.97404 30.3323 10.0846C30.3324 10.1867 30.3325 10.2888 30.3327 10.3909C30.3327 10.3977 30.3327 10.4045 30.3327 10.4114C30.3328 10.4459 30.3329 10.4803 30.3329 10.5148C30.3334 10.7584 30.3338 11.002 30.3341 11.2456C30.3344 11.4822 30.3347 11.7187 30.3351 11.9553C30.3352 11.9626 30.3352 11.9699 30.3352 11.9774C30.3353 12.0507 30.3354 12.124 30.3356 12.1973C30.3358 12.3467 30.3361 12.496 30.3363 12.6453C30.3363 12.6522 30.3363 12.659 30.3363 12.6661C30.3371 13.1241 30.3377 13.5821 30.3383 14.04C30.3463 14.0446 30.3542 14.0491 30.3624 14.0537C30.3924 14.0709 30.4224 14.088 30.4525 14.1052C30.4653 14.1125 30.4782 14.1199 30.4911 14.1272C30.5755 14.1754 30.6597 14.2239 30.7436 14.273C30.754 14.279 30.7643 14.2851 30.775 14.2913C30.7843 14.2968 30.7936 14.3022 30.8031 14.3078C30.8995 14.3641 30.9963 14.4198 31.0931 14.4755C31.1479 14.5071 31.2027 14.5387 31.2575 14.5703C31.2794 14.583 31.3013 14.5956 31.3232 14.6082C31.9797 14.987 32.6363 15.3658 33.2929 15.7446C33.3037 15.7508 33.3145 15.7571 33.3257 15.7635C33.3476 15.7761 33.3694 15.7888 33.3913 15.8014C33.4463 15.8331 33.5012 15.8648 33.5562 15.8964C33.6618 15.9573 33.7672 16.0183 33.8724 16.0798C33.9541 16.1276 34.0361 16.1748 34.1183 16.2217C34.1714 16.252 34.2246 16.2824 34.2777 16.3128C34.2889 16.3192 34.3002 16.3256 34.3117 16.3322C34.6324 16.516 34.875 16.6965 34.9771 17.0684C34.9923 17.1322 34.9963 17.1916 34.9962 17.2569C34.9963 17.2665 34.9963 17.2761 34.9963 17.286C34.9964 17.3183 34.9964 17.3506 34.9964 17.3829C34.9964 17.4062 34.9964 17.4296 34.9965 17.4529C34.9966 17.5172 34.9966 17.5814 34.9966 17.6457C34.9967 17.7078 34.9968 17.77 34.9968 17.8321C34.997 17.9987 34.9972 18.1652 34.9972 18.3317C34.9973 18.4105 34.9973 18.4894 34.9974 18.5682C34.9976 18.838 34.9977 19.1079 34.9978 19.3778C34.9978 19.3947 34.9978 19.4117 34.9978 19.4286C34.9978 19.4412 34.9978 19.4412 34.9978 19.4541C34.9978 19.4966 34.9978 19.5392 34.9979 19.5817C34.9979 19.5902 34.9979 19.5986 34.9979 19.6073C34.9979 19.8811 34.9982 20.1548 34.9985 20.4285C34.9989 20.718 34.9991 21.0075 34.9991 21.297C34.9991 21.3288 34.9991 21.3607 34.9991 21.3925C34.9991 21.4042 34.9991 21.4042 34.9991 21.4162C34.9991 21.542 34.9993 21.6679 34.9995 21.7937C34.9997 21.9203 34.9998 22.0469 34.9997 22.1735C34.9996 22.242 34.9996 22.3105 34.9998 22.3791C35 22.4419 35 22.5047 34.9998 22.5675C34.9998 22.5902 34.9999 22.6128 35 22.6355C35.0015 22.9358 34.9185 23.1842 34.7064 23.4036C34.5906 23.5188 34.445 23.5916 34.3033 23.6699C34.2406 23.7046 34.1786 23.7405 34.1167 23.7767C34.0329 23.8258 33.949 23.8747 33.8648 23.9232C33.8539 23.9295 33.843 23.9358 33.8318 23.9422C33.8097 23.955 33.7875 23.9677 33.7654 23.9805C33.7106 24.0121 33.6558 24.0437 33.6009 24.0753C33.5791 24.088 33.5572 24.1006 33.5353 24.1132C33.5245 24.1195 33.5136 24.1257 33.5025 24.1321C31.5656 25.2496 31.5656 25.2496 31.5328 25.2685C31.5109 25.2811 31.489 25.2937 31.4672 25.3064C31.4122 25.3381 31.3573 25.3698 31.3023 25.4014C31.1967 25.4623 31.0912 25.5233 30.9861 25.5848C30.8879 25.6422 30.7892 25.6988 30.6903 25.755C30.6683 25.7676 30.6465 25.7806 30.625 25.794C30.5914 25.8137 30.5584 25.8252 30.5212 25.8367C30.4471 25.8635 30.3859 25.8947 30.3383 25.9592C30.2871 26.088 30.3069 26.2515 30.3098 26.3869C30.3108 26.4465 30.3104 26.5062 30.3101 26.5658C30.3099 26.669 30.3105 26.7723 30.3118 26.8755C30.3131 26.9838 30.3139 27.0922 30.314 27.2005C30.314 27.2073 30.314 27.214 30.314 27.221C30.314 27.2553 30.3141 27.2896 30.3141 27.3239C30.3142 27.5667 30.3155 27.8095 30.3174 28.0523C30.3193 28.2877 30.3207 28.523 30.3215 28.7583C30.3216 28.7656 30.3216 28.7728 30.3216 28.7803C30.3221 28.9247 30.3225 29.0691 30.323 29.2136C30.3232 29.2838 30.3234 29.354 30.3236 29.4242C30.3237 29.445 30.3238 29.4657 30.3238 29.4865C30.3244 29.6757 30.3254 29.8649 30.3267 30.054C30.3272 30.1298 30.3277 30.2056 30.3281 30.2814C30.3285 30.3516 30.329 30.4217 30.3297 30.4918C30.33 30.5346 30.3303 30.5773 30.3305 30.6201C30.3306 30.6395 30.3307 30.659 30.331 30.6784C30.3343 30.9698 30.2742 31.2317 30.0757 31.4541C30.0684 31.4623 30.0611 31.4706 30.0535 31.4792C29.9355 31.6047 29.781 31.681 29.632 31.7634C29.5827 31.7907 29.5339 31.8186 29.4854 31.8474C29.415 31.8891 29.3443 31.9302 29.2733 31.9711C29.2566 31.9808 29.2566 31.9808 29.2394 31.9906C29.2165 32.0038 29.1936 32.0171 29.1706 32.0303C29.1154 32.0621 29.0602 32.0939 29.005 32.1258C28.9831 32.1384 28.9613 32.151 28.9394 32.1637C28.9285 32.1699 28.9177 32.1762 28.9065 32.1826C28.8081 32.2394 28.8081 32.2394 28.7752 32.2584C28.7533 32.271 28.7315 32.2836 28.7096 32.2962C28.6547 32.3279 28.5997 32.3596 28.5447 32.3913C28.4391 32.4521 28.3337 32.5131 28.2285 32.5746C28.1349 32.6294 28.0408 32.6834 27.9466 32.7371C27.8544 32.7896 27.7626 32.8427 27.671 32.8963C27.5647 32.9585 27.458 33.0199 27.3513 33.0814C27.2965 33.113 27.2417 33.1446 27.1869 33.1763C27.165 33.1889 27.1431 33.2015 27.1212 33.2141C27.1104 33.2204 27.0995 33.2266 27.0884 33.2331C26.3826 33.6403 26.3826 33.6403 25.6768 34.0475C25.6659 34.0537 25.6551 34.06 25.6439 34.0664C25.6221 34.079 25.6003 34.0916 25.5785 34.1042C25.5226 34.1364 25.4667 34.1687 25.4109 34.2011C25.3465 34.2386 25.2819 34.2757 25.2172 34.3126C25.2088 34.3174 25.2004 34.3223 25.1918 34.3272C24.9698 34.4544 24.717 34.503 24.4628 34.4528C24.4414 34.447 24.4201 34.4406 24.399 34.4338C24.3872 34.4304 24.3754 34.4269 24.3632 34.4233C24.2422 34.3847 24.1366 34.3167 24.0284 34.2517C23.9769 34.2211 23.9248 34.1914 23.8727 34.1618C23.8428 34.1448 23.8129 34.1277 23.783 34.1107C23.7771 34.1073 23.7712 34.1039 23.7651 34.1005C23.6705 34.0465 23.5763 33.9919 23.482 33.9375C23.4274 33.9059 23.3728 33.8744 23.3182 33.8429C23.2963 33.8303 23.2744 33.8177 23.2525 33.8051C23.2363 33.7957 23.2363 33.7957 23.2197 33.7861C23.0118 33.6662 22.8039 33.5462 22.596 33.4263C22.5797 33.4169 22.5797 33.4169 22.5631 33.4073C22.5413 33.3947 22.5194 33.3821 22.4975 33.3695C22.4426 33.3378 22.3876 33.3061 22.3326 33.2744C22.2271 33.2136 22.1216 33.1526 22.0164 33.091C21.9288 33.0398 21.8408 32.9892 21.7525 32.9389C21.6544 32.8829 21.5565 32.8264 21.4589 32.7694C21.3526 32.7072 21.2459 32.6457 21.1392 32.5843C21.0844 32.5527 21.0296 32.521 20.9748 32.4894C20.9529 32.4768 20.931 32.4642 20.9091 32.4515C20.5152 32.2243 20.5152 32.2243 20.4823 32.2053C20.4606 32.1928 20.4389 32.1802 20.4171 32.1677C20.366 32.1382 20.3149 32.1087 20.2638 32.0791C20.2397 32.0652 20.2157 32.0513 20.1916 32.0373C20.1747 32.0276 20.1578 32.0177 20.1409 32.0079C20.1306 32.002 20.1203 31.996 20.1097 31.9899C20.1007 31.9847 20.0917 31.9794 20.0824 31.9741C20.0736 31.9691 20.0647 31.9642 20.0556 31.9591C20.0455 31.953 20.0354 31.9469 20.025 31.9406C19.9961 31.9257 19.9961 31.9257 19.97 31.9359C19.9619 31.9411 19.9537 31.9462 19.9453 31.9515C19.9359 31.9571 19.9265 31.9628 19.9168 31.9687C19.9068 31.9751 19.8967 31.9815 19.8864 31.9881C19.8645 32.0015 19.8427 32.0149 19.8208 32.0282C19.8039 32.0387 19.8039 32.0387 19.7867 32.0493C19.7326 32.0825 19.6775 32.1139 19.6225 32.1453C19.6004 32.1581 19.5784 32.1708 19.5563 32.1835C19.5453 32.1898 19.5344 32.1961 19.5231 32.2026C19.4683 32.2342 19.4134 32.2659 19.3586 32.2975C19.3367 32.3101 19.3149 32.3227 19.293 32.3354C19.2821 32.3416 19.2713 32.3479 19.2601 32.3543C18.3738 32.8657 18.3738 32.8657 18.341 32.8846C18.3191 32.8972 18.2972 32.9098 18.2753 32.9225C18.2204 32.9542 18.1654 32.9859 18.1104 33.0175C18.0049 33.0784 17.8994 33.1394 17.7942 33.2009C17.7006 33.2557 17.6065 33.3096 17.5123 33.3633C17.4201 33.4159 17.3283 33.469 17.2368 33.5226C17.1305 33.5847 17.0238 33.6462 16.917 33.7077C16.8622 33.7393 16.8074 33.7709 16.7526 33.8025C16.7307 33.8152 16.7088 33.8278 16.6869 33.8404C16.6761 33.8467 16.6653 33.8529 16.6541 33.8593C16.5337 33.9288 16.4134 33.9982 16.293 34.0677C16.2821 34.0739 16.2713 34.0802 16.2601 34.0866C16.2383 34.0992 16.2166 34.1118 16.1948 34.1243C16.1385 34.1568 16.0822 34.1893 16.0261 34.222C15.7319 34.3933 15.4448 34.5315 15.0941 34.4484C14.9237 34.4026 14.7762 34.3106 14.6254 34.2218C14.5704 34.1894 14.515 34.1576 14.4597 34.1258C14.4378 34.1131 14.4159 34.1005 14.394 34.0879C14.3778 34.0785 14.3778 34.0785 14.3612 34.0689C13.7156 33.6965 13.0699 33.324 12.4243 32.9515C12.4081 32.9421 12.4081 32.9421 12.3915 32.9326C12.3696 32.92 12.3478 32.9073 12.3259 32.8947C12.2709 32.863 12.216 32.8313 12.161 32.7997C12.0554 32.7388 11.95 32.6778 11.8448 32.6163C11.7571 32.565 11.6691 32.5144 11.5809 32.4642C11.4827 32.4082 11.3849 32.3517 11.2873 32.2946C11.181 32.2325 11.0743 32.171 10.9676 32.1095C10.9128 32.0779 10.8579 32.0463 10.8031 32.0147C10.7812 32.002 10.7594 31.9894 10.7375 31.9768C10.6937 31.9515 10.6499 31.9263 10.6062 31.901C10.5953 31.8948 10.5845 31.8885 10.5733 31.8821C10.5515 31.8695 10.5298 31.8569 10.508 31.8444C10.4575 31.8152 10.4069 31.786 10.3561 31.7572C10.3383 31.7471 10.3205 31.737 10.3028 31.7268C10.2807 31.7142 10.2585 31.7016 10.2364 31.6891C9.97354 31.5389 9.79035 31.34 9.70675 31.0476C9.68811 30.9789 9.68044 30.9148 9.68068 30.8437C9.68067 30.8353 9.68066 30.8268 9.68065 30.8181C9.68062 30.7897 9.68067 30.7613 9.68071 30.7329C9.68071 30.7123 9.6807 30.6918 9.68069 30.6712C9.68066 30.6147 9.6807 30.5582 9.68075 30.5016C9.6808 30.4407 9.68078 30.3798 9.68078 30.3188C9.68077 30.2132 9.6808 30.1076 9.68086 30.002C9.68092 29.8913 9.68096 29.7806 9.68097 29.6698C9.68097 29.6629 9.68097 29.656 9.68097 29.6489C9.68097 29.614 9.68098 29.579 9.68098 29.544C9.681 29.2963 9.68107 29.0487 9.68116 28.801C9.68126 28.5603 9.68133 28.3197 9.68137 28.0791C9.68137 28.0717 9.68137 28.0643 9.68138 28.0566C9.68139 27.9821 9.6814 27.9076 9.68141 27.8332C9.68144 27.6814 9.68147 27.5297 9.6815 27.378C9.6815 27.371 9.6815 27.364 9.6815 27.3568C9.6816 26.8909 9.68176 26.425 9.68193 25.9592C9.67028 25.9546 9.67028 25.9546 9.65839 25.95C9.62859 25.9378 9.60177 25.923 9.57385 25.9069C9.56261 25.9005 9.55136 25.8941 9.53978 25.8874C9.52761 25.8804 9.51544 25.8734 9.50327 25.8663C9.49057 25.8591 9.47787 25.8518 9.46518 25.8445C9.43257 25.8257 9.39999 25.807 9.36742 25.7882C9.33854 25.7715 9.30965 25.7549 9.28077 25.7383C9.22665 25.7071 9.17256 25.6758 9.11847 25.6446C9.06388 25.6131 9.00927 25.5816 8.95466 25.5501C8.93277 25.5374 8.91089 25.5248 8.889 25.5122C8.87817 25.5059 8.86734 25.4997 8.85617 25.4932C8.73581 25.4238 8.61544 25.3544 8.49507 25.2849C8.48423 25.2787 8.4734 25.2724 8.46223 25.266C8.44036 25.2534 8.4185 25.2407 8.39663 25.2281C8.34167 25.1964 8.28671 25.1647 8.23173 25.133C8.12616 25.0722 8.0207 25.0112 7.91553 24.9497C7.82787 24.8984 7.73986 24.8478 7.65164 24.7975C7.55345 24.7416 7.45559 24.6851 7.35804 24.628C7.25173 24.5659 7.14504 24.5044 7.03833 24.4429C6.9835 24.4113 6.92868 24.3797 6.87387 24.3481C6.85198 24.3354 6.8301 24.3228 6.80821 24.3102C6.58936 24.1839 6.3705 24.0576 6.15165 23.9314C6.14081 23.9251 6.12998 23.9189 6.11882 23.9124C6.09695 23.8998 6.07508 23.8872 6.05321 23.8746C5.9872 23.8365 5.92118 23.7984 5.85514 23.7604C5.82237 23.7415 5.78963 23.7226 5.75688 23.7036C5.71345 23.6785 5.66991 23.6536 5.62628 23.6288C5.34597 23.4688 5.12922 23.2828 5.03372 22.9635C5.01384 22.8808 5.00219 22.8016 5.00259 22.7166C5.00256 22.707 5.00252 22.6974 5.00249 22.6875C5.00239 22.6556 5.00244 22.6236 5.00249 22.5916C5.00245 22.5684 5.00241 22.5452 5.00235 22.522C5.00223 22.4583 5.00223 22.3947 5.00226 22.331C5.00226 22.2694 5.00217 22.2077 5.00208 22.1461C5.00189 22.0044 5.00183 21.8628 5.00182 21.7212C5.00181 21.6117 5.00177 21.5023 5.0017 21.3929C5.00168 21.3614 5.00167 21.3299 5.00165 21.2983C5.00164 21.2905 5.00164 21.2827 5.00164 21.2746C5.00151 21.0542 5.00143 20.8338 5.00144 20.6134C5.00144 20.6051 5.00144 20.5968 5.00144 20.5882C5.00144 20.5461 5.00144 20.504 5.00145 20.4619C5.00145 20.4536 5.00145 20.4452 5.00145 20.4366C5.00145 20.4197 5.00145 20.4028 5.00145 20.3859C5.00146 20.123 5.00131 19.8601 5.00103 19.5971C5.00072 19.3016 5.00055 19.006 5.00057 18.7104C5.00057 18.6788 5.00057 18.6473 5.00057 18.6157C5.00057 18.608 5.00057 18.6002 5.00057 18.5922C5.00057 18.4674 5.00044 18.3427 5.00027 18.2179C5.0001 18.0925 5.00008 17.967 5.00021 17.8415C5.00028 17.7736 5.00028 17.7056 5.0001 17.6377C4.99994 17.5755 4.99998 17.5132 5.00015 17.4509C5.00018 17.4285 5.00015 17.4061 5.00003 17.3836C4.99864 17.0878 5.072 16.8281 5.28182 16.6119C5.35482 16.5389 5.43108 16.4859 5.52034 16.434C5.52938 16.4287 5.53843 16.4234 5.54775 16.418C5.61437 16.3793 5.68113 16.3409 5.74793 16.3026C5.80384 16.2705 5.85969 16.2383 5.91554 16.2061C5.92643 16.1998 5.93732 16.1935 5.94854 16.187C6.02101 16.1452 6.09331 16.1031 6.16554 16.0609C6.25917 16.0061 6.35325 15.9521 6.44749 15.8984C6.53965 15.8459 6.63146 15.7928 6.72303 15.7392C6.82933 15.677 6.93603 15.6156 7.04273 15.5541C7.09757 15.5225 7.15238 15.4909 7.2072 15.4592C7.22908 15.4466 7.25097 15.434 7.27285 15.4213C7.2891 15.412 7.2891 15.412 7.30568 15.4024C8.97991 14.4365 8.97991 14.4365 9.01275 14.4176C9.0346 14.405 9.05646 14.3923 9.07831 14.3797C9.1335 14.3479 9.18871 14.3161 9.24396 14.2843C9.26621 14.2715 9.28846 14.2587 9.31072 14.2458C9.32148 14.2397 9.33224 14.2335 9.34333 14.2271C9.39732 14.1959 9.45114 14.1645 9.50469 14.1326C9.51498 14.1265 9.52528 14.1204 9.53589 14.1141C9.55538 14.1024 9.57486 14.0907 9.5943 14.079C9.60721 14.0713 9.60721 14.0713 9.62037 14.0634C9.62791 14.0589 9.63544 14.0544 9.6432 14.0497C9.66172 14.04 9.66172 14.04 9.68193 14.04C9.68191 14.0244 9.68191 14.0244 9.68189 14.0083C9.68139 13.5471 9.68092 13.0859 9.68064 12.6247C9.68064 12.6177 9.68063 12.6107 9.68063 12.6035C9.68054 12.4516 9.68046 12.2998 9.68038 12.1479C9.68034 12.0735 9.6803 11.999 9.68026 11.9245C9.68026 11.9171 9.68025 11.9097 9.68025 11.9021C9.68012 11.662 9.67989 11.422 9.67961 11.1819C9.67933 10.9352 9.67914 10.6884 9.67908 10.4417C9.67907 10.4068 9.67906 10.3719 9.67905 10.3371C9.67905 10.3302 9.67905 10.3233 9.67905 10.3163C9.67901 10.2059 9.67887 10.0956 9.67869 9.98521C9.67851 9.87418 9.67845 9.76316 9.67849 9.65213C9.67851 9.59201 9.67848 9.53189 9.67831 9.47177C9.67817 9.41667 9.67816 9.36158 9.67826 9.30648C9.67828 9.2866 9.67824 9.26672 9.67814 9.24685C9.67682 8.95479 9.7643 8.71265 9.96933 8.49913C10.0959 8.37748 10.2577 8.29907 10.4093 8.21303C10.4802 8.17272 10.5509 8.13187 10.6213 8.09059C10.7085 8.03951 10.7961 7.98912 10.8839 7.93908C10.9821 7.88312 11.08 7.82661 11.1775 7.76955C11.2838 7.70738 11.3905 7.64591 11.4972 7.58444C11.5521 7.55285 11.6069 7.52121 11.6617 7.48958C11.6836 7.47696 11.7055 7.46433 11.7274 7.45171C11.7382 7.44546 11.749 7.43921 11.7602 7.43277C13.697 6.31535 13.697 6.31535 13.7299 6.29641C13.7518 6.28379 13.7736 6.27117 13.7955 6.25855C13.8504 6.22685 13.9054 6.19515 13.9604 6.16348C14.066 6.10265 14.1714 6.04165 14.2766 5.98013C14.3768 5.92151 14.4775 5.8636 14.5785 5.80619C14.633 5.77514 14.6875 5.74398 14.7416 5.71213C14.8403 5.65424 14.9364 5.60087 15.0455 5.56536C15.0557 5.56196 15.0658 5.55856 15.0763 5.55506C15.4245 5.46022 15.7217 5.59464 16.013 5.76833ZM15.256 7.66387C15.2404 7.67295 15.2404 7.67295 15.2246 7.68221C15.2134 7.68885 15.2022 7.69549 15.1907 7.70234C15.179 7.70924 15.1672 7.71614 15.1554 7.72303C15.1309 7.73736 15.1065 7.75174 15.082 7.76614C15.0259 7.79915 14.9694 7.8315 14.9129 7.86395C14.8295 7.91207 14.7461 7.96049 14.663 8.00915C14.5693 8.06392 14.4752 8.11788 14.381 8.17159C14.2888 8.22413 14.197 8.27726 14.1055 8.33083C13.9992 8.39299 13.8925 8.45446 13.7858 8.51593C13.7309 8.54752 13.6761 8.57916 13.6213 8.61079C13.5994 8.62341 13.5775 8.63604 13.5556 8.64867C13.5448 8.65492 13.534 8.66117 13.5228 8.66761C12.1112 9.48199 12.1112 9.48199 12.0783 9.50097C12.0566 9.51348 12.0349 9.526 12.0132 9.53852C11.9618 9.56818 11.9105 9.59781 11.859 9.62741C11.8347 9.64142 11.8103 9.65544 11.786 9.66946C11.7688 9.67938 11.7515 9.68929 11.7343 9.6992C11.7239 9.70519 11.7135 9.71118 11.7028 9.71735C11.6936 9.72263 11.6844 9.72791 11.675 9.73335C11.6567 9.74411 11.6389 9.7556 11.6213 9.76735C11.6167 9.79873 11.6167 9.79873 11.6176 9.83656C11.6175 9.8438 11.6175 9.85103 11.6175 9.85849C11.6174 9.88299 11.6175 9.90748 11.6177 9.93198C11.6176 9.94963 11.6176 9.96727 11.6176 9.98491C11.6175 10.0336 11.6176 10.0822 11.6178 10.1309C11.6179 10.1833 11.6179 10.2357 11.6179 10.2882C11.6178 10.379 11.6179 10.4699 11.6181 10.5608C11.6183 10.6922 11.6184 10.8235 11.6185 10.9549C11.6185 11.1681 11.6187 11.3812 11.619 11.5944C11.6193 11.8015 11.6195 12.0086 11.6196 12.2157C11.6196 12.2284 11.6197 12.2412 11.6197 12.2543C11.6197 12.3183 11.6197 12.3823 11.6198 12.4463C11.6201 12.9776 11.6206 13.5088 11.6213 14.04C11.6331 14.0468 11.6331 14.0468 11.6452 14.0537C11.6751 14.0707 11.705 14.0878 11.7349 14.1049C11.7477 14.1122 11.7605 14.1195 11.7733 14.1268C11.8938 14.1957 12.0141 14.265 12.1343 14.3344C12.1779 14.3596 12.2215 14.3848 12.2652 14.41C12.298 14.4289 12.3308 14.4478 12.3636 14.4668C12.4077 14.4922 12.4517 14.5176 12.4957 14.5429C12.6013 14.6038 12.7068 14.6648 12.812 14.7263C12.8996 14.7775 12.9876 14.8281 13.0758 14.8784C13.174 14.9344 13.2719 14.9909 13.3694 15.0479C13.4757 15.1101 13.5824 15.1716 13.6891 15.2331C13.744 15.2646 13.7988 15.2963 13.8536 15.3279C13.8755 15.3405 13.8974 15.3532 13.9193 15.3658C14.8385 15.8961 14.8385 15.8961 14.8713 15.9151C14.893 15.9276 14.9147 15.9401 14.9365 15.9526C14.9878 15.9822 15.0392 16.0119 15.0904 16.0418C15.1146 16.0559 15.1389 16.07 15.1631 16.0841C15.1803 16.0941 15.1974 16.1041 15.2145 16.1142C15.2248 16.1202 15.2352 16.1262 15.2459 16.1324C15.2596 16.1404 15.2596 16.1404 15.2735 16.1486C15.3046 16.1647 15.3046 16.1647 15.3385 16.1713C15.3614 16.163 15.3614 16.163 15.3847 16.1486C15.3938 16.1433 15.4029 16.1381 15.4123 16.1327C15.4221 16.1269 15.4319 16.1211 15.442 16.1152C15.4523 16.1092 15.4626 16.1032 15.4732 16.0971C15.5058 16.0782 15.5383 16.0591 15.5708 16.04C15.5908 16.0284 15.6108 16.0167 15.6308 16.0051C15.6709 15.9818 15.7109 15.9584 15.751 15.935C15.8479 15.8782 15.9453 15.8223 16.0427 15.7662C16.0975 15.7346 16.1523 15.703 16.2071 15.6713C16.229 15.6587 16.2509 15.6461 16.2728 15.6335C16.289 15.6241 16.289 15.6241 16.3056 15.6145C17.9798 14.6486 17.9798 14.6486 18.0127 14.6297C18.0345 14.6171 18.0564 14.6044 18.0783 14.5918C18.1332 14.5601 18.1882 14.5284 18.2432 14.4968C18.3586 14.4303 18.4738 14.3635 18.5887 14.2962C18.6449 14.2634 18.7013 14.2309 18.7578 14.1987C18.7642 14.195 18.7706 14.1914 18.7772 14.1876C18.8085 14.1698 18.8398 14.152 18.8711 14.1343C18.8881 14.1246 18.8881 14.1246 18.9054 14.1148C18.9154 14.1091 18.9254 14.1035 18.9357 14.0976C18.9453 14.092 18.9548 14.0863 18.9647 14.0804C18.9804 14.0738 18.9804 14.0738 18.9963 14.0669C19.0297 14.0359 19.03 14.0296 19.0328 13.986C19.033 13.9627 19.0329 13.9393 19.0326 13.9159C19.0326 13.9031 19.0327 13.8902 19.0327 13.8769C19.0329 13.8412 19.0326 13.8055 19.0323 13.7698C19.0321 13.7313 19.0322 13.6927 19.0322 13.6542C19.0322 13.5875 19.032 13.5207 19.0317 13.454C19.0312 13.3575 19.0311 13.261 19.031 13.1645C19.0308 13.008 19.0304 12.8514 19.0299 12.6948C19.0293 12.5428 19.0289 12.3907 19.0286 12.2386C19.0286 12.2292 19.0286 12.2198 19.0286 12.2102C19.0285 12.1632 19.0284 12.1161 19.0283 12.0691C19.0277 11.679 19.0266 11.2888 19.0253 10.8987C18.9872 10.9135 18.9527 10.9305 18.9172 10.9509C18.906 10.9573 18.8947 10.9637 18.8831 10.9704C18.871 10.9774 18.8588 10.9844 18.8466 10.9915C18.8339 10.9987 18.8212 11.006 18.8085 11.0133C18.7759 11.0321 18.7434 11.0508 18.7108 11.0696C18.6819 11.0863 18.653 11.1029 18.6241 11.1195C18.57 11.1507 18.5159 11.182 18.4618 11.2132C18.4073 11.2447 18.3526 11.2762 18.298 11.3077C18.2872 11.314 18.2764 11.3202 18.2652 11.3267C18.2103 11.3584 18.1553 11.3901 18.1003 11.4217C17.9948 11.4826 17.8893 11.5436 17.7841 11.6051C17.6965 11.6564 17.6085 11.707 17.5203 11.7572C17.4279 11.8099 17.3357 11.8628 17.2437 11.9163C17.2338 11.9221 17.2238 11.9279 17.2136 11.9338C17.2043 11.9393 17.195 11.9447 17.1854 11.9503C17.1774 11.9549 17.1693 11.9596 17.1611 11.9644C17.1489 11.9719 17.1489 11.9719 17.1364 11.9795C17.126 11.9847 17.1155 11.9899 17.1048 11.9953C17.0719 12.0177 17.0719 12.0177 17.07 12.0578C17.0706 12.0733 17.0714 12.0889 17.0725 12.1044C17.073 12.1172 17.073 12.1172 17.0735 12.1302C17.0743 12.1487 17.0752 12.1672 17.0762 12.1857C17.0781 12.2252 17.079 12.2647 17.08 12.3042C17.0817 12.3778 17.0839 12.4513 17.088 12.5248C17.106 12.8585 17.106 12.8585 17.0535 12.9371C16.9917 13.0058 16.9043 13.0377 16.819 13.0669C16.762 13.0883 16.7119 13.1198 16.6604 13.1518C16.6406 13.1634 16.6208 13.175 16.6009 13.1866C16.591 13.1924 16.5812 13.1981 16.571 13.2041C16.4845 13.2545 16.3977 13.3043 16.311 13.3543C16.2562 13.3859 16.2013 13.4175 16.1465 13.4491C16.1246 13.4618 16.1028 13.4744 16.0809 13.487C16.0646 13.4964 16.0646 13.4964 16.048 13.506C15.9496 13.5628 15.9496 13.5628 15.9167 13.5817C15.8949 13.5943 15.8731 13.6069 15.8513 13.6195C15.7952 13.6518 15.7392 13.6841 15.683 13.7164C15.6716 13.723 15.6602 13.7296 15.6484 13.7363C15.626 13.7492 15.6036 13.7621 15.5811 13.775C15.5341 13.802 15.4873 13.8292 15.4416 13.8583C15.4346 13.8628 15.4276 13.8672 15.4204 13.8717C15.4026 13.8831 15.3849 13.8947 15.3673 13.9062C15.3385 13.9188 15.3385 13.9188 15.3148 13.9114C15.2871 13.8983 15.2605 13.8842 15.2338 13.8693C15.2235 13.8635 15.2131 13.8577 15.2025 13.8517C15.186 13.8424 15.186 13.8424 15.1693 13.833C15.1579 13.8266 15.1465 13.8202 15.1348 13.8136C15.0662 13.7749 14.998 13.7357 14.9302 13.6955C14.8665 13.6577 14.8023 13.6206 14.7381 13.5836C14.7213 13.5739 14.7213 13.5739 14.7042 13.5641C14.6813 13.5509 14.6583 13.5377 14.6354 13.5244C14.5802 13.4926 14.525 13.4608 14.4698 13.4289C14.4479 13.4163 14.426 13.4037 14.4041 13.3911C14.3603 13.3658 14.3166 13.3406 14.2728 13.3153C14.2565 13.3059 14.2565 13.3059 14.24 13.2964C14.2181 13.2837 14.1963 13.2711 14.1744 13.2585C14.1192 13.2267 14.064 13.1948 14.0088 13.1631C13.9865 13.1503 13.9642 13.1375 13.942 13.1246C13.9312 13.1185 13.9205 13.1123 13.9094 13.1059C13.8554 13.0747 13.8016 13.0433 13.748 13.0114C13.7377 13.0053 13.7274 12.9992 13.7168 12.9929C13.6973 12.9812 13.6779 12.9695 13.6584 12.9578C13.6498 12.9527 13.6412 12.9475 13.6323 12.9422C13.621 12.9354 13.621 12.9354 13.6095 12.9285C13.5915 12.9173 13.5915 12.9173 13.5708 12.9188C13.5758 11.9138 13.5758 11.9138 13.5809 10.8886C13.6409 10.8552 13.7009 10.8219 13.7627 10.7875C13.8015 10.7652 13.8403 10.7427 13.8789 10.72C13.8996 10.7078 13.9204 10.6957 13.9411 10.6835C13.9516 10.6774 13.9622 10.6712 13.973 10.6649C14.0269 10.6334 14.0811 10.6022 14.1352 10.571C14.1461 10.5647 14.157 10.5584 14.1682 10.552C14.1903 10.5392 14.2125 10.5265 14.2346 10.5137C14.2894 10.4821 14.3442 10.4505 14.3991 10.4189C14.4209 10.4062 14.4428 10.3936 14.4647 10.381C14.4756 10.3747 14.4864 10.3685 14.4975 10.362C14.6781 10.2579 14.6781 10.2579 14.8587 10.1537C14.8695 10.1474 14.8804 10.1412 14.8915 10.1347C14.9132 10.1222 14.9349 10.1097 14.9567 10.0973C15.0082 10.0677 15.0595 10.0379 15.1103 10.0073C15.1344 9.99275 15.1586 9.97838 15.1828 9.96402C15.1998 9.95379 15.2168 9.94337 15.2338 9.93295C15.2441 9.92683 15.2545 9.92071 15.2651 9.9144C15.2787 9.90617 15.2787 9.90617 15.2926 9.89777C15.3182 9.88856 15.3182 9.88856 15.3436 9.8953C15.3519 9.89974 15.3602 9.90418 15.3688 9.90876C15.377 9.91306 15.3853 9.91736 15.3938 9.92179C15.4026 9.92671 15.4114 9.93163 15.4204 9.93669C15.4304 9.94228 15.4404 9.94787 15.4507 9.95362C15.4613 9.95965 15.472 9.96568 15.483 9.97189C15.4998 9.98131 15.4998 9.98131 15.5169 9.99093C15.593 10.0339 15.6688 10.0775 15.7444 10.1215C15.7542 10.1272 15.7641 10.133 15.7743 10.1389C15.8253 10.1688 15.8761 10.1991 15.9265 10.23C15.9366 10.2362 15.9468 10.2423 15.9572 10.2487C15.9765 10.2604 15.9957 10.2723 16.0148 10.2843C16.0234 10.2895 16.032 10.2947 16.0409 10.3001C16.0522 10.3071 16.0522 10.3071 16.0636 10.3142C16.0929 10.3256 16.1067 10.3224 16.1364 10.3128C16.156 10.3032 16.1751 10.2927 16.194 10.2818C16.2052 10.2753 16.2165 10.2688 16.2281 10.2622C16.2402 10.255 16.2524 10.2479 16.2646 10.2408C16.2773 10.2335 16.29 10.2261 16.3027 10.2188C16.3288 10.2037 16.3549 10.1886 16.381 10.1734C16.4271 10.1466 16.4734 10.12 16.5196 10.0933C16.5629 10.0684 16.6061 10.0434 16.6494 10.0184C16.704 9.98691 16.7586 9.95541 16.8132 9.92391C16.8351 9.91128 16.857 9.89866 16.8788 9.88603C17.5354 9.50725 17.5354 9.50725 17.5683 9.48828C17.59 9.47575 17.6117 9.46321 17.6334 9.45067C17.6846 9.42113 17.7358 9.39165 17.7871 9.36236C17.8112 9.34855 17.8354 9.33472 17.8595 9.32089C17.8765 9.31117 17.8935 9.30149 17.9105 9.29181C17.9209 9.28589 17.9312 9.27996 17.9418 9.27386C17.9509 9.26869 17.96 9.26352 17.9693 9.25819C17.9965 9.24116 18.0209 9.22216 18.0455 9.20169C17.9904 9.16204 17.9326 9.12824 17.8732 9.09563C17.8003 9.05567 17.7283 9.01452 17.6566 8.97253C17.5713 8.92259 17.4859 8.87288 17.4003 8.82354C17.3894 8.81725 17.3785 8.81097 17.3673 8.80449C17.3451 8.79175 17.323 8.779 17.3009 8.76625C17.246 8.73466 17.1912 8.70302 17.1364 8.67139C17.1145 8.65877 17.0926 8.64614 17.0708 8.63352C16.6768 8.40624 16.2829 8.17897 15.889 7.9517C15.8781 7.94544 15.8673 7.93919 15.8561 7.93274C15.8343 7.9202 15.8126 7.90765 15.7909 7.89511C15.74 7.86573 15.689 7.83636 15.6381 7.80707C15.6201 7.79673 15.6021 7.78637 15.5841 7.77602C15.5616 7.76305 15.539 7.7501 15.5165 7.73716C15.4653 7.70768 15.4148 7.67798 15.366 7.64465C15.3229 7.62337 15.2932 7.64187 15.256 7.66387ZM24.6164 7.6598C24.6072 7.66499 24.5981 7.67019 24.5887 7.67554C24.5788 7.68126 24.5689 7.68697 24.5587 7.69287C24.5432 7.70174 24.5432 7.70174 24.5274 7.71078C24.4343 7.76413 24.3417 7.81824 24.2491 7.87243C24.1521 7.92914 24.0547 7.98512 23.9574 8.04119C23.9026 8.07278 23.8478 8.10441 23.7929 8.13604C23.7711 8.14867 23.7492 8.1613 23.7273 8.17392C23.7164 8.18017 23.7056 8.18642 23.6945 8.19286C22.0202 9.15876 22.0202 9.15876 21.9874 9.17771C21.9655 9.19032 21.9436 9.20294 21.9218 9.21556C21.8668 9.24727 21.8119 9.27896 21.7569 9.31063C21.6415 9.37713 21.5263 9.4439 21.4113 9.51117C21.3552 9.54398 21.2988 9.57649 21.2423 9.60869C21.2359 9.61234 21.2295 9.61599 21.2229 9.61976C21.1916 9.63758 21.1603 9.65537 21.1289 9.67312C21.112 9.68277 21.112 9.68277 21.0946 9.69262C21.0847 9.69827 21.0747 9.70393 21.0644 9.70976C21.0548 9.71543 21.0452 9.7211 21.0354 9.72694C21.025 9.73249 21.0145 9.73804 21.0038 9.74376C20.9719 9.76478 20.9719 9.76478 20.967 9.7996C20.9669 9.81249 20.9668 9.82537 20.9666 9.83865C20.9665 9.84587 20.9664 9.85309 20.9662 9.86052C20.9658 9.88484 20.9658 9.90914 20.9659 9.93346C20.9657 9.95102 20.9654 9.96858 20.9652 9.98614C20.9646 10.0345 20.9643 10.0828 20.9642 10.1312C20.964 10.1833 20.9634 10.2354 20.9628 10.2875C20.9616 10.4134 20.961 10.5394 20.9605 10.6653C20.9602 10.7246 20.9599 10.7839 20.9596 10.8432C20.9586 11.0403 20.9577 11.2375 20.9572 11.4346C20.9571 11.4858 20.957 11.5369 20.9569 11.5881C20.9569 11.6008 20.9568 11.6136 20.9568 11.6267C20.9563 11.8326 20.9548 12.0386 20.9528 12.2445C20.9508 12.456 20.9497 12.6674 20.9495 12.8789C20.9494 12.9976 20.9488 13.1163 20.9473 13.235C20.946 13.3362 20.9455 13.4373 20.9461 13.5384C20.9464 13.59 20.9462 13.6415 20.9451 13.6931C20.9319 13.8917 20.9319 13.8917 20.9988 14.0702C21.056 14.1186 21.1186 14.1472 21.1891 14.1714C21.2258 14.1846 21.2561 14.2024 21.2891 14.2231C21.3085 14.2343 21.3279 14.2454 21.3472 14.2566C21.3693 14.2693 21.3914 14.282 21.4135 14.2947C21.4244 14.3011 21.4354 14.3074 21.4467 14.3139C21.5015 14.3455 21.5563 14.3771 21.6111 14.4087C21.633 14.4214 21.6549 14.434 21.6768 14.4466C22.0707 14.6739 22.4647 14.9011 22.8586 15.1284C22.8694 15.1347 22.8803 15.1409 22.8914 15.1474C22.9133 15.16 22.9352 15.1726 22.957 15.1852C23.012 15.2169 23.067 15.2486 23.1219 15.2803C23.2275 15.3411 23.333 15.4021 23.4381 15.4636C23.5258 15.5149 23.6138 15.5655 23.702 15.6158C23.8002 15.6717 23.8981 15.7283 23.9956 15.7853C24.1129 15.8539 24.2307 15.9217 24.3485 15.9895C24.3909 16.0139 24.4333 16.0384 24.4756 16.0628C24.4926 16.0726 24.5096 16.0824 24.5266 16.0922C24.537 16.0982 24.5473 16.1041 24.558 16.1103C24.5716 16.1181 24.5716 16.1181 24.5854 16.1261C24.6032 16.1364 24.6208 16.1472 24.6382 16.1581C24.6606 16.1734 24.6606 16.1734 24.6855 16.1708C24.7213 16.158 24.7525 16.1394 24.7847 16.1196C24.8001 16.1103 24.8155 16.1011 24.831 16.0918C24.8394 16.0868 24.8478 16.0817 24.8565 16.0765C24.9072 16.0463 24.9584 16.017 25.0095 15.9876C25.0322 15.9745 25.0549 15.9615 25.0776 15.9484C25.0947 15.9385 25.0947 15.9385 25.1122 15.9285C25.1674 15.8967 25.2226 15.8648 25.2778 15.833C25.2997 15.8203 25.3215 15.8077 25.3434 15.7951C25.3597 15.7857 25.3597 15.7857 25.3763 15.7761C25.7374 15.5678 25.7374 15.5678 25.7702 15.5489C25.7921 15.5363 25.8139 15.5236 25.8358 15.511C25.8908 15.4793 25.9457 15.4476 26.0007 15.4159C26.1063 15.3551 26.2117 15.2941 26.3169 15.2326C26.4105 15.1778 26.5046 15.1239 26.5989 15.0701C26.691 15.0176 26.7827 14.9646 26.8742 14.911C26.9494 14.867 27.0248 14.8234 27.1004 14.7799C27.2002 14.7224 27.2998 14.6644 27.399 14.6057C27.3656 14.5778 27.3324 14.5549 27.2943 14.534C27.2788 14.5254 27.2788 14.5254 27.263 14.5166C27.252 14.5106 27.2411 14.5046 27.2298 14.4984C27.1563 14.4576 27.0829 14.4169 27.0107 14.374C26.9403 14.3322 26.8695 14.2911 26.7986 14.2503C26.7818 14.2406 26.7818 14.2406 26.7647 14.2307C26.7418 14.2175 26.7188 14.2043 26.6959 14.1911C26.6407 14.1593 26.5855 14.1274 26.5303 14.0956C26.5084 14.083 26.4865 14.0703 26.4646 14.0577C26.3333 13.982 26.202 13.9062 26.0707 13.8304C26.0599 13.8242 26.049 13.8179 26.0378 13.8115C26.016 13.7989 25.9943 13.7863 25.9725 13.7738C25.9164 13.7414 25.8603 13.7091 25.8042 13.6768C25.6887 13.6104 25.5734 13.5437 25.4596 13.4744C25.4523 13.4786 25.445 13.4828 25.4375 13.4871C25.3687 13.5266 25.2996 13.5656 25.2302 13.6043C25.1426 13.6531 25.0552 13.7023 24.9687 13.7529C24.9481 13.7649 24.9275 13.7769 24.9068 13.7888C24.8639 13.8136 24.8216 13.8386 24.7809 13.867C24.7716 13.8732 24.7716 13.8732 24.7621 13.8795C24.7465 13.89 24.7313 13.901 24.7161 13.912C24.6565 13.9239 24.6112 13.8877 24.5606 13.8582C24.5513 13.853 24.542 13.8477 24.5324 13.8423C24.5041 13.8262 24.4762 13.8098 24.4482 13.7932C24.4269 13.7807 24.4056 13.7682 24.3843 13.7556C24.3734 13.7492 24.3625 13.7428 24.3513 13.7362C24.2971 13.7044 24.2426 13.6731 24.1881 13.6417C24.1718 13.6323 24.1718 13.6323 24.1551 13.6227C24.133 13.6099 24.1108 13.5971 24.0887 13.5844C24.0339 13.5528 23.9791 13.5212 23.9242 13.4895C23.9024 13.4769 23.8805 13.4643 23.8586 13.4517C23.4647 13.2244 23.4647 13.2244 23.4318 13.2054C23.4101 13.1929 23.3883 13.1804 23.3666 13.1678C23.3156 13.1384 23.2645 13.1089 23.2135 13.0795C23.1955 13.0691 23.1774 13.0586 23.1593 13.0482C23.1366 13.0351 23.114 13.022 23.0913 13.009C23.081 13.003 23.0708 12.9971 23.0602 12.991C23.0512 12.9858 23.0423 12.9807 23.033 12.9753C23.0002 12.9564 22.9673 12.9376 22.9344 12.9188C22.9344 12.2488 22.9344 11.5788 22.9344 10.8886C23.0277 10.8352 23.121 10.7819 23.2172 10.7269C23.3082 10.6739 23.3082 10.6739 23.3992 10.6208C23.4955 10.5645 23.5923 10.5088 23.6891 10.4531C23.7439 10.4215 23.7987 10.3899 23.8535 10.3583C23.8754 10.3456 23.8973 10.333 23.9192 10.3204C23.93 10.3141 23.9409 10.3079 23.952 10.3014C24.0505 10.2446 24.0505 10.2446 24.0834 10.2257C24.1052 10.2131 24.127 10.2005 24.1488 10.1879C24.2048 10.1556 24.2609 10.1232 24.317 10.091C24.3285 10.0844 24.3399 10.0778 24.3517 10.071C24.3741 10.0581 24.3965 10.0453 24.419 10.0324C24.4659 10.0054 24.5126 9.9783 24.5581 9.94904C24.5686 9.94241 24.5686 9.94241 24.5792 9.93564C24.5969 9.92432 24.6143 9.91275 24.6318 9.90114C24.6708 9.88467 24.6836 9.89327 24.7222 9.90876C24.7405 9.91818 24.7586 9.92814 24.7764 9.93855C24.7867 9.94454 24.797 9.95053 24.8076 9.9567C24.8186 9.96317 24.8296 9.96964 24.8409 9.97631C24.8526 9.98313 24.8643 9.98994 24.876 9.99675C24.9003 10.0109 24.9245 10.025 24.9488 10.0392C25.0044 10.0717 25.0603 10.1039 25.1162 10.136C25.138 10.1487 25.1599 10.1613 25.1818 10.1739C25.1981 10.1833 25.1981 10.1833 25.2146 10.1928C25.4226 10.3128 25.6305 10.4327 25.8384 10.5527C25.8492 10.559 25.8601 10.5652 25.8712 10.5717C25.893 10.5842 25.9148 10.5968 25.9366 10.6093C25.9871 10.6385 26.0376 10.6677 26.0882 10.6968C26.1059 10.707 26.1236 10.7172 26.1412 10.7274C26.1633 10.7401 26.1853 10.7528 26.2073 10.7655C26.2269 10.7768 26.2465 10.7883 26.2659 10.8C26.2972 10.8185 26.2972 10.8185 26.33 10.8296C26.3674 10.8452 26.3911 10.859 26.4192 10.8886C26.4382 10.9432 26.4331 11.0037 26.4311 11.0607C26.43 11.0904 26.4297 11.12 26.4295 11.1497C26.4291 11.2127 26.4276 11.2757 26.4261 11.3387C26.4245 11.4117 26.4233 11.4848 26.4228 11.5578C26.4225 11.587 26.4215 11.6162 26.4205 11.6454C26.4154 11.7342 26.4154 11.7342 26.4486 11.8125C26.4722 11.8286 26.4934 11.8385 26.5202 11.8481C26.5337 11.8556 26.5471 11.8632 26.5603 11.8712C26.5741 11.8787 26.5878 11.8862 26.6016 11.8936C26.6741 11.9333 26.7457 11.9743 26.8169 12.0161C26.9062 12.0684 26.9959 12.1201 27.0858 12.1714C27.184 12.2273 27.2819 12.2838 27.3794 12.3409C27.4857 12.4031 27.5924 12.4645 27.6992 12.526C27.7648 12.5638 27.8304 12.6017 27.8961 12.6396C27.9468 12.6689 27.9975 12.6981 28.0483 12.7274C28.0661 12.7376 28.084 12.7479 28.1018 12.7582C28.1241 12.771 28.1464 12.7838 28.1687 12.7966C28.2259 12.8296 28.2826 12.8631 28.3388 12.8979C28.3578 12.9103 28.3578 12.9103 28.3788 12.9087C28.3839 12.5108 28.3878 12.1128 28.3901 11.7149C28.3904 11.6678 28.3907 11.6208 28.391 11.5738C28.391 11.5644 28.3911 11.5551 28.3911 11.5454C28.3921 11.394 28.3939 11.2426 28.3959 11.0912C28.398 10.9357 28.3992 10.7803 28.3997 10.6248C28.4 10.529 28.4009 10.4331 28.4027 10.3372C28.4039 10.2714 28.4043 10.2057 28.404 10.1398C28.4038 10.1019 28.4041 10.064 28.4053 10.0261C28.4152 9.87471 28.4152 9.87471 28.3569 9.74249C28.3037 9.69981 28.2457 9.67181 28.1826 9.64674C28.1483 9.63265 28.1182 9.61485 28.0866 9.59539C28.067 9.5841 28.0474 9.57281 28.0278 9.56154C28.0055 9.54873 27.9832 9.53592 27.961 9.52311C27.9444 9.51354 27.9444 9.51354 27.9274 9.50378C27.8724 9.47216 27.8175 9.44046 27.7626 9.40876C27.7407 9.39614 27.7188 9.38351 27.6969 9.37088C26.9747 8.95422 26.9747 8.95422 26.2525 8.53756C26.2417 8.53131 26.2308 8.52506 26.2197 8.51862C26.1978 8.506 26.1759 8.49338 26.1541 8.48076C26.0991 8.44905 26.0442 8.41736 25.9892 8.38569C25.8836 8.32486 25.7781 8.26385 25.673 8.20233C25.5853 8.15107 25.4973 8.10046 25.4091 8.05019C25.311 7.99431 25.2133 7.93789 25.1159 7.8809C25.0385 7.83563 24.9609 7.79069 24.8832 7.7459C24.8722 7.73955 24.8612 7.73321 24.8499 7.72668C24.8296 7.715 24.8093 7.70334 24.7891 7.69171C24.7728 7.68232 24.7566 7.67283 24.7405 7.66316C24.6894 7.6327 24.6676 7.63047 24.6164 7.6598ZM19.9458 15.7547C19.9353 15.7608 19.9249 15.7668 19.9141 15.7731C19.9027 15.7797 19.8912 15.7863 19.8795 15.7932C19.8675 15.8001 19.8556 15.807 19.8437 15.8139C19.8189 15.8283 19.7941 15.8426 19.7693 15.857C19.7132 15.8895 19.6571 15.9218 19.601 15.9542C19.5792 15.9668 19.5573 15.9794 19.5354 15.992C17.8283 16.9769 17.8283 16.9769 17.7955 16.9958C17.7736 17.0084 17.7518 17.0211 17.7299 17.0337C17.6749 17.0654 17.62 17.0971 17.565 17.1288C17.4594 17.1896 17.354 17.2506 17.2488 17.3121C17.1552 17.3669 17.0611 17.4208 16.9668 17.4746C16.8748 17.527 16.7832 17.58 16.6918 17.6335C16.6377 17.6652 16.5834 17.6967 16.529 17.7279C16.52 17.7331 16.52 17.7331 16.5108 17.7384C16.4816 17.7552 16.4523 17.7719 16.423 17.7887C16.4126 17.7947 16.4021 17.8007 16.3913 17.8069C16.3821 17.8122 16.3728 17.8174 16.3633 17.8229C16.3551 17.8279 16.3469 17.8329 16.3384 17.838C16.3278 17.8438 16.3278 17.8438 16.317 17.8497C16.295 17.8676 16.295 17.8676 16.2929 17.8993C16.2929 17.9122 16.2928 17.9251 16.2928 17.9384C16.2927 17.9456 16.2927 17.9529 16.2926 17.9603C16.2924 17.9846 16.2925 18.009 16.2926 18.0334C16.2925 18.0509 16.2924 18.0685 16.2923 18.0861C16.292 18.1345 16.292 18.1829 16.292 18.2313C16.292 18.2835 16.2918 18.3356 16.2916 18.3878C16.2912 18.49 16.291 18.5923 16.291 18.6945C16.2909 18.7776 16.2908 18.8607 16.2907 18.9438C16.2903 19.1792 16.29 19.4146 16.29 19.65C16.29 19.6626 16.29 19.6753 16.29 19.6884C16.29 19.7011 16.29 19.7139 16.29 19.727C16.29 19.9331 16.2895 20.1392 16.2888 20.3453C16.2882 20.5567 16.2878 20.7682 16.2878 20.9796C16.2878 21.0984 16.2877 21.2172 16.2872 21.336C16.2868 21.4371 16.2866 21.5383 16.2869 21.6394C16.2871 21.691 16.2871 21.7426 16.2867 21.7943C16.2863 21.8415 16.2863 21.8887 16.2867 21.936C16.2868 21.9531 16.2867 21.9702 16.2865 21.9873C16.282 22.0766 16.282 22.0766 16.318 22.1541C16.3412 22.1699 16.363 22.1811 16.3889 22.1915C16.4027 22.1998 16.4027 22.1998 16.4167 22.2082C16.4283 22.2146 16.4283 22.2146 16.4401 22.2212C16.4491 22.2262 16.458 22.2312 16.4672 22.2363C16.4766 22.2415 16.486 22.2467 16.4956 22.2521C16.5773 22.2979 16.6586 22.3443 16.7393 22.3916C16.8276 22.4433 16.9162 22.4944 17.0051 22.545C17.1033 22.601 17.2012 22.6575 17.2987 22.7146C17.405 22.7767 17.5117 22.8382 17.6184 22.8997C17.6732 22.9313 17.7281 22.9629 17.7829 22.9945C17.8048 23.0072 17.8266 23.0198 17.8485 23.0324C18.33 23.3102 18.8115 23.588 19.293 23.8657C19.3038 23.872 19.3146 23.8782 19.3258 23.8847C19.3477 23.8973 19.3695 23.9099 19.3914 23.9225C19.4464 23.9542 19.5013 23.9859 19.5563 24.0176C19.5673 24.0239 19.5782 24.0302 19.5895 24.0367C19.6113 24.0493 19.6332 24.0619 19.6552 24.0743C19.7108 24.106 19.7652 24.1388 19.8187 24.174C19.8294 24.1808 19.8402 24.1877 19.8512 24.1947C19.8716 24.2078 19.8917 24.2212 19.9115 24.235C19.9399 24.253 19.9621 24.2652 19.995 24.2723C20.0408 24.2605 20.0768 24.2374 20.1162 24.2117C20.1347 24.2011 20.1532 24.1906 20.1718 24.1802C20.1908 24.169 20.2097 24.1579 20.2286 24.1467C20.2499 24.1341 20.2712 24.1216 20.2925 24.1091C20.3034 24.1027 20.3143 24.0963 20.3255 24.0897C20.3797 24.0579 20.4342 24.0265 20.4887 23.9951C20.4996 23.9889 20.5105 23.9826 20.5217 23.9761C20.5438 23.9634 20.566 23.9506 20.5881 23.9379C20.6429 23.9063 20.6977 23.8746 20.7526 23.843C20.7744 23.8304 20.7963 23.8178 20.8182 23.8051C20.8345 23.7957 20.8345 23.7957 20.851 23.7862C22 23.1233 22 23.1233 22.0329 23.1044C22.0547 23.0918 22.0766 23.0791 22.0985 23.0665C22.1534 23.0348 22.2084 23.0031 22.2634 22.9714C22.3689 22.9106 22.4744 22.8496 22.5796 22.7881C22.6732 22.7333 22.7673 22.6794 22.8615 22.6256C22.9536 22.5731 23.0454 22.52 23.1369 22.4665C23.2113 22.423 23.2859 22.3798 23.3605 22.3367C23.3703 22.331 23.3801 22.3254 23.3902 22.3195C23.494 22.2597 23.598 22.2004 23.702 22.141C23.702 20.7277 23.702 19.3143 23.702 17.8582C23.577 17.7882 23.577 17.7882 23.4495 17.7168C23.3643 17.6669 23.3643 17.6669 23.3236 17.6428C23.2667 17.6091 23.2094 17.5762 23.1522 17.5432C23.1354 17.5335 23.1354 17.5335 23.1183 17.5236C23.0953 17.5104 23.0724 17.4972 23.0495 17.484C22.9942 17.4522 22.939 17.4204 22.8839 17.3885C22.862 17.3759 22.8401 17.3633 22.8182 17.3506C22.7744 17.3254 22.7307 17.3001 22.6869 17.2749C22.676 17.2686 22.6652 17.2624 22.6541 17.2559C22.6322 17.2433 22.6103 17.2307 22.5884 17.2181C22.5335 17.1864 22.4785 17.1547 22.4235 17.123C22.318 17.0622 22.2125 17.0012 22.1073 16.9396C22.0197 16.8884 21.9317 16.8378 21.8435 16.7875C21.7453 16.7315 21.6474 16.675 21.5499 16.618C21.4436 16.5558 21.3369 16.4943 21.2301 16.4329C21.1753 16.4013 21.1205 16.3696 21.0657 16.338C21.0438 16.3254 21.0219 16.3128 21 16.3001C20.6061 16.0729 20.6061 16.0729 20.5732 16.0539C20.5514 16.0413 20.5297 16.0288 20.5079 16.0162C20.4516 15.9838 20.3954 15.9513 20.3392 15.9189C20.2844 15.8872 20.2295 15.8556 20.1747 15.824C20.157 15.8137 20.1392 15.8035 20.1215 15.7933C20.101 15.7814 20.0805 15.7696 20.06 15.7578C20.0494 15.7517 20.0387 15.7456 20.0278 15.7392C19.9908 15.7191 19.9817 15.7339 19.9458 15.7547ZM29.3222 15.7342C29.3135 15.7394 29.3048 15.7446 29.2958 15.7499C29.2859 15.7557 29.2759 15.7614 29.2657 15.7673C29.2498 15.777 29.2498 15.777 29.2336 15.7869C29.2224 15.7934 29.2112 15.7999 29.1998 15.8066C29.1765 15.8203 29.1532 15.834 29.1301 15.8479C29.0984 15.8668 29.0666 15.8855 29.0347 15.904C28.9947 15.9271 28.9548 15.9504 28.915 15.9737C28.8513 16.0111 28.7874 16.048 28.7235 16.0849C28.7071 16.0943 28.7071 16.0943 28.6904 16.1039C28.6683 16.1167 28.6462 16.1294 28.624 16.1421C28.5692 16.1737 28.5144 16.2054 28.4596 16.237C28.4377 16.2496 28.4158 16.2622 28.3939 16.2749C28.3831 16.2811 28.3722 16.2874 28.3611 16.2938C28.2626 16.3506 28.2626 16.3506 28.2298 16.3696C28.2079 16.3822 28.186 16.3948 28.1642 16.4074C28.1092 16.4391 28.0542 16.4708 27.9993 16.5025C27.8937 16.5633 27.7882 16.6243 27.6831 16.6859C27.5894 16.7406 27.4953 16.7946 27.4011 16.8483C27.3089 16.9008 27.2171 16.954 27.1256 17.0075C27.0193 17.0697 26.9126 17.1312 26.8059 17.1926C26.751 17.2242 26.6962 17.2559 26.6414 17.2875C26.6195 17.3001 26.5976 17.3127 26.5757 17.3254C26.5595 17.3347 26.5595 17.3347 26.5429 17.3443C26.4225 17.4138 26.3022 17.4832 26.1818 17.5526C26.1655 17.562 26.1655 17.562 26.1489 17.5716C26.1272 17.5841 26.1055 17.5967 26.0837 17.6092C26.0327 17.6387 25.9817 17.6681 25.9307 17.6975C25.9126 17.708 25.8945 17.7184 25.8765 17.7288C25.8538 17.7419 25.8311 17.755 25.8084 17.7681C25.7982 17.774 25.7879 17.7799 25.7773 17.786C25.7684 17.7912 25.7594 17.7964 25.7502 17.8017C25.7173 17.8206 25.6844 17.8394 25.6515 17.8582C25.6515 19.2715 25.6515 20.6848 25.6515 22.141C25.7448 22.1943 25.8382 22.2477 25.9343 22.3026C26.0111 22.3468 26.0878 22.391 26.1645 22.4353C26.219 22.4669 26.2737 22.4984 26.3283 22.5299C26.3502 22.5425 26.372 22.5551 26.3939 22.5678C26.4048 22.574 26.4156 22.5803 26.4268 22.5867C26.7222 22.7572 27.0177 22.9276 27.3131 23.0981C27.3239 23.1043 27.3348 23.1106 27.3459 23.117C27.3678 23.1296 27.3897 23.1422 27.4116 23.1549C27.4665 23.1866 27.5215 23.2183 27.5764 23.2499C27.682 23.3108 27.7875 23.3718 27.8927 23.4333C27.9775 23.4829 28.0626 23.5321 28.1479 23.581C28.1602 23.5881 28.1725 23.5951 28.1849 23.6022C28.2021 23.6121 28.2194 23.622 28.2367 23.6319C28.2466 23.6376 28.2565 23.6432 28.2667 23.6491C28.291 23.6624 28.3154 23.6751 28.3403 23.6875C28.3475 23.6911 28.3547 23.6947 28.3622 23.6984C28.3677 23.7011 28.3731 23.7038 28.3788 23.7066C28.3809 23.4153 28.3825 23.124 28.3835 22.8327C28.3836 22.8057 28.3837 22.7788 28.3838 22.7519C28.3838 22.7452 28.3838 22.7385 28.3838 22.7316C28.3842 22.63 28.3848 22.5285 28.3856 22.4269C28.3865 22.309 28.3871 22.1911 28.3873 22.0732C28.3874 22.0108 28.3877 21.9484 28.3884 21.8859C28.389 21.8272 28.3892 21.7684 28.389 21.7097C28.3891 21.6881 28.3892 21.6665 28.3896 21.645C28.3965 21.536 28.3965 21.536 28.3592 21.4385C28.3356 21.4224 28.3148 21.4129 28.2879 21.4036C28.2743 21.3962 28.2609 21.3885 28.2477 21.3806C28.234 21.3731 28.2202 21.3656 28.2064 21.3582C28.1332 21.318 28.0607 21.2766 27.9886 21.2344C27.9735 21.2256 27.9735 21.2256 27.9581 21.2166C27.9037 21.1848 27.8493 21.1528 27.795 21.1207C27.7838 21.1142 27.7727 21.1076 27.7612 21.1009C27.7398 21.0883 27.7183 21.0756 27.6968 21.0629C27.6872 21.0572 27.6776 21.0516 27.6677 21.0458C27.6549 21.0382 27.6549 21.0382 27.6419 21.0305C27.6221 21.0182 27.6221 21.0182 27.601 21.0198C27.601 20.3465 27.601 19.6731 27.601 18.9794C27.6177 18.9727 27.6343 18.9661 27.6515 18.9592C27.6697 18.9497 27.6877 18.9399 27.7056 18.9298C27.716 18.9241 27.7263 18.9183 27.737 18.9123C27.7479 18.9061 27.7589 18.8999 27.7702 18.8935C27.7816 18.8871 27.7929 18.8807 27.8047 18.8741C27.8733 18.8355 27.9415 18.7962 28.0092 18.7561C28.073 18.7183 28.1371 18.6812 28.2014 18.6442C28.2125 18.6377 28.2237 18.6313 28.2353 18.6246C28.2582 18.6114 28.2811 18.5982 28.3041 18.585C28.3593 18.5532 28.4145 18.5214 28.4697 18.4895C28.4916 18.4769 28.5134 18.4643 28.5353 18.4516C28.5462 18.4454 28.557 18.4391 28.5682 18.4327C28.601 18.4137 28.6338 18.3948 28.6666 18.3759C28.6775 18.3696 28.6883 18.3634 28.6995 18.3569C28.7213 18.3443 28.7432 18.3317 28.765 18.3191C28.8316 18.2807 28.8982 18.2423 28.9647 18.2038C28.9867 18.1911 29.0088 18.1784 29.0308 18.1658C29.0835 18.1355 29.136 18.105 29.1881 18.0739C29.1978 18.0682 29.2075 18.0625 29.2175 18.0566C29.2357 18.0458 29.2538 18.035 29.2719 18.024C29.2839 18.0169 29.2839 18.0169 29.2963 18.0097C29.3067 18.0035 29.3067 18.0035 29.3173 17.9971C29.3454 17.987 29.3605 17.9908 29.3889 17.9996C29.4127 18.0113 29.4127 18.0113 29.4376 18.0262C29.447 18.0318 29.4564 18.0373 29.4661 18.0431C29.4763 18.0491 29.4864 18.0552 29.4968 18.0615C29.5188 18.0745 29.5407 18.0874 29.5627 18.1004C29.574 18.1071 29.5853 18.1139 29.597 18.1208C29.6516 18.153 29.7064 18.1846 29.7613 18.2161C29.7834 18.2289 29.8055 18.2416 29.8275 18.2543C29.844 18.2638 29.844 18.2638 29.8608 18.2734C29.9156 18.305 29.9704 18.3367 30.0252 18.3683C30.0471 18.3809 30.069 18.3935 30.0909 18.4062C30.2222 18.4819 30.3535 18.5577 30.4848 18.6334C30.4957 18.6397 30.5065 18.646 30.5177 18.6524C30.5395 18.665 30.5613 18.6776 30.583 18.6901C30.6391 18.7225 30.6952 18.7548 30.7513 18.7871C30.7628 18.7937 30.7743 18.8003 30.7862 18.8072C30.8078 18.8196 30.8294 18.832 30.8511 18.8444C30.8708 18.8558 30.8904 18.8673 30.9099 18.8791C30.9345 18.893 30.9572 18.9043 30.983 18.9152C31.0824 18.9604 31.0824 18.9604 31.1048 19.0086C31.1194 19.066 31.1168 19.1249 31.1158 19.1837C31.1161 19.2034 31.1164 19.2232 31.1167 19.2429C31.1175 19.2964 31.1173 19.3498 31.1169 19.4033C31.1167 19.448 31.1169 19.4927 31.1172 19.5374C31.1177 19.6429 31.1175 19.7484 31.1168 19.8539C31.1161 19.9626 31.1165 20.0713 31.1175 20.18C31.1184 20.2735 31.1186 20.3669 31.1182 20.4604C31.118 20.5162 31.1181 20.5719 31.1187 20.6277C31.1193 20.6801 31.119 20.7325 31.1181 20.785C31.1179 20.8042 31.118 20.8234 31.1184 20.8426C31.1208 20.9607 31.1208 20.9607 31.0959 21.0097C31.054 21.0532 31 21.0777 30.9452 21.1013C30.915 21.1148 30.8875 21.1313 30.8592 21.1484C30.839 21.16 30.8188 21.1717 30.7986 21.1833C30.7761 21.1962 30.7536 21.2092 30.7312 21.2221C30.7198 21.2287 30.7084 21.2352 30.6967 21.242C30.6607 21.2627 30.6248 21.2834 30.5888 21.3042C30.5829 21.3076 30.5769 21.3111 30.5708 21.3146C30.5423 21.3311 30.5137 21.3475 30.4852 21.364C30.4749 21.3699 30.4647 21.3759 30.4541 21.382C30.4406 21.3897 30.4406 21.3897 30.4269 21.3976C30.3941 21.4165 30.3612 21.4353 30.3282 21.4541C30.3282 22.1975 30.3282 22.9408 30.3282 23.7066C30.4857 23.6208 30.6429 23.5344 30.7971 23.4429C30.8608 23.4051 30.925 23.368 30.9892 23.331C31.0004 23.3246 31.0116 23.3181 31.0231 23.3115C31.0461 23.2983 31.069 23.2851 31.0919 23.2719C31.1471 23.24 31.2023 23.2082 31.2575 23.1763C31.2794 23.1637 31.3013 23.1511 31.3232 23.1385C31.3394 23.1291 31.3394 23.1291 31.356 23.1195C31.9797 22.7597 31.9797 22.7597 32.0126 22.7407C32.0344 22.7281 32.0563 22.7155 32.0782 22.7029C32.1331 22.6712 32.1881 22.6395 32.2431 22.6078C32.3585 22.5413 32.4738 22.4745 32.5887 22.4072C32.6445 22.3746 32.7004 22.3424 32.7566 22.3105C32.7661 22.3051 32.7661 22.3051 32.7758 22.2995C32.8066 22.282 32.8375 22.2645 32.8684 22.2471C32.8796 22.2407 32.8908 22.2344 32.9024 22.2278C32.9122 22.2222 32.922 22.2167 32.9322 22.211C32.9429 22.2045 32.9536 22.1981 32.9646 22.1915C32.9721 22.1885 32.9795 22.1854 32.9872 22.1823C33.0163 22.1681 33.0343 22.1555 33.0555 22.1309C33.0697 22.075 33.0678 22.0196 33.067 21.9622C33.0671 21.9446 33.0673 21.927 33.0675 21.9094C33.0679 21.8611 33.0677 21.8127 33.0674 21.7644C33.0672 21.7122 33.0675 21.6601 33.0677 21.608C33.0681 21.5058 33.0681 21.4037 33.0678 21.3015C33.0676 21.2185 33.0676 21.1356 33.0677 21.0526C33.0677 21.0407 33.0677 21.0289 33.0677 21.0168C33.0677 20.9928 33.0678 20.9688 33.0678 20.9448C33.0681 20.7199 33.0678 20.4949 33.0673 20.27C33.0669 20.0769 33.0669 19.8838 33.0673 19.6907C33.0678 19.4666 33.068 19.2425 33.0677 19.0183C33.0677 18.9944 33.0677 18.9705 33.0677 18.9466C33.0676 18.929 33.0676 18.929 33.0676 18.911C33.0675 18.8281 33.0677 18.7452 33.0679 18.6623C33.0681 18.5612 33.0681 18.4602 33.0676 18.3592C33.0673 18.3076 33.0673 18.2561 33.0676 18.2045C33.0678 18.1573 33.0677 18.1102 33.0672 18.063C33.0671 18.0459 33.0671 18.0288 33.0674 18.0117C33.0716 17.9225 33.0716 17.9225 33.0356 17.8451C33.0124 17.8294 32.9905 17.8182 32.9646 17.8077C32.9494 17.7987 32.9494 17.7987 32.9338 17.7894C32.9248 17.7845 32.9158 17.7795 32.9065 17.7744C32.8963 17.7687 32.8861 17.7631 32.8756 17.7572C32.8649 17.7514 32.8543 17.7455 32.8434 17.7395C32.7708 17.6992 32.6983 17.6588 32.6268 17.6164C32.5564 17.5746 32.4857 17.5335 32.4147 17.4927C32.3979 17.483 32.3979 17.483 32.3808 17.4731C32.3579 17.4599 32.335 17.4467 32.312 17.4335C32.2568 17.4017 32.2016 17.3698 32.1464 17.338C32.1245 17.3254 32.1026 17.3127 32.0808 17.3001C31.6212 17.035 31.6212 17.035 31.1616 16.7698C31.1507 16.7636 31.1399 16.7573 31.1287 16.7509C31.1069 16.7383 31.085 16.7256 31.0631 16.713C31.0082 16.6813 30.9532 16.6496 30.8982 16.618C30.7927 16.5571 30.6872 16.4961 30.582 16.4346C30.4944 16.3833 30.4064 16.3327 30.3181 16.2825C30.2199 16.2265 30.1221 16.17 30.0245 16.1129C29.9295 16.0574 29.8342 16.0024 29.7388 15.9474C29.6983 15.924 29.6577 15.9006 29.6172 15.8772C29.5931 15.8632 29.5691 15.8493 29.5451 15.8354C29.5282 15.8256 29.5113 15.8158 29.4944 15.806C29.4841 15.8001 29.4738 15.7941 29.4632 15.788C29.4542 15.7828 29.4452 15.7775 29.4359 15.7721C29.427 15.7672 29.4182 15.7623 29.4091 15.7572C29.399 15.7511 29.389 15.745 29.3787 15.7387C29.3494 15.7238 29.3494 15.7238 29.3222 15.7342ZM9.61595 16.3182C9.60168 16.3266 9.60168 16.3266 9.58712 16.3351C9.57674 16.3413 9.56636 16.3474 9.55567 16.3538C9.53344 16.3669 9.51121 16.3799 9.48898 16.393C9.48036 16.3981 9.48036 16.3981 9.47157 16.4033C9.41101 16.4389 9.35015 16.474 9.28925 16.5091C9.27291 16.5185 9.27291 16.5185 9.25625 16.5281C9.23411 16.5409 9.21197 16.5536 9.18983 16.5664C9.13499 16.598 9.08018 16.6296 9.02537 16.6612C8.95948 16.6993 8.8936 16.7373 8.82769 16.7752C8.72211 16.8361 8.61665 16.8971 8.51148 16.9586C8.41784 17.0133 8.32377 17.0673 8.22953 17.121C8.13736 17.1736 8.04556 17.2267 7.95399 17.2803C7.84769 17.3424 7.74099 17.4039 7.63429 17.4654C7.57945 17.497 7.52464 17.5286 7.46982 17.5602C7.40844 17.5956 7.34705 17.6311 7.28565 17.6665C7.26797 17.6766 7.25029 17.6868 7.23261 17.697C7.21059 17.7097 7.18857 17.7224 7.16656 17.7351C7.14693 17.7464 7.12739 17.7579 7.10796 17.7696C7.07588 17.7875 7.07588 17.7875 7.04402 17.8003C7.00831 17.8162 6.98284 17.831 6.95467 17.8582C6.93646 17.915 6.93879 17.9702 6.9401 18.0293C6.94004 18.047 6.93994 18.0647 6.93978 18.0825C6.93951 18.1312 6.94 18.1798 6.94061 18.2285C6.94113 18.281 6.94095 18.3335 6.94086 18.386C6.9408 18.4769 6.94118 18.5679 6.94186 18.6588C6.94284 18.7903 6.94316 18.9218 6.94331 19.0533C6.94358 19.2667 6.94438 19.48 6.94553 19.6933C6.94664 19.9006 6.9475 20.1078 6.94802 20.3151C6.94805 20.3278 6.94808 20.3406 6.94811 20.3538C6.94827 20.4179 6.94842 20.4819 6.94857 20.546C6.94983 21.0777 6.95197 21.6093 6.95467 22.141C6.9626 22.1455 6.97053 22.15 6.97869 22.1547C7.00873 22.1718 7.03875 22.189 7.06878 22.2061C7.08166 22.2135 7.09454 22.2208 7.10742 22.2282C7.19185 22.2764 7.27607 22.3249 7.35997 22.3739C7.37032 22.38 7.38067 22.3861 7.39133 22.3923C7.40062 22.3977 7.40991 22.4032 7.41947 22.4087C7.51586 22.4651 7.61265 22.5207 7.70939 22.5764C7.76423 22.608 7.81904 22.6397 7.87386 22.6713C7.89574 22.6839 7.91763 22.6965 7.93951 22.7092C8.50853 23.0375 9.07755 23.3657 9.64657 23.694C9.65741 23.7003 9.66824 23.7065 9.67941 23.713C9.70128 23.7256 9.72314 23.7382 9.74501 23.7508C9.79997 23.7825 9.85493 23.8142 9.90991 23.8459C10.0056 23.901 10.1012 23.9562 10.1964 24.0119C10.2362 24.0351 10.276 24.0583 10.3158 24.0815C10.3392 24.0951 10.3626 24.1088 10.386 24.1225C10.4185 24.1415 10.451 24.1603 10.4836 24.1792C10.4962 24.1865 10.5088 24.1938 10.5214 24.2012C10.5389 24.2115 10.5565 24.2217 10.5741 24.2318C10.5893 24.2406 10.5893 24.2406 10.6047 24.2496C10.6326 24.2651 10.6326 24.2651 10.6718 24.2622C10.6987 24.2491 10.7242 24.2355 10.7501 24.2205C10.758 24.216 10.7659 24.2115 10.7741 24.2069C10.8605 24.1577 10.9463 24.1074 11.0321 24.0572C11.0966 24.0194 11.1613 23.982 11.2261 23.9446C11.237 23.9384 11.2479 23.9321 11.2592 23.9256C11.2813 23.9129 11.3034 23.9001 11.3255 23.8874C11.3804 23.8558 11.4352 23.8241 11.49 23.7925C11.5119 23.7799 11.5338 23.7672 11.5557 23.7546C11.5719 23.7452 11.5719 23.7452 11.5885 23.7357C13.5253 22.6183 13.5253 22.6183 13.5582 22.5993C13.58 22.5867 13.6019 22.5741 13.6238 22.5615C13.6787 22.5298 13.7337 22.4981 13.7887 22.4664C13.994 22.3492 13.994 22.3492 14.1973 22.2286C14.2273 22.2117 14.2273 22.2117 14.2588 22.1991C14.2946 22.1832 14.3202 22.1683 14.3486 22.141C14.3668 22.0842 14.3644 22.029 14.3631 21.9699C14.3632 21.9522 14.3633 21.9344 14.3634 21.9167C14.3637 21.868 14.3632 21.8194 14.3626 21.7707C14.3621 21.7182 14.3623 21.6657 14.3624 21.6132C14.3624 21.5223 14.3621 21.4313 14.3614 21.3404C14.3604 21.2089 14.3601 21.0774 14.3599 20.9459C14.3597 20.7325 14.3589 20.5192 14.3577 20.3059C14.3566 20.0986 14.3557 19.8914 14.3552 19.6841C14.3552 19.665 14.3552 19.665 14.3551 19.6454C14.355 19.5813 14.3548 19.5172 14.3547 19.4532C14.3534 18.9215 14.3513 18.3899 14.3486 17.8582C14.3413 17.854 14.334 17.8498 14.3265 17.8455C14.0494 17.6856 13.7722 17.5257 13.495 17.3658C13.4842 17.3595 13.4734 17.3533 13.4622 17.3468C13.4403 17.3342 13.4185 17.3216 13.3966 17.309C13.3416 17.2773 13.2867 17.2456 13.2317 17.2139C13.1261 17.1531 13.0207 17.0921 12.9155 17.0306C12.8278 16.9793 12.7398 16.9287 12.6516 16.8784C12.5534 16.8224 12.4556 16.7659 12.358 16.7089C12.2847 16.666 12.2113 16.6235 12.1377 16.5811C12.1269 16.5748 12.1161 16.5686 12.105 16.5622C12.0599 16.5362 12.0148 16.5102 11.9696 16.4842C11.9458 16.4705 11.922 16.4568 11.8982 16.4431C11.876 16.4303 11.8537 16.4175 11.8314 16.4047C11.7742 16.3717 11.7174 16.3382 11.6613 16.3033C11.6423 16.2909 11.6423 16.2909 11.6213 16.2926C11.6178 16.5834 11.6151 16.8741 11.6135 17.165C11.6133 17.1918 11.6131 17.2187 11.613 17.2456C11.6129 17.2523 11.6129 17.259 11.6129 17.2659C11.6122 17.3673 11.6112 17.4687 11.6099 17.57C11.6084 17.6877 11.6074 17.8054 11.6071 17.9231C11.6069 17.9854 11.6064 18.0477 11.6053 18.1101C11.6043 18.1687 11.6039 18.2274 11.6042 18.2861C11.6041 18.3076 11.6038 18.3291 11.6032 18.3506C11.5963 18.4576 11.5963 18.4576 11.636 18.5523C11.6717 18.5818 11.711 18.6007 11.7538 18.6179C11.7828 18.6301 11.809 18.6463 11.8358 18.6626C11.8563 18.6743 11.8767 18.6861 11.8972 18.6978C11.9199 18.7109 11.9426 18.724 11.9653 18.737C11.9827 18.7471 12.0002 18.7571 12.0177 18.7672C12.0593 18.7911 12.101 18.8151 12.1426 18.8391C12.1648 18.8519 12.187 18.8646 12.2091 18.8774C12.2193 18.8833 12.2295 18.8891 12.24 18.8952C12.2488 18.9002 12.2576 18.9053 12.2667 18.9105C12.277 18.9166 12.2874 18.9226 12.2981 18.9289C12.3062 18.9316 12.3144 18.9344 12.3228 18.9372C12.3558 18.9508 12.3751 18.9628 12.3991 18.9895C12.4146 19.0533 12.4118 19.1165 12.4105 19.1818C12.4105 19.2017 12.4105 19.2217 12.4106 19.2416C12.4106 19.2956 12.41 19.3496 12.4093 19.4036C12.4087 19.46 12.4086 19.5165 12.4085 19.573C12.4082 19.6799 12.4074 19.7867 12.4064 19.8936C12.4052 20.0153 12.4047 20.137 12.4042 20.2587C12.4031 20.509 12.4013 20.7594 12.3991 21.0097C12.3881 21.016 12.3881 21.016 12.3769 21.0225C12.3491 21.0385 12.3213 21.0545 12.2935 21.0706C12.2758 21.0808 12.2581 21.091 12.2404 21.1012C12.1656 21.1443 12.091 21.1877 12.0165 21.2313C11.9229 21.286 11.8288 21.34 11.7346 21.3937C11.6424 21.4463 11.5506 21.4994 11.459 21.553C11.3857 21.5958 11.3123 21.6384 11.2387 21.6808C11.2279 21.687 11.217 21.6933 11.2059 21.6997C11.1612 21.7255 11.1165 21.7512 11.0718 21.777C11.0488 21.7902 11.0259 21.8034 11.003 21.8166C10.9807 21.8294 10.9584 21.8423 10.9361 21.855C10.8873 21.8831 10.8386 21.9115 10.7907 21.941C10.7788 21.9482 10.7788 21.9482 10.7667 21.9556C10.7524 21.9644 10.7381 21.9733 10.7239 21.9824C10.6782 22.0103 10.6782 22.0103 10.6477 22.0073C10.6189 21.9989 10.5958 21.9874 10.5697 21.9726C10.5597 21.967 10.5497 21.9614 10.5394 21.9556C10.5287 21.9495 10.5181 21.9434 10.507 21.9371C10.4958 21.9307 10.4846 21.9244 10.4731 21.9179C10.3776 21.8636 10.2827 21.8083 10.1879 21.7527C10.1242 21.7154 10.0603 21.6785 9.99632 21.6416C9.98541 21.6353 9.9745 21.6291 9.96326 21.6226C9.94114 21.6098 9.91902 21.5971 9.8969 21.5843C9.84206 21.5527 9.78725 21.5211 9.73243 21.4895C9.71055 21.4769 9.68866 21.4642 9.66678 21.4516C9.623 21.4264 9.57923 21.4011 9.53546 21.3758C9.52462 21.3696 9.51378 21.3633 9.50261 21.3569C9.48081 21.3443 9.45902 21.3317 9.43722 21.3192C9.38115 21.2868 9.32506 21.2545 9.26893 21.2222C9.24603 21.209 9.22313 21.1958 9.20024 21.1827C9.18382 21.1732 9.18382 21.1732 9.16707 21.1636C9.09972 21.1247 9.0327 21.0854 8.96663 21.0444C8.93755 21.0254 8.93755 21.0254 8.90415 21.0198C8.90415 20.3465 8.90415 19.6731 8.90415 18.9794C8.92082 18.9727 8.93749 18.9661 8.95466 18.9592C8.97402 18.9488 8.99319 18.9381 9.01223 18.9272C9.02348 18.9208 9.03473 18.9143 9.04632 18.9077C9.05849 18.9006 9.07065 18.8936 9.08281 18.8866C9.09544 18.8793 9.10807 18.8721 9.12071 18.8648C9.15328 18.8461 9.18583 18.8274 9.21837 18.8086C9.2484 18.7913 9.27846 18.774 9.30851 18.7567C9.40644 18.7004 9.50428 18.6439 9.60175 18.5867C9.60885 18.5826 9.61595 18.5784 9.62326 18.5741C9.65438 18.557 9.65438 18.557 9.68193 18.535C9.68292 18.5061 9.68324 18.4775 9.68314 18.4486C9.68315 18.4395 9.68316 18.4303 9.68317 18.4208C9.68318 18.3899 9.68313 18.3589 9.68307 18.328C9.68307 18.3059 9.68307 18.2838 9.68308 18.2617C9.68308 18.2015 9.68302 18.1413 9.68295 18.0811C9.68289 18.0183 9.68288 17.9555 9.68287 17.8927C9.68284 17.7872 9.68278 17.6816 9.68269 17.5761C9.6826 17.4674 9.68252 17.3588 9.68248 17.2501C9.68248 17.2434 9.68248 17.2367 9.68247 17.2298C9.68246 17.1962 9.68245 17.1626 9.68244 17.129C9.68233 16.8502 9.68215 16.5714 9.68193 16.2926C9.65407 16.2926 9.63993 16.304 9.61595 16.3182ZM15.2696 23.8538C15.2595 23.8595 15.2494 23.8651 15.239 23.8709C15.2226 23.8802 15.2226 23.8802 15.2059 23.8897C15.1945 23.8961 15.1832 23.9025 15.1715 23.9091C15.0754 23.9633 14.98 24.0189 14.8848 24.0747C14.8211 24.112 14.7572 24.1489 14.6933 24.1858C14.6769 24.1952 14.6769 24.1952 14.6602 24.2049C14.6381 24.2176 14.616 24.2303 14.5938 24.2431C14.539 24.2747 14.4842 24.3063 14.4294 24.3379C14.4075 24.3506 14.3856 24.3632 14.3637 24.3758C14.3529 24.3821 14.342 24.3883 14.3309 24.3948C13.1819 25.0576 13.1819 25.0576 13.149 25.0766C13.1273 25.0892 13.1055 25.1017 13.0837 25.1143C13.0332 25.1434 12.9826 25.1726 12.9321 25.2018C12.9144 25.2119 12.8967 25.2221 12.879 25.2323C12.857 25.245 12.835 25.2577 12.813 25.2704C12.7422 25.3112 12.6716 25.3523 12.6011 25.3935C12.6307 25.4166 12.6611 25.4359 12.6937 25.4546C12.704 25.4605 12.7144 25.4665 12.7251 25.4726C12.7362 25.479 12.7474 25.4854 12.7589 25.492C12.7707 25.4987 12.7825 25.5055 12.7943 25.5123C12.8188 25.5263 12.8432 25.5404 12.8677 25.5544C12.9237 25.5865 12.9796 25.6188 13.0354 25.6511C13.0573 25.6637 13.0792 25.6763 13.1011 25.6889C13.5607 25.9541 13.5607 25.9541 14.0203 26.2192C14.0311 26.2255 14.042 26.2318 14.0532 26.2382C14.0749 26.2507 14.0966 26.2633 14.1183 26.2758C14.1695 26.3053 14.2207 26.3349 14.2719 26.3644C14.2961 26.3783 14.3202 26.3922 14.3444 26.4062C14.3614 26.416 14.3784 26.4258 14.3954 26.4356C14.4057 26.4415 14.4161 26.4475 14.4267 26.4536C14.4358 26.4588 14.4449 26.4641 14.4542 26.4695C14.472 26.4798 14.4896 26.4905 14.507 26.5015C14.5293 26.5167 14.5293 26.5167 14.5539 26.5142C14.5916 26.5008 14.6251 26.4822 14.6598 26.4623C14.6677 26.4579 14.6756 26.4534 14.6837 26.4488C14.7588 26.4063 14.8333 26.3626 14.9078 26.319C14.9849 26.2739 15.0622 26.2291 15.1396 26.1846C15.1521 26.1775 15.1646 26.1703 15.1771 26.1631C15.1946 26.153 15.2121 26.143 15.2297 26.1329C15.2397 26.1272 15.2498 26.1214 15.2601 26.1154C15.2861 26.1015 15.3102 26.0889 15.3385 26.0804C15.3652 26.0923 15.3868 26.1043 15.4111 26.1201C15.4265 26.1297 15.4419 26.1392 15.4573 26.1487C15.4657 26.154 15.4742 26.1592 15.4828 26.1646C15.5332 26.1955 15.5846 26.2246 15.6358 26.254C15.6585 26.2671 15.6812 26.2801 15.7039 26.2932C15.7153 26.2998 15.7267 26.3064 15.7385 26.3131C15.7937 26.3449 15.8489 26.3768 15.9041 26.4086C15.926 26.4213 15.9479 26.4339 15.9698 26.4465C16.1011 26.5223 16.2324 26.598 16.3637 26.6738C16.3745 26.68 16.3854 26.6863 16.3965 26.6927C16.4184 26.7054 16.4403 26.718 16.4621 26.7306C16.5171 26.7623 16.5721 26.794 16.627 26.8257C16.6381 26.8321 16.6492 26.8384 16.6606 26.845C16.6811 26.8568 16.7015 26.8686 16.722 26.8803C16.742 26.8919 16.7619 26.904 16.7815 26.9164C16.814 26.9356 16.8462 26.9467 16.8822 26.958C16.9561 26.9851 17.0177 27.0163 17.0657 27.0804C17.1173 27.2066 17.1002 27.3667 17.0983 27.5C17.0977 27.5561 17.0982 27.6122 17.0986 27.6683C17.0991 27.7624 17.0985 27.8565 17.0973 27.9507C17.096 28.0593 17.0964 28.1677 17.0978 28.2763C17.0989 28.3699 17.099 28.4633 17.0984 28.5569C17.098 28.6126 17.0979 28.6683 17.0988 28.724C17.103 29.061 17.103 29.061 17.0415 29.1428C16.9847 29.1925 16.9227 29.2202 16.8513 29.2427C16.8141 29.2551 16.7844 29.2727 16.7514 29.2937C16.732 29.3049 16.7126 29.316 16.6932 29.3272C16.6712 29.3399 16.6491 29.3526 16.627 29.3653C16.6161 29.3717 16.6051 29.378 16.5938 29.3845C16.539 29.4161 16.4842 29.4477 16.4294 29.4793C16.4075 29.492 16.3856 29.5046 16.3637 29.5172C16.3474 29.5266 16.3474 29.5266 16.3309 29.5361C15.9698 29.7445 15.9698 29.7445 15.9369 29.7634C15.9151 29.776 15.8933 29.7886 15.8715 29.8012C15.8156 29.8334 15.7598 29.8656 15.7039 29.8978C15.6926 29.9043 15.6813 29.9108 15.6696 29.9175C15.6473 29.9304 15.625 29.9432 15.6027 29.956C15.5539 29.984 15.5054 30.0123 15.4577 30.0423C15.4459 30.0496 15.4459 30.0496 15.4338 30.0571C15.4196 30.0659 15.4055 30.075 15.3915 30.0842C15.3625 30.1021 15.3446 30.1114 15.3104 30.1069C15.2622 30.0825 15.2157 30.0556 15.1693 30.0279C15.1474 30.015 15.1255 30.0021 15.1037 29.9893C15.0924 29.9826 15.0811 29.9759 15.0695 29.9691C15.015 29.937 14.9602 29.9054 14.9054 29.8739C14.8833 29.8612 14.8612 29.8485 14.8392 29.8357C14.8282 29.8294 14.8172 29.8231 14.806 29.8166C14.7511 29.785 14.6963 29.7534 14.6415 29.7218C14.6196 29.7091 14.5977 29.6965 14.5758 29.6839C14.1819 29.4566 14.1819 29.4566 14.149 29.4376C14.1272 29.4251 14.1055 29.4125 14.0837 29.3999C14.0333 29.3709 13.9829 29.3418 13.9326 29.3127C13.9151 29.3026 13.8975 29.2925 13.88 29.2824C13.8583 29.2698 13.8365 29.2573 13.8147 29.2447C13.7997 29.236 13.7997 29.236 13.7843 29.2272C13.775 29.2215 13.7656 29.2159 13.756 29.2101C13.7226 29.1906 13.7226 29.1906 13.6859 29.1776C13.5917 29.1375 13.5917 29.1375 13.5729 29.0908C13.5598 29.0292 13.5632 28.9664 13.5649 28.9039C13.5649 28.8836 13.5649 28.8634 13.5648 28.8431C13.5647 28.7899 13.5655 28.7368 13.5665 28.6837C13.5673 28.6294 13.5674 28.5751 13.5675 28.5208C13.5678 28.4143 13.569 28.308 13.5708 28.2016C13.563 28.1972 13.563 28.1972 13.5551 28.1928C13.5313 28.1797 13.5075 28.1665 13.4837 28.1532C13.4714 28.1465 13.4714 28.1465 13.4589 28.1395C13.3968 28.1051 13.3353 28.0697 13.2741 28.0336C13.1848 27.9813 13.0951 27.9296 13.0051 27.8783C12.9069 27.8224 12.8091 27.7659 12.7115 27.7088C12.6052 27.6466 12.4985 27.5852 12.3918 27.5237C12.337 27.4921 12.2822 27.4605 12.2274 27.4288C12.1609 27.3905 12.0944 27.3521 12.0279 27.3138C12.0167 27.3073 12.0055 27.3008 11.9939 27.2942C11.9718 27.2814 11.9496 27.2686 11.9275 27.2559C11.8766 27.2265 11.8257 27.1971 11.775 27.1674C11.766 27.1621 11.7571 27.1569 11.7479 27.1515C11.7313 27.1418 11.7147 27.132 11.6982 27.1222C11.6621 27.0988 11.6621 27.0988 11.6213 27.0905C11.6158 27.4882 11.6115 27.886 11.6089 28.2838C11.6086 28.3308 11.6083 28.3778 11.608 28.4248C11.6079 28.4342 11.6079 28.4436 11.6078 28.4532C11.6067 28.6045 11.6048 28.7559 11.6026 28.9072C11.6003 29.0626 11.599 29.218 11.5985 29.3734C11.5982 29.4692 11.5971 29.565 11.5951 29.6609C11.5939 29.7267 11.5935 29.7924 11.5938 29.8582C11.5939 29.8962 11.5937 29.934 11.5924 29.9719C11.5827 30.1253 11.5827 30.1253 11.6453 30.2577C11.7037 30.3031 11.7673 30.3338 11.8356 30.3615C11.8713 30.3764 11.9028 30.3947 11.9356 30.4149C11.955 30.4261 11.9744 30.4372 11.9938 30.4484C12.0158 30.4611 12.0379 30.4738 12.06 30.4865C12.0709 30.4929 12.0819 30.4992 12.0932 30.5057C12.148 30.5373 12.2028 30.5689 12.2577 30.6005C12.2796 30.6132 12.3014 30.6258 12.3233 30.6384C13.0674 31.0677 13.8115 31.497 14.5556 31.9263C14.5665 31.9325 14.5773 31.9388 14.5885 31.9452C14.6103 31.9578 14.6322 31.9705 14.6541 31.9831C14.709 32.0148 14.764 32.0465 14.819 32.0781C14.9294 32.1418 15.0396 32.2055 15.1497 32.2697C15.1598 32.2756 15.1699 32.2815 15.1804 32.2876C15.2567 32.3322 15.2567 32.3322 15.2828 32.3504C15.3072 32.3654 15.3072 32.3654 15.3336 32.3615C15.3598 32.3527 15.3819 32.342 15.4059 32.3283C15.4149 32.3231 15.424 32.318 15.4334 32.3127C15.4431 32.307 15.4528 32.3014 15.4628 32.2956C15.4782 32.2868 15.4782 32.2868 15.4939 32.2778C15.5759 32.2308 15.6575 32.1831 15.7391 32.1353C15.8174 32.0895 15.896 32.0444 15.9748 31.9995C16.073 31.9436 16.1709 31.8871 16.2684 31.83C16.3747 31.7678 16.4814 31.7063 16.5881 31.6449C16.643 31.6133 16.6978 31.5816 16.7526 31.55C16.7745 31.5374 16.7964 31.5248 16.8182 31.5121C16.8345 31.5028 16.8345 31.5028 16.8511 31.4932C18.5253 30.5273 18.5253 30.5273 18.5582 30.5083C18.5799 30.4958 18.6016 30.4833 18.6233 30.4707C18.6746 30.4412 18.7258 30.4116 18.7772 30.3821C18.8015 30.3682 18.8257 30.3543 18.8499 30.3404C18.8671 30.3306 18.8842 30.3208 18.9013 30.311C18.9117 30.305 18.922 30.2991 18.9327 30.2929C18.9418 30.2877 18.951 30.2825 18.9604 30.2771C18.9685 30.2722 18.9766 30.2672 18.9849 30.2621C18.992 30.2583 18.999 30.2544 19.0063 30.2505C19.0283 30.2325 19.0283 30.2325 19.0305 30.2008C19.0306 30.1879 19.0306 30.175 19.0307 30.1616C19.0308 30.1544 19.0309 30.1472 19.031 30.1398C19.0312 30.1154 19.0312 30.091 19.0312 30.0666C19.0313 30.049 19.0314 30.0314 19.0316 30.0139C19.032 29.9654 19.0321 29.9169 19.0322 29.8684C19.0323 29.8162 19.0327 29.764 19.033 29.7118C19.0338 29.5856 19.0342 29.4594 19.0345 29.3332C19.0346 29.2738 19.0348 29.2144 19.035 29.155C19.0357 28.9576 19.0362 28.7602 19.0365 28.5628C19.0365 28.5116 19.0366 28.4603 19.0367 28.4091C19.0367 28.39 19.0367 28.39 19.0367 28.3705C19.037 28.1641 19.038 27.9577 19.0392 27.7513C19.0404 27.5396 19.0411 27.3278 19.0412 27.116C19.0413 26.997 19.0416 26.8781 19.0425 26.7591C19.0434 26.6578 19.0437 26.5565 19.0433 26.4552C19.0431 26.4035 19.0432 26.3519 19.0439 26.3002C19.0446 26.2528 19.0445 26.2055 19.0439 26.1582C19.0438 26.1411 19.044 26.124 19.0444 26.1069C19.0486 26.019 19.0486 26.019 19.0106 25.9436C18.9743 25.9154 18.9347 25.8955 18.8928 25.8769C18.8642 25.8639 18.8377 25.8477 18.8108 25.8315C18.7903 25.8198 18.7699 25.808 18.7494 25.7963C18.7265 25.7831 18.7036 25.7699 18.6807 25.7567C18.6692 25.7501 18.6577 25.7435 18.6458 25.7366C18.5904 25.7048 18.5351 25.6729 18.4798 25.641C18.458 25.6283 18.4361 25.6157 18.4142 25.6031C17.8452 25.2748 17.2761 24.9465 16.7071 24.6182C16.6963 24.612 16.6855 24.6057 16.6743 24.5993C16.6524 24.5867 16.6306 24.5741 16.6087 24.5615C16.5537 24.5297 16.4988 24.4981 16.4438 24.4664C16.3382 24.4056 16.2328 24.3445 16.1276 24.283C16.034 24.2283 15.94 24.1743 15.8458 24.1207C15.761 24.0723 15.6765 24.0236 15.5922 23.9743C15.5773 23.9656 15.5773 23.9656 15.5621 23.9567C15.4862 23.9123 15.4862 23.9123 15.4561 23.8947C15.4358 23.8829 15.4156 23.8712 15.3953 23.8594C15.3846 23.8532 15.3739 23.847 15.3628 23.8406C15.3224 23.8195 15.3076 23.8324 15.2696 23.8538ZM24.6104 23.8557C24.6 23.8617 24.5896 23.8678 24.5789 23.874C24.562 23.884 24.562 23.884 24.5448 23.8941C24.533 23.9011 24.5212 23.908 24.5093 23.9149C24.4847 23.9292 24.4601 23.9436 24.4356 23.958C24.3798 23.9907 24.3237 24.0229 24.2677 24.0551C24.2458 24.0677 24.2239 24.0804 24.202 24.093C23.5455 24.4718 23.5455 24.4718 23.5126 24.4907C23.4908 24.5033 23.4689 24.516 23.447 24.5286C23.3921 24.5603 23.3371 24.592 23.2821 24.6237C23.1766 24.6845 23.0711 24.7455 22.9659 24.807C22.8723 24.8618 22.7782 24.9157 22.684 24.9695C22.5918 25.022 22.5 25.0751 22.4084 25.1287C22.3021 25.1908 22.1954 25.2523 22.0887 25.3138C22.0339 25.3454 21.9791 25.377 21.9243 25.4086C21.9024 25.4213 21.8805 25.4339 21.8586 25.4465C21.8424 25.4559 21.8424 25.4559 21.8258 25.4655C21.4647 25.6738 21.4647 25.6738 21.4318 25.6928C21.4101 25.7053 21.3884 25.7178 21.3667 25.7303C21.3153 25.76 21.2639 25.7896 21.2125 25.8192C21.1882 25.8332 21.1638 25.8472 21.1395 25.8613C21.1222 25.8712 21.105 25.8811 21.0878 25.891C21.0774 25.897 21.067 25.903 21.0563 25.9092C21.0471 25.9144 21.0379 25.9197 21.0285 25.9251C21.0102 25.9359 20.9924 25.9474 20.9748 25.9592C20.9702 25.9827 20.9702 25.9827 20.971 26.0107C20.971 26.0217 20.9709 26.0327 20.9709 26.044C20.971 26.0561 20.971 26.0683 20.9711 26.0808C20.9711 26.0937 20.9711 26.1065 20.9711 26.1198C20.971 26.1555 20.9711 26.1913 20.9713 26.2271C20.9714 26.2656 20.9713 26.3041 20.9713 26.3427C20.9713 26.4095 20.9714 26.4763 20.9716 26.5431C20.9718 26.6396 20.9719 26.7362 20.9719 26.8328C20.972 26.9895 20.9722 27.1461 20.9725 27.3028C20.9728 27.455 20.973 27.6073 20.9731 27.7595C20.9731 27.7689 20.9731 27.7783 20.9731 27.7879C20.9732 27.835 20.9732 27.882 20.9732 27.9291C20.9736 28.3196 20.9741 28.71 20.9748 29.1005C21.0047 29.0887 21.0334 29.0768 21.0615 29.0612C21.0716 29.0556 21.0716 29.0556 21.082 29.0499C21.0893 29.0457 21.0967 29.0416 21.1042 29.0374C21.1121 29.033 21.12 29.0286 21.1281 29.0241C21.2035 28.9818 21.2781 28.9381 21.3526 28.8944C21.4318 28.8481 21.5113 28.8025 21.5909 28.7571C21.6891 28.7012 21.787 28.6446 21.8845 28.5876C21.9908 28.5254 22.0975 28.4639 22.2042 28.4025C22.2699 28.3646 22.3356 28.3267 22.4013 28.2888C22.4574 28.2565 22.5135 28.2241 22.5696 28.1919C22.7124 28.1098 22.7124 28.1098 22.8542 28.0261C22.8603 28.0224 22.8665 28.0187 22.8728 28.0149C22.9001 27.9992 22.9001 27.9992 22.9243 27.9793C22.9255 27.9514 22.9261 27.9236 22.9263 27.8957C22.9264 27.8869 22.9265 27.8781 22.9266 27.8691C22.927 27.84 22.9272 27.8108 22.9275 27.7817C22.9277 27.7616 22.9279 27.7414 22.9281 27.7213C22.9286 27.6682 22.9291 27.615 22.9296 27.5619C22.9301 27.5077 22.9307 27.4536 22.9313 27.3994C22.9323 27.2931 22.9334 27.1867 22.9344 27.0804C22.9416 27.0763 22.9488 27.0723 22.9562 27.0682C22.9833 27.053 23.0104 27.0378 23.0376 27.0227C23.0549 27.013 23.0723 27.0033 23.0896 26.9936C23.1508 26.9594 23.2118 26.9248 23.2721 26.8891C23.2791 26.8849 23.2862 26.8807 23.2934 26.8764C23.2998 26.8726 23.3062 26.8688 23.3128 26.8649C23.3697 26.8313 23.427 26.7983 23.4842 26.7653C23.4954 26.7589 23.5066 26.7524 23.5181 26.7458C23.5411 26.7326 23.564 26.7194 23.5869 26.7062C23.6421 26.6744 23.6973 26.6425 23.7525 26.6107C23.7744 26.598 23.7963 26.5854 23.8182 26.5728C23.829 26.5665 23.8399 26.5603 23.851 26.5538C24.0316 26.4497 24.0316 26.4497 24.2121 26.3455C24.223 26.3392 24.2338 26.333 24.245 26.3265C24.2667 26.314 24.2885 26.3015 24.3103 26.2892C24.3616 26.2599 24.4124 26.2301 24.462 26.198C24.4853 26.183 24.5088 26.1683 24.5323 26.1536C24.5488 26.1431 24.5649 26.1322 24.581 26.1212C24.6118 26.1022 24.6364 26.0885 24.6717 26.0804C24.7179 26.0921 24.7536 26.1145 24.7929 26.141C24.8063 26.1486 24.8196 26.1562 24.8331 26.1637C24.8454 26.171 24.8577 26.1784 24.8699 26.1858C24.8847 26.1946 24.8995 26.2034 24.9143 26.2121C24.9222 26.2169 24.9302 26.2216 24.9385 26.2265C24.9888 26.2563 25.0396 26.2854 25.0903 26.3146C25.1014 26.321 25.1126 26.3275 25.1241 26.3341C25.1471 26.3473 25.17 26.3605 25.193 26.3737C25.2482 26.4055 25.3034 26.4374 25.3586 26.4692C25.3805 26.4819 25.4024 26.4945 25.4242 26.5071C25.468 26.5324 25.5118 26.5576 25.5555 26.5829C25.5664 26.5891 25.5772 26.5954 25.5884 26.6018C25.6103 26.6144 25.6321 26.6271 25.654 26.6397C25.7089 26.6714 25.7639 26.7031 25.8189 26.7348C25.9363 26.8024 26.0536 26.8703 26.1705 26.9389C26.2529 26.9871 26.336 27.0335 26.4192 27.0804C26.4192 27.7503 26.4192 28.4203 26.4192 29.1106C26.2792 29.1906 26.2792 29.1906 26.1364 29.2723C26.0086 29.3458 25.881 29.4194 25.7538 29.4938C25.6601 29.5486 25.5661 29.6026 25.4718 29.6563C25.3797 29.7088 25.288 29.7619 25.1965 29.8154C25.0992 29.8723 25.0017 29.9288 24.9039 29.9848C24.8666 30.0063 24.8295 30.028 24.7927 30.0502C24.7853 30.0546 24.7778 30.059 24.7702 30.0636C24.7568 30.0715 24.7435 30.0796 24.7304 30.0878C24.7129 30.098 24.7129 30.098 24.6818 30.1106C24.6427 30.0985 24.6084 30.0784 24.573 30.0581C24.556 30.0483 24.556 30.0483 24.5386 30.0384C24.5264 30.0313 24.5141 30.0243 24.5019 30.0172C24.4892 30.0099 24.4765 30.0026 24.4638 29.9953C24.3829 29.9489 24.3022 29.902 24.2216 29.855C24.2118 29.8492 24.202 29.8435 24.1918 29.8376C24.1444 29.81 24.0971 29.7821 24.0501 29.7536C24.0413 29.7483 24.0325 29.743 24.0235 29.7376C24.0071 29.7277 23.9907 29.7178 23.9745 29.7077C23.9672 29.7034 23.96 29.6991 23.9525 29.6946C23.9463 29.6908 23.9401 29.687 23.9337 29.6831C23.9065 29.6736 23.891 29.678 23.8636 29.6864C23.8373 29.699 23.8373 29.699 23.8105 29.7152C23.8002 29.7212 23.7898 29.7272 23.7792 29.7334C23.7681 29.74 23.757 29.7466 23.7456 29.7533C23.7339 29.7602 23.7221 29.767 23.7104 29.7739C23.686 29.7881 23.6616 29.8024 23.6373 29.8167C23.5816 29.8493 23.5256 29.8815 23.4697 29.9137C23.4478 29.9263 23.4259 29.9389 23.404 29.9515C23.0101 30.1788 23.0101 30.1788 22.9773 30.1978C22.9554 30.2104 22.9335 30.223 22.9117 30.2356C22.8567 30.2673 22.8018 30.299 22.7468 30.3307C22.6412 30.3915 22.5357 30.4525 22.4306 30.514C22.3055 30.5872 22.1796 30.6591 22.0537 30.7308C22.0206 30.7496 21.9876 30.7685 21.9546 30.7874C21.979 30.8145 22.0052 30.8309 22.0368 30.8488C22.0473 30.8548 22.0578 30.8608 22.0686 30.867C22.0799 30.8735 22.0912 30.8799 22.1029 30.8865C22.1209 30.8968 22.1388 30.907 22.1568 30.9173C22.169 30.9243 22.1813 30.9313 22.1936 30.9383C22.2518 30.9716 22.3096 31.0054 22.3674 31.0393C22.4551 31.0906 22.5431 31.1412 22.6313 31.1914C22.7295 31.2474 22.8274 31.3039 22.9249 31.361C23.0312 31.4231 23.1379 31.4846 23.2446 31.5461C23.2995 31.5777 23.3543 31.6093 23.4091 31.6409C23.431 31.6536 23.4529 31.6662 23.4748 31.6788C24.1313 32.0576 24.1313 32.0576 24.1642 32.0766C24.1859 32.0891 24.2077 32.1016 24.2294 32.1142C24.2804 32.1436 24.3314 32.173 24.3824 32.2025C24.4005 32.2129 24.4186 32.2233 24.4367 32.2338C24.4593 32.2469 24.482 32.2599 24.5047 32.273C24.5247 32.2846 24.5448 32.2961 24.5649 32.3076C24.5808 32.3169 24.5967 32.3264 24.6122 32.3363C24.6463 32.3582 24.6463 32.3582 24.6855 32.3608C24.7153 32.3521 24.7385 32.34 24.7653 32.3242C24.7756 32.3182 24.7859 32.3122 24.7966 32.306C24.8077 32.2994 24.8188 32.2929 24.8302 32.2861C24.8419 32.2793 24.8536 32.2724 24.8654 32.2655C24.8898 32.2513 24.9141 32.237 24.9385 32.2227C24.9942 32.1901 25.0501 32.158 25.1061 32.1258C25.1279 32.1131 25.1498 32.1005 25.1717 32.0879C25.5657 31.8606 25.5657 31.8606 25.5985 31.8417C25.6204 31.8291 25.6422 31.8164 25.6641 31.8038C25.719 31.7721 25.774 31.7404 25.829 31.7088C25.9346 31.6479 26.04 31.5869 26.1452 31.5254C26.2388 31.4706 26.3329 31.4167 26.4271 31.363C26.5193 31.3104 26.6111 31.2573 26.7027 31.2037C26.809 31.1416 26.9157 31.0801 27.0224 31.0186C27.0772 30.987 27.132 30.9554 27.1869 30.9238C27.2087 30.9111 27.2306 30.8985 27.2525 30.8859C27.2688 30.8765 27.2688 30.8765 27.2853 30.8669C27.9091 30.5071 27.9091 30.5071 27.942 30.4881C27.9636 30.4756 27.9853 30.4631 28.007 30.4506C28.0586 30.4208 28.1101 30.3911 28.1618 30.3614C28.1863 30.3473 28.2108 30.3332 28.2354 30.3191C28.2528 30.309 28.2703 30.299 28.2878 30.289C28.2982 30.283 28.3087 30.277 28.3195 30.2708C28.3334 30.2628 28.3334 30.2628 28.3476 30.2546C28.3678 30.2436 28.3678 30.2436 28.3788 30.2318C28.3798 30.2092 28.38 30.1865 28.38 30.1639C28.38 30.153 28.38 30.153 28.38 30.142C28.3801 30.1175 28.38 30.0929 28.38 30.0684C28.38 30.0508 28.38 30.0332 28.38 30.0155C28.38 29.9668 28.38 29.9181 28.3799 29.8694C28.3799 29.817 28.3799 29.7646 28.3799 29.7122C28.3799 29.6213 28.3799 29.5304 28.3798 29.4395C28.3797 29.3081 28.3797 29.1766 28.3797 29.0452C28.3797 28.832 28.3796 28.6188 28.3795 28.4056C28.3794 28.1984 28.3794 27.9913 28.3793 27.7841C28.3793 27.7713 28.3793 27.7586 28.3793 27.7454C28.3793 27.6814 28.3793 27.6174 28.3793 27.5534C28.3792 27.022 28.379 26.4906 28.3788 25.9592C28.3714 25.9549 28.3641 25.9507 28.3566 25.9464C28.3288 25.9303 28.3009 25.9143 28.2731 25.8983C28.2554 25.8881 28.2377 25.8779 28.22 25.8677C28.1453 25.8245 28.0707 25.7812 27.9962 25.7376C27.9085 25.6863 27.8205 25.6357 27.7323 25.5854C27.6341 25.5295 27.5363 25.473 27.4387 25.4159C27.3324 25.3537 27.2257 25.2922 27.119 25.2308C27.0642 25.1992 27.0093 25.1676 26.9545 25.1359C26.9326 25.1233 26.9108 25.1107 26.8889 25.098C26.3199 24.7698 25.7508 24.4415 25.1818 24.1132C25.171 24.1069 25.1601 24.1007 25.1489 24.0942C25.1272 24.0817 25.1055 24.0692 25.0838 24.0567C25.0325 24.027 24.9811 23.9974 24.9296 23.9678C24.9053 23.9538 24.881 23.9398 24.8566 23.9257C24.8394 23.9158 24.8221 23.9059 24.8049 23.896C24.7945 23.89 24.7841 23.884 24.7734 23.8778C24.7642 23.8726 24.7551 23.8673 24.7456 23.8619C24.7274 23.8511 24.7095 23.8396 24.6919 23.8279C24.6555 23.8279 24.6417 23.8373 24.6104 23.8557Z" fill="currentColor"/>
</svg>
