<svg width="24" height="24" viewBox="0 0 240 240" xmlns="http://www.w3.org/2000/svg">
  <path d="M190 20H50c-16.56 0-30 13.44-30 30v140c0 16.56 13.44 30 30 30h140c16.56 0 30-13.44 30-30V50c0-16.56-13.44-30-30-30m-92.98 83.52c-2.94 4.14-3.12 10.28-3.04 13.6v9.56c0 6.3-5.14 11.44-11.4 11.44H69c-6.3 0-11.4-5.12-11.4-11.44v-13.34c0-6.32 5.1-11.44 11.4-11.44h8.02c1.44 0 4.92-.06 6.44-.36 1.3-.26 5.5-1.2 9.5-4.2.44-.32.84-.64 1.18-.94 0 0 .92-.78 1.74-1.64 2.26-2.34 4-5.68 4-5.68.56-1.04 1.84-3.68 2.6-7.34.36-1.78.52-3.44.64-4.8l.42-7.94c0-6.3 5.12-11.42 11.42-11.42h13.26c6.3 0 11.42 5.12 11.42 11.42v13.36c0 6.3-5.12 11.42-11.42 11.42h-10.9c-2.5.06-4.58.32-6.12.6-2.82.52-4.28 1.12-4.72 1.3-2.08.88-3.5 1.98-4.28 2.58-.5.4-3.38 2.68-5.2 5.22v.04zM75.64 95.4C64.8 95.4 56 86.58 56 75.7S64.8 56 75.64 56s19.64 8.82 19.64 19.7-8.8 19.7-19.64 19.7m0 49.2c10.84 0 19.64 8.82 19.64 19.7S86.48 184 75.64 184 56 175.18 56 164.3s8.8-19.7 19.64-19.7M184 82.74c0 6.1-4.96 11.06-11.06 11.06-3.18-.18-5.84-.08-7.78.04-3.28.22-5.2.34-7.74 1.12-2.86.88-4.9 2.1-6.06 2.8-.5.3-2.48 1.52-4.78 3.56-1.3 1.16-2.54 2.26-3.82 4.02-1.78 2.46-2.56 4.7-2.96 5.9-1.08 3.24-1.28 7.74-1.22 9.92l-.12 5.86c0 6.12-4.94 11.08-11.04 11.08H113.4c-6.1 0-11.04-4.96-11.04-11.08v-14.06c0-6.12 4.94-11.08 11.04-11.08h8.48c3 0 8.96.26 14.02-1.6 4.34-1.58 8.68-5.98 10.38-10.8 1.62-4.9 1.58-11.42 1.58-11.42l.04-9.42c0-6.1 4.96-11.06 11.06-11.06h13.98c6.1 0 11.06 4.96 11.06 11.06z" fill="currentColor"/>
</svg>
