<svg width="512" height="512" viewBox="0 0 100 100" xmlns="http://www.w3.org/2000/svg">
  <!-- 背景填充 - 使用 currentColor 的淡化版本 -->
  <g opacity="0.1" fill="currentColor">
    <polygon points="50,50 50,5 9.1,27.5" />
    <polygon points="50,50 9.1,27.5 9.1,72.5" />
    <polygon points="50,50 9.1,72.5 50,95" />
    <polygon points="50,50 50,95 90.9,72.5" />
  </g>
  
  <!-- 蓝色填充 - 品牌色保持不变 -->
  <g fill="#2b98c9">
    <polygon points="50,50 90.9,27.5 50,5" />
    <polygon points="50,50 90.9,72.5 90.9,27.5" />
  </g>

  <!-- 框架线条 - 使用 currentColor 自动适配主题 -->
  <g fill="none" stroke="currentColor" stroke-width="7" stroke-linejoin="round" opacity="0.8">
    <polygon points="50,5 90.9,27.5 90.9,72.5 50,95 9.1,72.5 9.1,27.5" />
    <line x1="50" y1="50" x2="50" y2="5" />
    <line x1="50" y1="50" x2="90.9" y2="27.5" />
    <line x1="50" y1="50" x2="90.9" y2="27.5" />
    <line x1="50" y1="50" x2="90.9" y2="72.5" />
    <line x1="50" y1="50" x2="50" y2="95" />
    <line x1="50" y1="50" x2="9.1" y2="72.5" />
    <line x1="50" y1="50" x2="9.1" y2="27.5" />
  </g>
</svg>
