<svg width="24" height="24" viewBox="0 0 40 40" xmlns="http://www.w3.org/2000/svg">
<path d="M15.248 22.592C15.968 22.592 17.408 22.556 19.424 21.728C21.764 20.756 26.372 19.028 29.72 17.228C32.06 15.968 33.068 14.312 33.068 12.08C33.068 9.02 30.584 6.5 27.488 6.5H14.528C10.1 6.5 6.5 10.1 6.5 14.528C6.5 18.956 9.884 22.592 15.248 22.592Z" fill="currentColor"/>
<path d="M17.4441 28.1C17.4441 25.94 18.7401 23.96 20.7561 23.132L24.8241 21.44C28.9641 19.748 33.5001 22.772 33.5001 27.236C33.5001 30.692 30.6921 33.5 27.2361 33.5H22.8081C19.8561 33.5 17.4441 31.088 17.4441 28.1Z" fill="currentColor"/>
<path d="M11.144 23.636C8.588 23.636 6.5 25.724 6.5 28.28V28.892C6.5 31.412 8.588 33.5 11.144 33.5C13.7 33.5 15.788 31.412 15.788 28.856V28.244C15.752 25.724 13.7 23.636 11.144 23.636Z" fill="currentColor"/>
</svg>
