<svg width="1024" height="1024" viewBox="0 0 1024 1024" fill="none" xmlns="http://www.w3.org/2000/svg">
<path d="M329.629 170.24C321.66 171.527 312.097 175.696 305.354 180.845C284.941 196.354 269.125 229.273 262.444 270.283C259.93 285.792 258.214 307.309 258.214 323.738C258.214 343.109 260.482 367.874 263.731 384.977C264.466 388.778 264.834 392.15 264.528 392.395C264.283 392.64 261.279 395.092 257.907 397.789C246.383 406.984 233.203 421.145 224.13 434.08C206.721 458.784 195.442 486.86 190.721 517.265C188.882 529.28 188.392 553.555 189.863 565.57C193.112 593.278 201.449 616.695 215.732 638.151L220.391 645.078L219.042 647.346C209.479 663.407 201.326 686.64 197.526 708.953C194.522 726.608 194.154 731.328 194.154 754.99C194.154 778.837 194.461 783.557 197.281 800.047C200.652 819.786 207.518 840.689 215.18 854.605C217.694 859.141 223.824 868.581 224.559 869.072C224.805 869.194 224.069 871.462 222.904 874.098C214.077 893.408 206.537 919.093 203.411 940.733C201.204 955.567 200.897 960.349 200.897 975.981C200.897 995.903 202.001 1005.59 206.169 1021.47L206.782 1023.8H233.019H259.317L257.601 1020.55C246.996 1000.93 246.015 964.517 255.149 928.166C259.317 911.369 264.037 899.048 272.865 882.067L278.137 871.769V865.455C278.137 859.57 278.014 858.896 276.114 855.034C274.642 852.091 272.681 849.578 269.187 846.145C263.24 840.383 258.949 834.314 255.517 826.835C240.436 794.1 237.494 745.489 248.099 704.049C252.513 686.762 259.808 671.376 267.47 662.978C272.681 657.215 275.378 650.779 275.378 644.097C275.378 637.17 272.926 631.469 267.409 625.523C251.593 608.604 241.846 588.006 238.352 564.038C233.387 529.893 242.398 492.683 262.873 463.198C282.918 434.263 311.055 415.689 342.503 410.724C349.552 409.559 362.732 409.743 370.088 411.092C378.119 412.502 383.145 412.072 388.295 409.62C394.67 406.617 397.857 402.877 401.597 394.295C404.907 386.633 407.482 382.464 414.409 373.821C422.746 363.461 430.776 356.411 443.649 347.89C458.362 338.266 475.097 331.278 491.771 327.906C497.839 326.68 500.659 326.496 512 326.496C523.341 326.496 526.161 326.68 532.229 327.906C556.688 332.872 580.964 345.5 600.335 363.399C604.503 367.261 614.495 379.644 617.683 384.794C618.909 386.816 621.055 391.108 622.403 394.295C626.143 402.877 629.33 406.617 635.705 409.62C640.671 412.011 645.881 412.502 653.605 411.214C665.804 409.13 675.183 409.314 687.137 411.766C727.841 419.98 763.273 453.512 778.966 498.446C792.636 537.862 788.774 579.118 768.422 610.626C764.989 615.96 761.556 620.251 756.591 625.523C745.863 636.986 745.863 651.208 756.53 662.978C774.062 682.165 785.035 729.367 781.724 770.99C779.518 798.453 772.468 823.035 762.782 836.95C761.066 839.402 757.511 843.57 754.813 846.145C751.319 849.578 749.358 852.091 747.886 855.034C745.986 858.896 745.863 859.57 745.863 865.455V871.769L751.135 882.067C759.963 899.048 764.683 911.369 768.851 928.166C777.863 964.027 777.066 999.704 766.767 1019.99C765.909 1021.71 765.173 1023.31 765.173 1023.49C765.173 1023.67 776.882 1023.8 791.226 1023.8H817.218L817.892 1021.16C818.26 1019.75 818.873 1017.6 819.179 1016.38C819.854 1013.68 821.202 1005.71 822.306 998.049C823.348 990.325 823.348 961.881 822.306 953.299C818.383 922.158 811.823 897.454 801.096 874.098C799.931 871.462 799.195 869.194 799.44 869.072C799.747 868.888 801.463 866.436 803.302 863.677C816.666 843.448 824.88 818.008 829.049 784.415C830.152 775.158 830.152 735.374 829.049 726.485C826.106 703.559 822.551 687.988 816.666 672.234C814.214 665.675 807.716 651.821 804.958 647.346L803.609 645.078L808.268 638.151C822.551 616.695 830.888 593.278 834.137 565.57C835.608 553.555 835.118 529.28 833.279 517.265C828.497 486.798 817.279 458.845 799.87 434.08C790.797 421.145 777.617 406.984 766.093 397.789C762.721 395.092 759.717 392.64 759.472 392.395C759.166 392.15 759.534 388.778 760.269 384.977C767.687 346.296 767.441 298.053 759.656 260.352C752.913 227.495 740.653 201.381 724.837 186.301C712.209 174.286 699.336 169.136 683.888 170.117C648.456 172.202 619.89 212.967 608.61 277.21C606.771 287.57 605.178 299.708 605.178 303.018C605.178 304.305 604.932 305.347 604.626 305.347C604.319 305.347 601.929 304.121 599.354 302.589C572.014 286.405 541.608 277.762 512 277.762C482.392 277.762 451.986 286.405 424.646 302.589C422.071 304.121 419.681 305.347 419.374 305.347C419.068 305.347 418.822 304.305 418.822 303.018C418.822 299.585 417.167 287.08 415.39 277.21C405.152 219.526 381.674 181.335 350.472 171.711C346.181 170.424 333.982 169.566 329.629 170.24ZM340.051 220.139C348.878 227.127 358.686 247.111 364.326 269.486C365.368 273.532 366.471 278.191 366.778 279.907C367.023 281.563 367.697 285.302 368.249 288.183C370.64 301.179 371.743 315.217 371.866 332.32L371.927 349.178L367.697 355.43L363.468 361.744H353.598C342.074 361.744 330.61 363.216 319.637 366.158C315.714 367.139 311.913 368.12 311.178 368.304C310.013 368.549 309.829 368.181 309.155 363.154C305.538 335.875 305.722 305.654 309.707 280.52C314.12 252.506 324.419 227.127 334.472 219.649C336.863 217.871 337.292 217.932 340.051 220.139ZM689.589 219.71C695.658 224.185 702.34 236.077 707.305 251.28C717.297 281.685 720.117 323.431 714.845 363.154C714.171 368.181 713.987 368.549 712.822 368.304C712.087 368.12 708.286 367.139 704.363 366.158C693.39 363.216 681.926 361.744 670.402 361.744H660.532L656.303 355.43L652.073 349.178L652.134 332.32C652.257 308.535 654.464 289.961 659.735 269.302C665.314 247.111 675.183 227.127 683.949 220.139C686.708 217.932 687.137 217.871 689.589 219.71Z" fill="currentColor"/>
<path d="M502.498 528.237C489.195 529.525 485.579 530.015 479.203 531.303C468.843 533.448 454.989 538.23 445.365 542.95C411.895 559.317 388.846 586.596 381.796 618.166C380.386 624.419 380.202 626.503 380.202 637.047C380.202 647.468 380.386 649.736 381.735 655.682C391.114 696.938 429.12 727.405 478.284 732.983C488.95 734.148 535.049 734.148 545.715 732.983C585.193 728.508 619.154 707.114 634.418 677.076C638.463 669.046 640.425 663.835 642.264 655.682C643.613 649.736 643.797 647.468 643.797 637.047C643.797 626.503 643.613 624.419 642.203 618.166C631.965 572.313 587.461 536.207 532.903 529.341C525.792 528.483 507.157 527.747 502.498 528.237ZM525.424 561.585C543.631 563.547 561.96 570.045 576.672 579.853C584.58 585.125 595.737 596.159 600.518 603.393C606.403 612.342 609.774 621.476 611.307 632.572C611.981 637.66 611.614 641.522 609.774 649.736C606.893 661.996 597.943 674.808 585.867 683.758C580.227 687.865 568.519 693.812 561.347 696.141C547.738 700.493 538.849 701.29 507.095 701.045C486.376 700.861 482.697 700.677 476.751 699.574C456.461 695.773 440.4 687.681 428.753 675.36C419.312 665.429 415.021 656.357 412.692 641.706C411.65 634.901 413.611 623.622 417.596 614.12C422.439 602.534 434.944 588.129 447.327 579.853C461.671 570.29 480.552 563.486 497.9 561.647C504.582 560.911 518.742 560.911 525.424 561.585Z" fill="currentColor"/>
<path d="M488.584 606.336C483.925 608.849 480.676 615.224 481.657 619.944C482.76 625.032 487.235 630.182 494.223 634.412C497.963 636.68 498.208 636.986 498.392 639.254C498.514 640.603 498.024 644.465 497.35 647.898C496.614 651.269 496.062 654.825 496.062 655.806C496.124 658.442 498.576 662.733 501.15 664.817C503.419 666.656 503.848 666.717 510.223 666.901C516.047 667.085 517.273 666.962 519.602 665.859C525.61 662.916 527.142 657.522 524.935 647.162C523.096 638.519 523.464 637.17 528.062 634.534C532.904 631.714 538.054 626.749 539.586 623.377C542.529 616.941 539.831 609.646 533.333 606.274C531.74 605.477 529.778 605.11 526.897 605.11C522.422 605.11 519.541 606.152 514.269 609.523L511.265 611.424L509.365 610.259C501.58 605.661 500.17 605.11 495.449 605.171C492.078 605.171 490.239 605.477 488.584 606.336Z" fill="currentColor"/>
<path d="M339.744 535.165C328.894 538.598 320.802 546.567 316.634 557.908C314.611 563.303 313.63 571.824 314.488 576.421C316.511 587.394 325.522 597.386 335.76 600.145C348.633 603.516 358.257 601.309 366.778 592.85C371.743 588.007 374.441 583.777 377.138 576.911C379.099 572.069 379.222 571.211 379.222 564.345L379.283 556.989L376.709 551.717C372.601 543.38 365.184 537.188 356.602 534.92C351.759 533.694 343.974 533.756 339.744 535.165Z" fill="currentColor"/>
<path d="M667.153 534.982C658.755 537.25 651.276 543.502 647.291 551.717L644.717 556.989L644.778 564.345C644.778 571.211 644.901 572.069 646.862 576.911C649.56 583.777 652.257 588.007 657.222 592.85C665.743 601.309 675.367 603.516 688.241 600.145C695.658 598.183 703.075 591.93 706.631 584.635C709.696 578.444 710.431 573.969 709.451 566.919C707.183 550.797 697.742 539.089 683.704 534.982C679.597 533.756 671.628 533.756 667.153 534.982Z" fill="currentColor"/>
</svg>
