<svg width="24" height="24" viewBox="0 0 24 24" fill="none" xmlns="http://www.w3.org/2000/svg">
<path fill-rule="evenodd" clip-rule="evenodd" d="M5.94297 0.0595886C6.38097 -0.0371115 6.83226 -0.0141773 7.25547 0.114276C7.61112 0.222425 7.93275 0.400412 8.22421 0.63576C8.71 1.02514 9.12027 1.58282 9.4332 2.24318C9.74778 2.90754 9.9525 3.64368 10.0299 4.38185C11.0667 3.92869 12.2172 3.65239 13.4039 3.57228L13.4879 3.5674C14.9208 3.47831 16.3375 3.67838 17.5728 4.17092C17.7391 4.23836 17.9024 4.3104 18.0621 4.38674C18.1444 3.66276 18.3454 2.94388 18.6549 2.29494C18.9678 1.63313 19.3787 1.07629 19.8629 0.685565C20.1334 0.459528 20.4643 0.281577 20.8326 0.164081C21.2557 0.0368788 21.7052 0.0137724 22.1432 0.11037C22.8037 0.255458 23.3706 0.579213 23.817 1.04885C23.8809 1.116 23.9416 1.18674 24.0006 1.25978V8.86525C23.9202 8.81076 23.8377 8.75804 23.7525 8.70803C22.7725 8.13025 21.4747 7.85147 19.8326 7.93166C19.6179 7.94241 19.4039 7.90252 19.2184 7.81838C19.0329 7.7342 18.8841 7.60908 18.7916 7.459C18.2744 6.61278 17.5201 6.00727 16.5797 5.63185C15.6768 5.28365 14.6655 5.13699 13.6607 5.209C11.6104 5.3351 9.80192 6.22832 9.26328 7.35451C9.18708 7.51304 9.05027 7.65041 8.8707 7.74709C8.69117 7.84369 8.47717 7.89522 8.25839 7.89553C6.50128 7.89812 5.14082 8.21617 4.14609 8.79006C3.28632 9.28642 2.69988 9.9805 2.39023 10.8115C2.11007 11.5938 2.07138 12.4161 2.27793 13.2119C2.4624 13.922 2.8235 14.5103 3.23691 14.8272L3.25058 14.836C3.59944 15.0995 3.67297 15.5106 3.42929 15.835C2.83645 16.6266 2.39336 17.8066 2.32089 18.9404C2.23858 20.236 2.62763 21.3611 3.50547 22.168L3.53183 22.1924C3.66418 22.3116 3.74917 22.4577 3.77695 22.6133C3.80469 22.769 3.77389 22.9277 3.68808 23.0703C3.49421 23.3918 3.32848 23.7019 3.18906 24H0.93027C1.07088 23.6373 1.24422 23.2643 1.45175 22.8819L1.47421 22.8369L1.46152 22.8223C1.01548 22.3132 0.682185 21.75 0.476168 21.1563L0.468356 21.1319C0.218366 20.3912 0.119557 19.6247 0.176363 18.8604C0.248833 17.7023 0.634192 16.5155 1.20078 15.5635L1.22129 15.5303L1.21738 15.5283C0.734816 14.9963 0.377911 14.3149 0.18027 13.5615L0.171481 13.5313C-0.100814 12.4804 -0.048187 11.3946 0.324801 10.3623C0.756332 9.19776 1.60495 8.19753 2.85507 7.47463C2.95373 7.41746 3.05715 7.36002 3.16074 7.30666C2.89886 5.40661 2.9649 3.83207 3.34531 2.63576C3.55444 1.97665 3.86277 1.4269 4.27109 0.998065C4.71578 0.529731 5.28253 0.20596 5.94297 0.0595886ZM6.48496 1.65724C6.29417 1.72137 6.13087 1.82636 6.01523 1.95998L6.00742 1.96779C5.78018 2.20834 5.58238 2.56193 5.43418 3.02639C5.15417 3.90709 5.07855 5.10252 5.23007 6.5674C5.93829 6.40451 6.71084 6.30255 7.54257 6.26564L7.55918 6.26369L7.59043 6.22072C7.66606 6.11656 7.74647 6.0161 7.83359 5.91701C8.03614 4.93593 7.87032 3.76364 7.41757 2.80666C7.19694 2.34354 6.92834 1.97899 6.67148 1.7715C6.61845 1.72839 6.55879 1.69026 6.49472 1.65724L6.48984 1.65432L6.48496 1.65724ZM21.5973 1.70607C21.5332 1.73908 21.4736 1.77819 21.4205 1.82131C21.1636 2.02877 20.8935 2.39424 20.6744 2.85744C20.1969 3.86792 20.0369 5.1179 20.2955 6.13088L20.3912 6.25392L20.4039 6.2715H20.4537C21.2711 6.27168 22.0847 6.36324 22.8687 6.54201C23.0103 5.11148 22.9312 3.94134 22.6578 3.07717C22.5095 2.6127 22.3116 2.25911 22.0826 2.01857L22.0758 2.01076C21.9603 1.87677 21.798 1.77053 21.607 1.70607L21.6002 1.7051L21.5973 1.70607Z" fill="currentColor"/>
<path d="M13.1773 14.2041C13.3296 14.192 13.4829 14.2267 13.6021 14.3008L13.9557 14.5205L14.318 14.2988C14.4368 14.2263 14.5881 14.1921 14.7389 14.2041C14.8896 14.2163 15.0286 14.2734 15.1256 14.3633L15.1324 14.3692C15.3297 14.5612 15.2882 14.8396 15.0396 14.9922L14.5592 15.2852V15.8526C14.5583 15.9788 14.4924 16.0995 14.3766 16.1885C14.2606 16.2774 14.1034 16.3274 13.94 16.3272C13.7764 16.3275 13.6186 16.2775 13.5025 16.1885C13.3867 16.0995 13.3207 15.9788 13.3199 15.8526V15.2676L12.8736 14.9903C12.8149 14.9539 12.7663 14.9085 12.7301 14.8574C12.6939 14.8063 12.6706 14.7494 12.6627 14.6914C12.6548 14.6337 12.6619 14.5752 12.6832 14.5195C12.7047 14.4636 12.741 14.4114 12.7887 14.3662C12.8858 14.275 13.0253 14.2164 13.1773 14.2041Z" fill="currentColor"/>
<path fill-rule="evenodd" clip-rule="evenodd" d="M14.0348 11.6836C15.5764 11.6836 17.0001 12.0817 18.0641 12.7715C19.1015 13.4421 19.7192 14.3431 19.7193 15.2403C19.7193 16.3703 19.0503 17.2509 17.8531 17.8135C16.8319 18.2907 15.4631 18.5225 13.8951 18.5225C12.2332 18.5225 10.8131 18.1934 9.78867 17.5889C8.77251 16.9907 8.20273 16.1501 8.20273 15.2403C8.20289 14.3406 8.85837 13.4368 9.94199 12.7637C11.0422 12.0802 12.4949 11.6837 14.0348 11.6836ZM14.0348 12.8233C12.8923 12.8156 11.78 13.1073 10.8795 13.6504C10.1202 14.1213 9.69003 14.7141 9.69003 15.2422C9.69022 15.7868 10.0364 16.2965 10.6949 16.6846C11.4444 17.1262 12.5461 17.3828 13.8951 17.3828C15.2108 17.3828 16.3208 17.1957 17.0768 16.8408C17.8394 16.4844 18.2301 15.967 18.2301 15.2403C18.2299 14.7019 17.8247 14.1073 17.1051 13.6416C16.3079 13.1263 15.2271 12.8233 14.0348 12.8233Z" fill="currentColor"/>
<path d="M6.82382 11.9209C7.61111 11.9209 8.25253 12.4181 8.25253 13.0303C8.25282 13.3234 8.10234 13.6047 7.83457 13.8125C7.56655 14.0203 7.20251 14.1379 6.82285 14.1387C6.44366 14.1377 6.07976 14.02 5.81211 13.8125C5.54474 13.605 5.3942 13.324 5.39414 13.0313C5.39325 12.738 5.54354 12.4561 5.81113 12.2481C6.07881 12.04 6.44423 11.9221 6.82382 11.9209Z" fill="currentColor"/>
<path d="M21.1637 11.9209C21.9542 11.9209 22.5934 12.4181 22.5934 13.0303C22.5937 13.3235 22.4433 13.6047 22.1754 13.8125C21.9073 14.0203 21.5433 14.138 21.1637 14.1387C20.7845 14.1377 20.4216 14.02 20.1539 13.8125C19.8864 13.605 19.736 13.3242 19.7359 13.0313C19.735 12.738 19.8844 12.4561 20.1519 12.2481C20.4196 12.04 20.7839 11.922 21.1637 11.9209Z" fill="currentColor"/>
</svg>

