<svg width="24" height="24" viewBox="0 0 40 40" xmlns="http://www.w3.org/2000/svg">
<path d="M21.1347 11.6023H16.03C14.91 11.7318 14.0484 12.6601 14.0054 13.7827V21.1657C14.0054 21.6622 14.1992 22.094 14.5223 22.4178C14.8454 22.7416 15.2762 22.9359 15.7716 22.9359C16.7408 22.9359 17.5378 22.1371 17.5378 21.1657V16.4811C17.5378 15.7472 18.1408 15.1427 18.8732 15.1427H21.1778C21.6732 15.1427 22.104 14.9484 22.4271 14.6246C22.7501 14.3008 22.944 13.8474 22.944 13.3509C22.944 12.3795 22.104 11.6023 21.1347 11.6023Z" fill="currentColor"/>
<path d="M18.8303 28.4408H23.935C25.055 28.3112 25.9166 27.3829 25.9596 26.2605V18.8774C25.9596 18.3809 25.7658 17.9491 25.4427 17.6253C25.1196 17.3015 24.6888 17.1072 24.1934 17.1072C23.2242 17.1072 22.4272 17.906 22.4272 18.8774V23.562C22.4272 24.2959 21.8242 24.9004 21.0918 24.9004H18.7872C18.2918 24.9004 17.861 25.0947 17.5379 25.4185C17.2149 25.7423 17.021 26.1957 17.021 26.6921C17.0425 27.6637 17.861 28.4408 18.8303 28.4408Z" fill="currentColor"/>
<path fill-rule="evenodd" clip-rule="evenodd" d="M12.7131 4.5H21.9963C28.1133 4.5 33.0456 9.4436 33.0243 15.5745V30.2759C32.7442 33.0607 30.4825 35.2625 27.6826 35.5H17.9039C11.8084 35.5 6.85449 30.5348 6.85449 24.4255V10.3719C6.85449 7.13371 9.48224 4.5 12.7131 4.5ZM29.5133 15.5745C29.5133 11.4297 26.1318 8.04039 21.9963 8.04039H12.7346C11.4423 8.04039 10.4084 9.07661 10.4084 10.3719V24.4255C10.4084 28.592 13.7685 31.9595 17.9255 31.9595H27.5318C28.5442 31.8302 29.3411 31.053 29.5133 30.0599V15.5745Z" fill="currentColor"/>
</svg>
