<svg width="24" height="24" viewBox="0 0 40 40" xmlns="http://www.w3.org/2000/svg">
<path fill-rule="evenodd" clip-rule="evenodd" d="M13.8099 4.59312C14.0228 4.46592 14.291 4.464 14.4921 4.61046L18.2545 6.37574C18.4281 6.50294 18.4005 6.75732 18.2112 6.85946C13.0802 9.60953 9.98041 12.2921 8.35359 14.8957C7.30256 16.5801 5.36418 21.1764 7.1172 25.3236C8.93136 29.6135 13.0467 31.163 16.0933 31.163C18.3945 31.163 19.9583 30.4846 21.5476 29.4285C25.8543 26.5628 26.3512 20.9721 23.1449 17.1293C23.1449 17.1255 24.9034 18.6016 26.0292 20.8472C25.8171 20.0379 25.4855 19.2621 25.0379 18.5419L24.8291 18.2179C23.9019 16.8307 22.6786 15.6665 21.0014 14.8379C16.9827 12.8549 8.59219 13.8108 7.27101 22.352C7.4051 16.4278 11.4002 12.7103 15.0206 11.5617C17.03 10.9219 19.1577 10.8005 21.167 11.1532C23.6325 9.19403 26.3366 8.22662 27.5796 7.85627L27.8695 7.77294C28.116 7.70356 28.3803 7.77294 28.5597 7.95024C28.8634 8.25088 29.3938 8.77121 30.0682 9.42645C30.2733 9.62109 30.1668 9.95835 29.8888 10.0104C27.2819 10.5018 25.5033 10.9913 23.6201 11.845C25.9016 12.7527 27.8557 14.3427 29.0468 16.5338C29.1868 16.7921 29.0665 17.112 28.7845 17.2122L27.1892 17.7788C28.5913 20.1184 28.9502 22.986 28.2639 25.9249C27.0966 30.9182 23.1863 34.4546 18.1914 35.2948C18.1414 35.3032 18.0914 35.3114 18.0413 35.3194C17.6251 35.3943 17.2077 35.4458 16.7931 35.4738L16.331 35.4956L15.8725 35.4991C15.5727 35.4933 15.346 35.2254 15.3992 34.9364L15.7029 33.2501C14.3087 33.1557 13.0033 32.9282 11.694 32.4079C3.92666 29.3206 3.11226 21.7854 4.22639 17.218C5.6718 11.2958 10.1165 6.81128 13.8099 4.59312Z" fill="currentColor"/>
</svg>
